<svg xmlns="http://www.w3.org/2000/svg" width="19.462" height="15.898" viewBox="0 0 19.462 15.898">
    
    <g transform="translate(-13.601)">
        <g transform="translate(13.601 4.554)">
            <path class="abc"  d="M32.661,157.377h-.88v-9.888a.982.982,0,0,0-1.079-.835H28.734a.982.982,0,0,0-1.079.835v9.888H25.419v-5.408a.982.982,0,0,0-1.079-.835H22.372a.982.982,0,0,0-1.079.835v5.408H19.057v-2.8a.982.982,0,0,0-1.079-.835H16.01a.982.982,0,0,0-1.079.835v2.8H14A.321.321,0,1,0,14,158H32.661a.321.321,0,1,0,0-.621Zm-14.407,0H15.733v-2.8a.251.251,0,0,1,.276-.214h1.968a.251.251,0,0,1,.276.214Zm6.362,0H22.1v-5.408a.251.251,0,0,1,.276-.214H24.34a.251.251,0,0,1,.276.214Zm6.362,0H28.457v-9.888a.251.251,0,0,1,.276-.214H30.7a.251.251,0,0,1,.276.214Z" transform="translate(-13.601 -146.654)"/>
        </g>
        <g transform="translate(17.043)">
            <path class="abc" d="M114.083.327a.275.275,0,0,0-.117-.236.471.471,0,0,0-.3-.09h-2.448a.365.365,0,0,0-.4.31.365.365,0,0,0,.4.31h1.5l-3.968,3.07-1.5-1.158a.488.488,0,0,0-.568,0L99.464,8.115a.264.264,0,0,0,0,.439.489.489,0,0,0,.568,0l6.933-5.362,1.5,1.158a.489.489,0,0,0,.568,0l4.252-3.289V2.11a.415.415,0,0,0,.8,0V.342C114.084.336,114.083.332,114.083.327Z" transform="translate(-99.346)"/>
        </g>
        <g transform="translate(15.69 9.107)">
            <ellipse  class="abc"  cx="0.401" cy="0.31" rx="0.401" ry="0.31"/>
        </g>
    </g>
</svg>
