<svg width="25" height="24" viewBox="0 0 25 24" fill="none" xmlns="http://www.w3.org/2000/svg">
<path d="M20.6406 0H4.64062C2.43149 0 0.640625 1.79086 0.640625 4V20C0.640625 22.2091 2.43149 24 4.64062 24H20.6406C22.8498 24 24.6406 22.2091 24.6406 20V4C24.6406 1.79086 22.8498 0 20.6406 0Z" fill="#fff"/>
<path d="M17.1891 18.5805L13.1411 14.5325L9.09413 18.5805C8.82332 18.8434 8.45996 18.9892 8.08256 18.9864C7.70516 18.9835 7.34401 18.8324 7.07714 18.5655C6.81027 18.2986 6.6591 17.9375 6.65629 17.5601C6.65348 17.1827 6.79926 16.8193 7.06213 16.5485L11.1101 12.5005L7.06213 8.45351C6.79926 8.1827 6.65348 7.81934 6.65629 7.44194C6.6591 7.06453 6.81027 6.70338 7.07714 6.43651C7.34401 6.16964 7.70516 6.01847 8.08256 6.01566C8.45996 6.01286 8.82332 6.15864 9.09413 6.42151L13.1411 10.4695L17.1891 6.42151C17.4599 6.15864 17.8233 6.01286 18.2007 6.01566C18.5781 6.01847 18.9393 6.16964 19.2061 6.43651C19.473 6.70338 19.6242 7.06453 19.627 7.44194C19.6298 7.81934 19.484 8.1827 19.2211 8.45351L15.1731 12.5005L19.2211 16.5485C19.484 16.8193 19.6298 17.1827 19.627 17.5601C19.6242 17.9375 19.473 18.2986 19.2061 18.5655C18.9393 18.8324 18.5781 18.9835 18.2007 18.9864C17.8233 18.9892 17.4599 18.8434 17.1891 18.5805Z" fill="#B7B7B7"/>
</svg>