<svg width="31" height="29" viewBox="0 0 31 29" fill="none" xmlns="http://www.w3.org/2000/svg">
<path d="M6.62888 3.62419C5.07054 9.38875 1.01368 12.54 0.262566 15.3182C-0.488545 18.0965 -0.468688 24.3618 12.3106 27.8169C25.0898 31.272 29.0871 23.9309 29.9125 20.8747C33.7811 6.56733 9.389 -6.58574 6.62888 3.62419Z" fill="#EFEFEF"/>
<path d="M0.742188 24.2693L1.35267 23.6588L2.57362 24.8798L1.96314 25.4902L0.742188 24.2693Z" fill="#A4AFC1"/>
<path d="M4.25244 27.7795L4.86292 27.1691L6.08387 28.39L5.4734 29.0005L4.25244 27.7795Z" fill="#A4AFC1"/>
<path d="M0.588867 28.3896L1.80982 27.1687L2.4203 27.7792L1.19935 29.0001L0.588867 28.3896Z" fill="#A4AFC1"/>
<path d="M27.3224 3.56904C26.6084 3.56904 26.0273 2.98801 26.0273 2.27402C26.0273 1.56004 26.6084 0.979004 27.3224 0.979004C28.0364 0.979004 28.6174 1.56004 28.6174 2.27402C28.6174 2.98801 28.0364 3.56904 27.3224 3.56904ZM27.3224 1.84235C27.0841 1.84235 26.8907 2.03574 26.8907 2.27402C26.8907 2.51231 27.0841 2.70569 27.3224 2.70569C27.5606 2.70569 27.754 2.51231 27.754 2.27402C27.754 2.03574 27.5606 1.84235 27.3224 1.84235Z" fill="#A4AFC1"/>
<path d="M24.0136 16.3033H13.2217C12.7452 16.3033 12.3584 15.9165 12.3584 15.4399V13.2816C12.3584 12.805 12.7452 12.4182 13.2217 12.4182H24.0136C24.4901 12.4182 24.8769 12.805 24.8769 13.2816V15.4399C24.8769 15.9165 24.4901 16.3033 24.0136 16.3033Z" fill="#2FDF84"/>
<path d="M24.0136 24.0733H13.2217C12.7452 24.0733 12.3584 23.6865 12.3584 23.2099V21.0516C12.3584 20.575 12.7452 20.1882 13.2217 20.1882H24.0136C24.4901 20.1882 24.8769 20.575 24.8769 21.0516V23.2099C24.8769 23.6865 24.4901 24.0733 24.0136 24.0733Z" fill="#2FDF84"/>
<path d="M7.3937 16.3033C6.32056 16.3033 5.45117 15.4339 5.45117 14.3607C5.45117 13.2876 6.32056 12.4182 7.3937 12.4182C8.46684 12.4182 9.33623 13.2876 9.33623 14.3607C9.33623 15.4339 8.46684 16.3033 7.3937 16.3033Z" fill="#2FDF84"/>
<path d="M24.0136 8.53301H13.2217C12.7452 8.53301 12.3584 8.14623 12.3584 7.66966V5.5113C12.3584 5.03473 12.7452 4.64795 13.2217 4.64795H24.0136C24.4901 4.64795 24.8769 5.03473 24.8769 5.5113V7.66966C24.8769 8.14623 24.4901 8.53301 24.0136 8.53301Z" fill="#F3F3F1"/>
<path d="M7.39419 8.53301C6.32105 8.53301 5.45166 7.66362 5.45166 6.59048C5.45166 5.51734 6.32105 4.64795 7.39419 4.64795C8.46733 4.64795 9.33672 5.51734 9.33672 6.59048C9.33672 7.66362 8.46733 8.53301 7.39419 8.53301Z" fill="#F3F3F1"/>
<path d="M7.3937 24.0733C6.32056 24.0733 5.45117 23.2039 5.45117 22.1308C5.45117 21.0576 6.32056 20.1882 7.3937 20.1882C8.46684 20.1882 9.33623 21.0576 9.33623 22.1308C9.33623 23.2039 8.46684 24.0733 7.3937 24.0733Z" fill="#2FDF84"/>
<path d="M7.39419 8.53301C8.46702 8.53301 9.33672 7.66331 9.33672 6.59048C9.33672 5.51765 8.46702 4.64795 7.39419 4.64795C6.32136 4.64795 5.45166 5.51765 5.45166 6.59048C5.45166 7.66331 6.32136 8.53301 7.39419 8.53301Z" fill="#D5DBE1"/>
<path d="M14.3004 15.4399V13.2816C14.3004 12.805 14.6872 12.4182 15.1638 12.4182H13.2213C12.7447 12.4182 12.3579 12.805 12.3579 13.2816V15.4399C12.3579 15.9165 12.7447 16.3033 13.2213 16.3033H15.1638C14.6872 16.3033 14.3004 15.9165 14.3004 15.4399Z" fill="#00B871"/>
<path d="M14.3004 23.2102V21.0518C14.3004 20.5753 14.6872 20.1885 15.1638 20.1885H13.2213C12.7447 20.1885 12.3579 20.5753 12.3579 21.0518V23.2102C12.3579 23.6868 12.7447 24.0735 13.2213 24.0735H15.1638C14.6872 24.0735 14.3004 23.6868 14.3004 23.2102Z" fill="#00B871"/>
<path d="M7.39419 14.3607C7.39419 13.6433 7.78701 13.0243 8.36545 12.6876C8.07882 12.521 7.74989 12.4182 7.39419 12.4182C6.32105 12.4182 5.45166 13.2876 5.45166 14.3607C5.45166 15.4339 6.32105 16.3033 7.39419 16.3033C7.74989 16.3033 8.07882 16.2005 8.36545 16.0339C7.78701 15.6972 7.39419 15.0782 7.39419 14.3607Z" fill="#00B871"/>
<path d="M14.3004 7.66966V5.5113C14.3004 5.03473 14.6872 4.64795 15.1638 4.64795H13.2213C12.7447 4.64795 12.3579 5.03473 12.3579 5.5113V7.66966C12.3579 8.14623 12.7447 8.53301 13.2213 8.53301H15.1638C14.6872 8.53301 14.3004 8.14623 14.3004 7.66966Z" fill="#D5DBE1"/>
<path d="M9.33657 8.53301C8.26343 8.53301 7.39404 7.66362 7.39404 6.59048C7.39404 5.51734 8.26343 4.64795 9.33657 4.64795C10.4097 4.64795 11.2791 5.51734 11.2791 6.59048C11.2791 7.66362 10.4097 8.53301 9.33657 8.53301Z" fill="#D5DBE1"/>
<path d="M7.39419 22.131C7.39419 21.4136 7.78701 20.7945 8.36545 20.4578C8.07882 20.2912 7.74989 20.1885 7.39419 20.1885C6.32105 20.1885 5.45166 21.0579 5.45166 22.131C5.45166 23.2041 6.32105 24.0735 7.39419 24.0735C7.74989 24.0735 8.07882 23.9708 8.36545 23.8042C7.78701 23.4675 7.39419 22.8484 7.39419 22.131Z" fill="#00B871"/>
<path d="M24.0136 16.9508H13.2218C12.3887 16.9508 11.7109 16.2731 11.7109 15.44V13.2816C11.7109 12.4485 12.3887 11.7708 13.2218 11.7708H24.0136C24.8468 11.7708 25.5245 12.4485 25.5245 13.2816V15.44C25.5245 16.2731 24.8468 16.9508 24.0136 16.9508ZM13.2218 13.0658C13.1027 13.0658 13.006 13.1625 13.006 13.2816V15.44C13.006 15.5591 13.1027 15.6558 13.2218 15.6558H24.0136C24.1328 15.6558 24.2295 15.5591 24.2295 15.44V13.2816C24.2295 13.1625 24.1328 13.0658 24.0136 13.0658H13.2218Z" fill="black"/>
<path d="M24.0136 24.7208H13.2218C12.3887 24.7208 11.7109 24.0431 11.7109 23.21V21.0516C11.7109 20.2185 12.3887 19.5408 13.2218 19.5408H24.0136C24.8468 19.5408 25.5245 20.2185 25.5245 21.0516V23.21C25.5245 24.0431 24.8468 24.7208 24.0136 24.7208ZM13.2218 20.8358C13.1027 20.8358 13.006 20.9325 13.006 21.0516V23.21C13.006 23.3291 13.1027 23.4258 13.2218 23.4258H24.0136C24.1328 23.4258 24.2295 23.3291 24.2295 23.21V21.0516C24.2295 20.9325 24.1328 20.8358 24.0136 20.8358H13.2218Z" fill="black"/>
<path d="M7.39472 16.9508C5.96675 16.9508 4.80469 15.7888 4.80469 14.3608C4.80469 12.9328 5.96675 11.7708 7.39472 11.7708C8.8227 11.7708 9.98476 12.9328 9.98476 14.3608C9.98476 15.7888 8.8227 16.9508 7.39472 16.9508ZM7.39472 13.0658C6.68074 13.0658 6.09971 13.6468 6.09971 14.3608C6.09971 15.0748 6.68074 15.6558 7.39472 15.6558C8.10871 15.6558 8.68974 15.0748 8.68974 14.3608C8.68974 13.6468 8.10871 13.0658 7.39472 13.0658Z" fill="black"/>
<path d="M24.0136 9.1808H13.2218C12.3887 9.1808 11.7109 8.50308 11.7109 7.66995V5.51159C11.7109 4.67846 12.3887 4.00073 13.2218 4.00073H24.0136C24.8468 4.00073 25.5245 4.67846 25.5245 5.51159V7.66995C25.5245 8.50308 24.8468 9.1808 24.0136 9.1808ZM13.2218 5.29575C13.1027 5.29575 13.006 5.39245 13.006 5.51159V7.66995C13.006 7.78909 13.1027 7.88579 13.2218 7.88579H24.0136C24.1328 7.88579 24.2295 7.78909 24.2295 7.66995V5.51159C24.2295 5.39245 24.1328 5.29575 24.0136 5.29575H13.2218Z" fill="black"/>
<path d="M7.39472 9.1808C5.96675 9.1808 4.80469 8.01874 4.80469 6.59077C4.80469 5.1628 5.96675 4.00073 7.39472 4.00073C8.8227 4.00073 9.98476 5.1628 9.98476 6.59077C9.98476 8.01874 8.8227 9.1808 7.39472 9.1808ZM7.39472 5.29575C6.68074 5.29575 6.09971 5.87678 6.09971 6.59077C6.09971 7.30475 6.68074 7.88579 7.39472 7.88579C8.10871 7.88579 8.68974 7.30475 8.68974 6.59077C8.68974 5.87678 8.10871 5.29575 7.39472 5.29575Z" fill="black"/>
<path d="M7.39472 24.7208C5.96675 24.7208 4.80469 23.5588 4.80469 22.1308C4.80469 20.7028 5.96675 19.5408 7.39472 19.5408C8.8227 19.5408 9.98476 20.7028 9.98476 22.1308C9.98476 23.5588 8.8227 24.7208 7.39472 24.7208ZM7.39472 20.8358C6.68074 20.8358 6.09971 21.4168 6.09971 22.1308C6.09971 22.8448 6.68074 23.4258 7.39472 23.4258C8.10871 23.4258 8.68974 22.8448 8.68974 22.1308C8.68974 21.4168 8.10871 20.8358 7.39472 20.8358Z" fill="black"/>
</svg>
