<svg xmlns="http://www.w3.org/2000/svg" width="31" height="31" viewBox="0 0 26.937 26.937"><path d="M25.634,8.689H25.2V3.476H4.345V0H2.172A2.175,2.175,0,0,0,0,2.172v16.51a2.175,2.175,0,0,0,2.172,2.172H13.9v4.779a1.305,1.305,0,0,0,1.3,1.3H25.634a1.305,1.305,0,0,0,1.3-1.3V9.993A1.305,1.305,0,0,0,25.634,8.689ZM.869,2.172a1.305,1.305,0,0,1,1.3-1.3h1.3V16.51h-1.3a2.164,2.164,0,0,0-1.3.435Zm1.3,17.813a1.3,1.3,0,1,1,0-2.607H4.345V4.345H24.33V8.689H15.341A5.218,5.218,0,1,0,13.9,14.308v5.678ZM13.9,9.993H10.862V6.107A4.36,4.36,0,0,1,14.5,8.9a1.3,1.3,0,0,0-.594,1.09ZM9.993,14.75a4.344,4.344,0,0,1,0-8.645Zm.869-3.888H13.9v2.163a4.348,4.348,0,0,1-3.041,1.721ZM26.068,25.634a.435.435,0,0,1-.434.434H15.206a.435.435,0,0,1-.434-.434V9.993a.435.435,0,0,1,.434-.434H25.634a.435.435,0,0,1,.434.434Zm0,0"/><path d="M288,196.345h9.558V192H288Zm.869-3.476h7.82v2.607h-7.82Zm0,0" transform="translate(-272.359 -181.573)"/><path d="M416,418.607h2.607V416H416Zm.869-1.738h.869v.869h-.869Zm0,0" transform="translate(-393.408 -393.408)"/><path d="M352,418.607h2.607V416H352Zm.869-1.738h.869v.869h-.869Zm0,0" transform="translate(-332.883 -393.408)"/><path d="M288,418.607h2.607V416H288Zm.869-1.738h.869v.869h-.869Zm0,0" transform="translate(-272.359 -393.408)"/><path d="M416,354.607h2.607V352H416Zm.869-1.738h.869v.869h-.869Zm0,0" transform="translate(-393.408 -332.883)"/><path d="M352,354.607h2.607V352H352Zm.869-1.738h.869v.869h-.869Zm0,0" transform="translate(-332.883 -332.883)"/><path d="M288,354.607h2.607V352H288Zm.869-1.738h.869v.869h-.869Zm0,0" transform="translate(-272.359 -332.883)"/><path d="M416,290.607h2.607V288H416Zm.869-1.738h.869v.869h-.869Zm0,0" transform="translate(-393.408 -272.359)"/><path d="M352,290.607h2.607V288H352Zm.869-1.738h.869v.869h-.869Zm0,0" transform="translate(-332.883 -272.359)"/><path d="M288,290.607h2.607V288H288Zm.869-1.738h.869v.869h-.869Zm0,0" transform="translate(-272.359 -272.359)"/><path d="M320,96h6.083v.869H320Zm0,0" transform="translate(-302.621 -90.786)"/><path d="M304,128h6.952v.869H304Zm0,0" transform="translate(-287.49 -121.049)"/></svg>