<svg xmlns="http://www.w3.org/2000/svg" width="26.479" height="25.917" viewBox="0 0 26.479 25.917">
  <g id="business-report" transform="translate(0 -17.5)">
    <path id="Path_1059" data-name="Path 1059" d="M184.39,375.346h-6.62a.8.8,0,0,1-.765-.949l.827-5.216a.788.788,0,0,1,.765-.681h4.965a.788.788,0,0,1,.765.681l.827,5.216A.8.8,0,0,1,184.39,375.346Z" transform="translate(-167.841 -331.929)" fill="#8bb9ff"/>
    <path id="Path_1060" data-name="Path 1060" d="M259.31,375.346H256V368.5h2.482a.788.788,0,0,1,.765.681l.827,5.216A.8.8,0,0,1,259.31,375.346Z" transform="translate(-242.76 -331.929)" fill="#6e75e2"/>
    <path id="Path_1061" data-name="Path 1061" d="M156.481,465.315a.8.8,0,0,1-.776.815h-9.93a.816.816,0,0,1,0-1.63h9.93A.8.8,0,0,1,156.481,465.315Z" transform="translate(-137.501 -422.713)" fill="#6e75e2"/>
    <path id="Path_1062" data-name="Path 1062" d="M261.741,465.315a.8.8,0,0,1-.776.815H256V464.5h4.965A.8.8,0,0,1,261.741,465.315Z" transform="translate(-242.76 -422.713)" fill="#3340d8"/>
    <path id="Path_1063" data-name="Path 1063" d="M39.928,34.13V49.941a1.592,1.592,0,0,1-1.552,1.63H16.552A1.592,1.592,0,0,1,15,49.941V34.13a1.592,1.592,0,0,1,1.552-1.63H38.376A1.592,1.592,0,0,1,39.928,34.13Z" transform="translate(-14.224 -14.185)" fill="#f6f9f9"/>
    <path id="Path_1064" data-name="Path 1064" d="M268.464,34.13V49.941a1.592,1.592,0,0,1-1.552,1.63H256V32.5h10.912A1.592,1.592,0,0,1,268.464,34.13Z" transform="translate(-242.76 -14.185)" fill="#e2dff4"/>
    <path id="Path_1065" data-name="Path 1065" d="M24.152,17.5H2.327A2.391,2.391,0,0,0,0,19.945V35.756A2.391,2.391,0,0,0,2.327,38.2H24.152a2.391,2.391,0,0,0,2.327-2.445V19.945A2.391,2.391,0,0,0,24.152,17.5Zm.776,18.256a.8.8,0,0,1-.776.815H2.327a.8.8,0,0,1-.776-.815V19.945a.8.8,0,0,1,.776-.815H24.152a.8.8,0,0,1,.776.815Z" fill="#6e75e2"/>
    <path id="Path_1066" data-name="Path 1066" d="M269.24,19.945V35.756a2.391,2.391,0,0,1-2.327,2.445H256v-1.63h10.912a.8.8,0,0,0,.776-.815V19.945a.8.8,0,0,0-.776-.815H256V17.5h10.912A2.391,2.391,0,0,1,269.24,19.945Z" transform="translate(-242.76)" fill="#3340d8"/>
    <path id="Path_1069" data-name="Path 1069" d="M129.776,168.4a.8.8,0,0,1-.776-.815v-5.27a.777.777,0,1,1,1.552,0v5.27A.8.8,0,0,1,129.776,168.4Z" transform="translate(-122.329 -136.176)" fill="#ffb454"/>
    <path id="Path_1070" data-name="Path 1070" d="M193.776,213.792a.8.8,0,0,1-.776-.815v-2.662a.777.777,0,1,1,1.551,0v2.662A.8.8,0,0,1,193.776,213.792Z" transform="translate(-183.019 -181.568)" fill="#e27a4e"/>
    <ellipse id="Ellipse_30" data-name="Ellipse 30" cx="4.5" cy="4.65" rx="4.5" ry="4.65" transform="translate(14 23.2)" fill="#ffb454"/>
    <path id="Path_1071" data-name="Path 1071" d="M306.157,194.315a4.62,4.62,0,0,1-4.5,4.724,4.362,4.362,0,0,1-3.18-1.384l3.18-3.341V193.5h3.721A.8.8,0,0,1,306.157,194.315Z" transform="translate(-283.044 -166.44)" fill="#00cb75"/>
    <path id="Path_1072" data-name="Path 1072" d="M364.5,126.224H360V121.5A4.62,4.62,0,0,1,364.5,126.224Z" transform="translate(-341.384 -98.349)" fill="#6e75e2"/>
    <path id="Path_1073" data-name="Path 1073" d="M65.776,123.008a.8.8,0,0,1-.776-.815v-7.878a.777.777,0,1,1,1.552,0v7.878A.8.8,0,0,1,65.776,123.008Z" transform="translate(-61.638 -90.784)" fill="#ace233"/>
    <path id="Path_1074" data-name="Path 1074" d="M65,273.5v.815a.8.8,0,0,0,.776.815H72.4a.8.8,0,0,0,.776-.815V273.5Z" transform="translate(-61.638 -242.09)" fill="#e2dff4"/>
  </g>
</svg>
