<svg xmlns="http://www.w3.org/2000/svg" width="44" height="44" viewBox="0 0 38 38">
  <g id="Group_237" data-name="Group 237" transform="translate(-935 -394)">
    <rect id="Rectangle_127" data-name="Rectangle 127" width="38" height="38" rx="6" transform="translate(935 394)" fill="#c9ffe6"/>
    <path id="Icon_awesome-divide" data-name="Icon awesome-divide" d="M6.3,11.256a1.8,1.8,0,1,0,1.8,1.8A1.8,1.8,0,0,0,6.3,11.256Zm0-5.4a1.8,1.8,0,1,0-1.8-1.8A1.8,1.8,0,0,0,6.3,5.853Zm5.4,1.351H.9a.9.9,0,0,0-.9.9V9a.9.9,0,0,0,.9.9H11.708a.9.9,0,0,0,.9-.9V8.1A.9.9,0,0,0,11.708,7.2Z" transform="translate(947.261 404.141)" fill="#00e178"/>
  </g>
</svg>
