<svg xmlns="http://www.w3.org/2000/svg" width="34.967" height="29.834" viewBox="0 0 34.967 29.834">
  <g id="Group_105" data-name="Group 105" transform="translate(-1005 -224.18)">
    <g id="Group_90" data-name="Group 90" transform="translate(1019.741 224.348)">
      <g id="Group_89" data-name="Group 89" transform="translate(0)">
        <path id="Path_59" data-name="Path 59" d="M144.053,21.333a5.4,5.4,0,0,0-5.394,5.394,5.323,5.323,0,0,0,.7,2.609.674.674,0,1,0,1.178-.655,3.994,3.994,0,0,1-.527-1.954,4.045,4.045,0,0,1,8.09,0,3.986,3.986,0,0,1-.16,1.059.676.676,0,0,0,.473.828.666.666,0,0,0,.828-.473,5.287,5.287,0,0,0,.208-1.413A5.4,5.4,0,0,0,144.053,21.333Z" transform="translate(-138.659 -21.333)"/>
      </g>
    </g>
    <g id="Group_96" data-name="Group 96" transform="translate(1014.906 227.045)">
      <g id="Group_95" data-name="Group 95" transform="translate(0)">
        <path id="Path_62" data-name="Path 62" d="M84.527,73.439a2.688,2.688,0,0,0-1.5.456,2.7,2.7,0,0,0-4.045-1.348,2.7,2.7,0,0,0-2.546-1.8,2.675,2.675,0,0,0-1.348.363V66.7a2.7,2.7,0,0,0-5.394,0V78.158L67.351,76.4a3.536,3.536,0,0,0-4.6.326,2.024,2.024,0,0,0,0,2.86l9.6,9.6a6.031,6.031,0,0,0,4.292,1.777h3.159a7.425,7.425,0,0,0,7.416-7.416V76.136A2.7,2.7,0,0,0,84.527,73.439Zm1.348,10.113a6.075,6.075,0,0,1-6.068,6.068H76.648a4.689,4.689,0,0,1-3.339-1.382l-9.6-9.6a.675.675,0,0,1,0-.953,2.182,2.182,0,0,1,2.836-.2l3.421,2.566a.674.674,0,0,0,1.079-.539V66.7a1.348,1.348,0,0,1,2.7,0V76.81a.674.674,0,0,0,1.348,0V73.439a1.348,1.348,0,0,1,2.7,0V76.81a.674.674,0,0,0,1.348,0V74.787a1.348,1.348,0,0,1,2.7,0V76.81a.674.674,0,0,0,1.348,0v-.674a1.348,1.348,0,0,1,2.7,0Z" transform="translate(-62.163 -64)"/>
      </g>
    </g>
    <g id="arrows_1_" data-name="arrows (1)" transform="translate(981.001 200.18)">
      <path id="Path_47" data-name="Path 47" d="M232.715,29.719A.715.715,0,0,1,232,29V24.715a.715.715,0,1,1,1.43,0V29A.715.715,0,0,1,232.715,29.719Z" transform="translate(-201.805 -0.001)" opacity="0.9"/>
      <path id="Path_48" data-name="Path 48" d="M172.527,27.335a.713.713,0,0,1-.506-.209l-1.4-1.4-1.4,1.4a.715.715,0,0,1-1.011-1.011l1.906-1.906a.715.715,0,0,1,1.011,0l1.906,1.906a.715.715,0,0,1-.506,1.22Z" transform="translate(-139.711)"/>
      <path id="Path_49" data-name="Path 49" d="M232.715,301.719A.715.715,0,0,1,232,301v-4.289a.715.715,0,1,1,1.43,0V301A.715.715,0,0,1,232.715,301.719Z" transform="translate(-201.805 -263.899)" opacity="0.9"/>
      <path id="Path_50" data-name="Path 50" d="M170.621,379.336a.713.713,0,0,1-.506-.209l-1.906-1.906a.715.715,0,1,1,1.011-1.011l1.4,1.4,1.4-1.4a.715.715,0,1,1,1.011,1.011l-1.906,1.906A.713.713,0,0,1,170.621,379.336Z" transform="translate(-139.711 -341.515)"/>
      <path id="Path_51" data-name="Path 51" d="M301,233.43h-4.289a.715.715,0,1,1,0-1.43H301a.715.715,0,1,1,0,1.43Z" transform="translate(-263.899 -201.805)" opacity="0.87"/>
      <path id="Path_52" data-name="Path 52" d="M376.713,173.242a.715.715,0,0,1-.506-1.22l1.4-1.4-1.4-1.4a.715.715,0,1,1,1.011-1.011l1.906,1.906a.715.715,0,0,1,0,1.011l-1.906,1.906A.713.713,0,0,1,376.713,173.242Z" transform="translate(-341.514 -139.711)"/>
      <path id="Path_53" data-name="Path 53" d="M376.713,173.242a.715.715,0,0,1-.506-1.22l1.4-1.4-1.4-1.4a.715.715,0,1,1,1.011-1.011l1.906,1.906a.715.715,0,0,1,0,1.011l-1.906,1.906A.713.713,0,0,1,376.713,173.242Z" transform="translate(-341.514 -139.711)"/>
      <path id="Path_54" data-name="Path 54" d="M29,233.43H24.715a.715.715,0,1,1,0-1.43H29a.715.715,0,1,1,0,1.43Z" transform="translate(-0.001 -201.805)" opacity="0.9"/>
      <path id="Path_55" data-name="Path 55" d="M26.62,173.242a.713.713,0,0,1-.506-.209l-1.906-1.906a.715.715,0,0,1,0-1.011l1.906-1.906a.715.715,0,0,1,1.011,1.011l-1.4,1.4,1.4,1.4a.715.715,0,0,1-.506,1.22Z" transform="translate(0 -139.711)"/>
      <path id="Path_56" data-name="Path 56" d="M26.62,173.242a.713.713,0,0,1-.506-.209l-1.906-1.906a.715.715,0,0,1,0-1.011l1.906-1.906a.715.715,0,0,1,1.011,1.011l-1.4,1.4,1.4,1.4a.715.715,0,0,1-.506,1.22Z" transform="translate(0 -139.711)"/>
    </g>
  </g>
</svg>
