<svg xmlns="http://www.w3.org/2000/svg" width="13.995" height="8.92" viewBox="0 0 13.995 8.92"><defs><style>.a{fill:#ebebeb;}</style></defs><g transform="translate(0 -92.835)"><g transform="translate(0 92.835)"><g transform="translate(0)"><path class="a" d="M13.906,97.023c-.125-.171-3.1-4.188-6.908-4.188S.214,96.852.089,97.022a.462.462,0,0,0,0,.545c.125.171,3.1,4.188,6.908,4.188s6.783-4.017,6.908-4.187A.461.461,0,0,0,13.906,97.023ZM7,100.832c-2.8,0-5.23-2.666-5.948-3.537.718-.872,3.14-3.537,5.948-3.537s5.229,2.665,5.948,3.537C12.228,98.167,9.806,100.832,7,100.832Z" transform="translate(0 -92.835)"/></g></g><g transform="translate(4.229 94.527)"><path class="a" d="M157.49,154.725a2.768,2.768,0,1,0,2.768,2.768A2.771,2.771,0,0,0,157.49,154.725Zm0,4.614a1.845,1.845,0,1,1,1.845-1.845A1.847,1.847,0,0,1,157.49,159.339Z" transform="translate(-154.722 -154.725)"/></g></g></svg>