<svg width="93" height="68" viewBox="0 0 93 68" fill="none" xmlns="http://www.w3.org/2000/svg">
<path opacity="0.47" d="M91.5689 60.6827C92.8698 58.3864 93.1796 55.5619 92.9111 52.8752C92.6427 50.2114 91.8993 47.4099 90.8875 44.9758C89.917 42.6794 88.5128 40.6357 88.0998 38.0638C87.5629 34.6882 88.9671 31.4274 89.2768 28.1206C89.917 21.5072 85.911 15.6974 80.9344 12.5514C76.8871 10.0025 72.1584 9.03803 67.4916 9.10692C63.2998 9.17581 59.1286 10.0025 55.0813 11.1047C51.1785 12.184 47.3584 13.5848 43.2491 13.1485C39.842 12.7811 36.7652 11.1966 33.6058 10.0255C26.0275 7.22392 16.8591 6.83354 9.92088 11.1047C5.48124 13.8374 2.36317 18.2923 0.979658 23.0687C-0.0321668 26.5591 -0.32126 30.6007 0.401472 34.137C1.22745 38.1097 2.77616 41.6231 2.36317 45.8254C2.03278 49.2699 0.897059 52.6226 1.00031 56.113C1.0829 59.1212 4.01513 63.4154 7.0506 64.5406C7.2158 64.6095 6.92671 64.8621 7.0506 64.9999H87.1293C88.8845 63.9435 90.5158 62.5428 91.5689 60.6827Z" fill="#E1E2FE"/>
<path opacity="0.81" d="M91.9613 50.4871C91.0114 43.8507 84.6927 42.9322 86.0555 38.661C87.7901 33.2416 87.7075 27.1563 85.6012 21.8747C84.5894 19.3258 83.1027 16.9606 81.079 15.3301C77.9609 12.8042 73.8517 12.2531 70.0109 12.5745C64.2703 13.0568 58.22 15.6976 52.4588 14.9857C49.2788 14.5953 48.3083 10.8982 46.6563 8.48706C44.7979 5.73145 42.258 3.59585 39.4703 2.14916C34.308 -0.491632 28.1338 -0.744231 22.8681 1.64396C17.2515 4.1929 12.3369 10.4389 12.6673 17.5117C12.8119 20.7725 14.0508 24.0333 13.4726 27.2482C12.7706 31.2897 9.92093 34.9409 7.85598 38.2247C5.58454 41.8529 4.20102 46.17 3.93258 50.579C3.62284 55.585 4.73791 60.6829 7.09195 64.954H88.5128C89.5659 62.9562 93.4274 60.6829 91.9613 50.4871Z" fill="#E1E2FE"/>
<g opacity="0.81">
<path opacity="0.81" d="M48.6222 50.4144H41.3379C41.2543 50.4144 41.174 50.3813 41.1149 50.3224C41.0557 50.2635 41.0225 50.1835 41.0225 50.1002C41.0225 50.0168 41.0557 49.9369 41.1149 49.8779C41.174 49.819 41.2543 49.7859 41.3379 49.7859H48.6222C48.7059 49.7859 48.7862 49.819 48.8453 49.8779C48.9045 49.9369 48.9377 50.0168 48.9377 50.1002C48.9377 50.1835 48.9045 50.2635 48.8453 50.3224C48.7862 50.3813 48.7059 50.4144 48.6222 50.4144Z" fill="white"/>
<path opacity="0.81" d="M48.6222 57.9574H41.3379C41.2543 57.9574 41.174 57.9243 41.1149 57.8654C41.0557 57.8064 41.0225 57.7265 41.0225 57.6431C41.0225 57.5598 41.0557 57.4799 41.1149 57.4209C41.174 57.362 41.2543 57.3289 41.3379 57.3289H48.6222C48.7059 57.3289 48.7862 57.362 48.8453 57.4209C48.9045 57.4799 48.9377 57.5598 48.9377 57.6431C48.9377 57.7265 48.9045 57.8064 48.8453 57.8654C48.7862 57.9243 48.7059 57.9574 48.6222 57.9574Z" fill="white"/>
<path opacity="0.81" d="M54.1871 65.5756H9.07418C8.96164 65.5756 8.85021 65.5534 8.74628 65.5104C8.64235 65.4674 8.54796 65.4044 8.46853 65.325C8.3891 65.2456 8.32619 65.1513 8.28341 65.0476C8.24064 64.9439 8.21883 64.8328 8.21924 64.7207V41.3286C8.22007 41.1043 8.30964 40.8894 8.46852 40.7305C8.6274 40.5717 8.84277 40.4816 9.06787 40.48H54.1808C54.4072 40.4808 54.6242 40.5708 54.7844 40.7304C54.9445 40.8899 55.0349 41.1061 55.0357 41.3317V64.7239C55.0349 64.9484 54.9454 65.1636 54.7866 65.323C54.6278 65.4824 54.4125 65.5731 54.1871 65.5756ZM9.06787 41.1085C9.00847 41.1085 8.9515 41.1321 8.90949 41.1739C8.86748 41.2158 8.84389 41.2725 8.84389 41.3317V64.7239C8.84347 64.7534 8.84895 64.7828 8.86002 64.8102C8.87109 64.8377 8.88752 64.8626 8.90836 64.8837C8.9292 64.9047 8.95404 64.9215 8.98142 64.9329C9.0088 64.9443 9.03819 64.9501 9.06787 64.9501H54.1808C54.2104 64.9501 54.2398 64.9443 54.2672 64.9329C54.2946 64.9215 54.3194 64.9047 54.3403 64.8837C54.3611 64.8626 54.3775 64.8377 54.3886 64.8102C54.3997 64.7828 54.4052 64.7534 54.4048 64.7239V41.3286C54.4048 41.2694 54.3812 41.2126 54.3391 41.1708C54.2971 41.1289 54.2402 41.1054 54.1808 41.1054L9.06787 41.1085Z" fill="white"/>
<path opacity="0.66" d="M54.1871 65.5756H9.07418C8.96164 65.5756 8.85021 65.5534 8.74628 65.5104C8.64235 65.4674 8.54796 65.4044 8.46853 65.325C8.3891 65.2456 8.32619 65.1513 8.28341 65.0476C8.24064 64.9439 8.21883 64.8328 8.21924 64.7207V41.3286C8.22007 41.1043 8.30964 40.8894 8.46852 40.7305C8.6274 40.5717 8.84277 40.4816 9.06787 40.48H54.1808C54.4072 40.4808 54.6242 40.5708 54.7844 40.7304C54.9445 40.8899 55.0349 41.1061 55.0357 41.3317V64.7239C55.0349 64.9484 54.9454 65.1636 54.7866 65.323C54.6278 65.4824 54.4125 65.5731 54.1871 65.5756ZM9.06787 41.1085C9.00847 41.1085 8.9515 41.1321 8.90949 41.1739C8.86748 41.2158 8.84389 41.2725 8.84389 41.3317V64.7239C8.84347 64.7534 8.84895 64.7828 8.86002 64.8102C8.87109 64.8377 8.88752 64.8626 8.90836 64.8837C8.9292 64.9047 8.95404 64.9215 8.98142 64.9329C9.0088 64.9443 9.03819 64.9501 9.06787 64.9501H54.1808C54.2104 64.9501 54.2398 64.9443 54.2672 64.9329C54.2946 64.9215 54.3194 64.9047 54.3403 64.8837C54.3611 64.8626 54.3775 64.8377 54.3886 64.8102C54.3997 64.7828 54.4052 64.7534 54.4048 64.7239V41.3286C54.4048 41.2694 54.3812 41.2126 54.3391 41.1708C54.2971 41.1289 54.2402 41.1054 54.1808 41.1054L9.06787 41.1085Z" fill="white"/>
<path opacity="0.81" d="M25.179 44.6536H13.7525C13.5382 44.6536 13.3645 44.8266 13.3645 45.0401V60.4369C13.3645 60.6504 13.5382 60.8235 13.7525 60.8235H25.179C25.3933 60.8235 25.5671 60.6504 25.5671 60.4369V45.0401C25.5671 44.8266 25.3933 44.6536 25.179 44.6536Z" fill="white"/>
<path opacity="0.81" d="M48.622 46.7655H28.5894C28.5057 46.7655 28.4255 46.7324 28.3663 46.6735C28.3072 46.6145 28.2739 46.5346 28.2739 46.4513C28.2739 46.3679 28.3072 46.288 28.3663 46.229C28.4255 46.1701 28.5057 46.137 28.5894 46.137H48.622C48.7057 46.137 48.786 46.1701 48.8451 46.229C48.9043 46.288 48.9375 46.3679 48.9375 46.4513C48.9375 46.5346 48.9043 46.6145 48.8451 46.6735C48.786 46.7324 48.7057 46.7655 48.622 46.7655Z" fill="white"/>
<path opacity="0.81" d="M48.622 54.0761H28.5894C28.5057 54.0761 28.4255 54.043 28.3663 53.984C28.3072 53.9251 28.2739 53.8451 28.2739 53.7618C28.2739 53.6784 28.3072 53.5985 28.3663 53.5396C28.4255 53.4806 28.5057 53.4475 28.5894 53.4475H48.622C48.7057 53.4475 48.786 53.4806 48.8451 53.5396C48.9043 53.5985 48.9375 53.6784 48.9375 53.7618C48.9375 53.8451 48.9043 53.9251 48.8451 53.984C48.786 54.043 48.7057 54.0761 48.622 54.0761Z" fill="white"/>
<path opacity="0.81" d="M39.3881 50.4144H28.5894C28.5057 50.4144 28.4255 50.3813 28.3663 50.3224C28.3072 50.2635 28.2739 50.1835 28.2739 50.1002C28.2739 50.0168 28.3072 49.9369 28.3663 49.8779C28.4255 49.819 28.5057 49.7859 28.5894 49.7859H39.3881C39.4718 49.7859 39.552 49.819 39.6112 49.8779C39.6703 49.9369 39.7036 50.0168 39.7036 50.1002C39.7036 50.1835 39.6703 50.2635 39.6112 50.3224C39.552 50.3813 39.4718 50.4144 39.3881 50.4144Z" fill="white"/>
<path opacity="0.81" d="M39.3881 57.9574H28.5894C28.5057 57.9574 28.4255 57.9243 28.3663 57.8654C28.3072 57.8064 28.2739 57.7265 28.2739 57.6431C28.2739 57.5598 28.3072 57.4799 28.3663 57.4209C28.4255 57.362 28.5057 57.3289 28.5894 57.3289H39.3881C39.4718 57.3289 39.552 57.362 39.6112 57.4209C39.6703 57.4799 39.7036 57.5598 39.7036 57.6431C39.7036 57.7265 39.6703 57.8064 39.6112 57.8654C39.552 57.9243 39.4718 57.9574 39.3881 57.9574Z" fill="white"/>
<path opacity="0.81" d="M35.8706 61.4523H28.5894C28.5057 61.4523 28.4255 61.4192 28.3663 61.3603C28.3072 61.3013 28.2739 61.2214 28.2739 61.138C28.2739 61.0547 28.3072 60.9747 28.3663 60.9158C28.4255 60.8568 28.5057 60.8237 28.5894 60.8237H35.8706C35.9542 60.8237 36.0345 60.8568 36.0936 60.9158C36.1528 60.9747 36.186 61.0547 36.186 61.138C36.186 61.2214 36.1528 61.3013 36.0936 61.3603C36.0345 61.4192 35.9542 61.4523 35.8706 61.4523Z" fill="white"/>
</g>
<g opacity="0.81">
<path opacity="0.81" d="M57.499 23.8544H50.2146C50.131 23.8544 50.0507 23.8213 49.9916 23.7623C49.9324 23.7034 49.8992 23.6235 49.8992 23.5401C49.8992 23.4568 49.9324 23.3768 49.9916 23.3179C50.0507 23.2589 50.131 23.2258 50.2146 23.2258H57.499C57.5826 23.2258 57.6629 23.2589 57.722 23.3179C57.7812 23.3768 57.8144 23.4568 57.8144 23.5401C57.8144 23.6235 57.7812 23.7034 57.722 23.7623C57.6629 23.8213 57.5826 23.8544 57.499 23.8544Z" fill="white"/>
<path opacity="0.81" d="M57.499 31.3974H50.2146C50.131 31.3974 50.0507 31.3643 49.9916 31.3053C49.9324 31.2464 49.8992 31.1664 49.8992 31.0831C49.8992 30.9997 49.9324 30.9198 49.9916 30.8609C50.0507 30.8019 50.131 30.7688 50.2146 30.7688H57.499C57.5826 30.7688 57.6629 30.8019 57.722 30.8609C57.7812 30.9198 57.8144 30.9997 57.8144 31.0831C57.8144 31.1664 57.7812 31.2464 57.722 31.3053C57.6629 31.3643 57.5826 31.3974 57.499 31.3974Z" fill="white"/>
<path opacity="0.81" d="M63.0638 39.0155H17.9509C17.8384 39.0155 17.7269 38.9934 17.623 38.9504C17.5191 38.9074 17.4247 38.8444 17.3452 38.7649C17.2658 38.6855 17.2029 38.5913 17.1601 38.4876C17.1173 38.3839 17.0955 38.2728 17.096 38.1607V14.7685C17.0968 14.5442 17.1864 14.3293 17.3452 14.1705C17.5041 14.0116 17.7195 13.9216 17.9446 13.9199H63.0575C63.284 13.9207 63.5009 14.0108 63.6611 14.1703C63.8212 14.3298 63.9116 14.546 63.9124 14.7716V38.1638C63.9116 38.3884 63.8221 38.6036 63.6633 38.7629C63.5045 38.9223 63.2892 39.013 63.0638 39.0155ZM17.9446 14.5485C17.8852 14.5485 17.8282 14.572 17.7862 14.6138C17.7442 14.6557 17.7206 14.7124 17.7206 14.7716V38.1638C17.7202 38.1934 17.7257 38.2227 17.7367 38.2502C17.7478 38.2776 17.7642 38.3026 17.7851 38.3236C17.8059 38.3447 17.8307 38.3614 17.8581 38.3728C17.8855 38.3842 17.9149 38.3901 17.9446 38.3901H63.0575C63.0872 38.3901 63.1165 38.3842 63.1439 38.3728C63.1713 38.3614 63.1961 38.3447 63.217 38.3236C63.2378 38.3026 63.2543 38.2776 63.2653 38.2502C63.2764 38.2227 63.2819 38.1934 63.2815 38.1638V14.7685C63.2815 14.7093 63.2579 14.6526 63.2159 14.6107C63.1739 14.5689 63.1169 14.5453 63.0575 14.5453L17.9446 14.5485Z" fill="white"/>
<path opacity="0.66" d="M63.0638 39.0155H17.9509C17.8384 39.0155 17.7269 38.9934 17.623 38.9504C17.5191 38.9074 17.4247 38.8444 17.3452 38.7649C17.2658 38.6855 17.2029 38.5913 17.1601 38.4876C17.1173 38.3839 17.0955 38.2728 17.096 38.1607V14.7685C17.0968 14.5442 17.1864 14.3293 17.3452 14.1705C17.5041 14.0116 17.7195 13.9216 17.9446 13.9199H63.0575C63.284 13.9207 63.5009 14.0108 63.6611 14.1703C63.8212 14.3298 63.9116 14.546 63.9124 14.7716V38.1638C63.9116 38.3884 63.8221 38.6036 63.6633 38.7629C63.5045 38.9223 63.2892 39.013 63.0638 39.0155ZM17.9446 14.5485C17.8852 14.5485 17.8282 14.572 17.7862 14.6138C17.7442 14.6557 17.7206 14.7124 17.7206 14.7716V38.1638C17.7202 38.1934 17.7257 38.2227 17.7367 38.2502C17.7478 38.2776 17.7642 38.3026 17.7851 38.3236C17.8059 38.3447 17.8307 38.3614 17.8581 38.3728C17.8855 38.3842 17.9149 38.3901 17.9446 38.3901H63.0575C63.0872 38.3901 63.1165 38.3842 63.1439 38.3728C63.1713 38.3614 63.1961 38.3447 63.217 38.3236C63.2378 38.3026 63.2543 38.2776 63.2653 38.2502C63.2764 38.2227 63.2819 38.1934 63.2815 38.1638V14.7685C63.2815 14.7093 63.2579 14.6526 63.2159 14.6107C63.1739 14.5689 63.1169 14.5453 63.0575 14.5453L17.9446 14.5485Z" fill="white"/>
<path opacity="0.81" d="M34.0557 18.0935H22.6292C22.4149 18.0935 22.2412 18.2666 22.2412 18.4801V33.8769C22.2412 34.0904 22.4149 34.2634 22.6292 34.2634H34.0557C34.27 34.2634 34.4438 34.0904 34.4438 33.8769V18.4801C34.4438 18.2666 34.27 18.0935 34.0557 18.0935Z" fill="white"/>
<path opacity="0.81" d="M57.4987 20.2055H37.4661C37.3824 20.2055 37.3022 20.1724 37.243 20.1134C37.1839 20.0545 37.1506 19.9745 37.1506 19.8912C37.1506 19.8078 37.1839 19.7279 37.243 19.669C37.3022 19.61 37.3824 19.5769 37.4661 19.5769H57.4987C57.5824 19.5769 57.6627 19.61 57.7218 19.669C57.781 19.7279 57.8142 19.8078 57.8142 19.8912C57.8142 19.9745 57.781 20.0545 57.7218 20.1134C57.6627 20.1724 57.5824 20.2055 57.4987 20.2055Z" fill="white"/>
<path opacity="0.81" d="M57.4987 27.516H37.4661C37.3824 27.516 37.3022 27.4829 37.243 27.424C37.1839 27.365 37.1506 27.2851 37.1506 27.2017C37.1506 27.1184 37.1839 27.0384 37.243 26.9795C37.3022 26.9206 37.3824 26.8875 37.4661 26.8875H57.4987C57.5824 26.8875 57.6627 26.9206 57.7218 26.9795C57.781 27.0384 57.8142 27.1184 57.8142 27.2017C57.8142 27.2851 57.781 27.365 57.7218 27.424C57.6627 27.4829 57.5824 27.516 57.4987 27.516Z" fill="white"/>
<path opacity="0.81" d="M48.2648 23.8544H37.4661C37.3824 23.8544 37.3022 23.8213 37.243 23.7623C37.1839 23.7034 37.1506 23.6235 37.1506 23.5401C37.1506 23.4568 37.1839 23.3768 37.243 23.3179C37.3022 23.2589 37.3824 23.2258 37.4661 23.2258H48.2648C48.3485 23.2258 48.4287 23.2589 48.4879 23.3179C48.547 23.3768 48.5803 23.4568 48.5803 23.5401C48.5803 23.6235 48.547 23.7034 48.4879 23.7623C48.4287 23.8213 48.3485 23.8544 48.2648 23.8544Z" fill="white"/>
<path opacity="0.81" d="M48.2648 31.3974H37.4661C37.3824 31.3974 37.3022 31.3643 37.243 31.3053C37.1839 31.2464 37.1506 31.1664 37.1506 31.0831C37.1506 30.9997 37.1839 30.9198 37.243 30.8609C37.3022 30.8019 37.3824 30.7688 37.4661 30.7688H48.2648C48.3485 30.7688 48.4287 30.8019 48.4879 30.8609C48.547 30.9198 48.5803 30.9997 48.5803 31.0831C48.5803 31.1664 48.547 31.2464 48.4879 31.3053C48.4287 31.3643 48.3485 31.3974 48.2648 31.3974Z" fill="white"/>
<path opacity="0.81" d="M44.7473 34.8922H37.4661C37.3824 34.8922 37.3022 34.8591 37.243 34.8002C37.1839 34.7412 37.1506 34.6613 37.1506 34.578C37.1506 34.4946 37.1839 34.4147 37.243 34.3557C37.3022 34.2968 37.3824 34.2637 37.4661 34.2637H44.7473C44.8309 34.2637 44.9112 34.2968 44.9703 34.3557C45.0295 34.4147 45.0627 34.4946 45.0627 34.578C45.0627 34.6613 45.0295 34.7412 44.9703 34.8002C44.9112 34.8591 44.8309 34.8922 44.7473 34.8922Z" fill="white"/>
</g>
<path opacity="0.4" d="M29.9572 31.7444L29.0112 30.7996C28.8929 30.6815 28.7037 30.6815 28.5855 30.7996L28.2899 31.0948C28.1716 31.2129 28.1716 31.4019 28.2899 31.52L28.4081 31.6381L28.278 31.768C28.1716 31.8743 28.1598 32.0278 28.2426 32.1459L27.7341 32.6537C26.6344 31.5318 25.1326 30.8114 23.4535 30.7169V30.3626C23.7137 30.3626 23.9383 30.15 23.9383 29.8784V29.5714H24.1393C24.3995 29.5714 24.6242 29.3588 24.6242 29.0872V28.4022C24.6242 28.1424 24.4113 27.918 24.1393 27.918H21.9754C21.7153 27.918 21.4906 28.1305 21.4906 28.4022V29.0872C21.4906 29.347 21.7034 29.5714 21.9754 29.5714H22.2592V29.8784C22.2592 30.1146 22.4247 30.3036 22.6494 30.3508V30.7287C21.0058 30.8468 19.5395 31.5672 18.4634 32.6892L17.9195 32.1459C18.0023 32.0278 17.9904 31.8743 17.884 31.768L17.7539 31.6381L17.8722 31.52C17.9904 31.4019 17.9904 31.2129 17.8722 31.0948L17.5766 30.7996C17.4583 30.6815 17.2691 30.6815 17.1509 30.7996L16.2049 31.7444C16.0866 31.8625 16.0866 32.0514 16.2049 32.1695L16.5005 32.4648C16.6188 32.5829 16.808 32.5829 16.9262 32.4648L17.009 32.3821L17.1391 32.512C17.2573 32.6301 17.4465 32.6301 17.5648 32.512L18.1205 33.0671C17.1982 34.189 16.6306 35.618 16.6306 37.1888C16.6306 40.7672 19.5277 43.6606 23.1106 43.6606C26.6935 43.6606 29.5906 40.7672 29.5906 37.1888C29.5906 35.5472 28.9757 34.0355 27.9588 32.9018L28.0888 33.0317L28.5973 32.5238C28.7155 32.6419 28.9047 32.6419 29.023 32.5238L29.1531 32.3939L29.2358 32.4766C29.3541 32.5947 29.5433 32.5947 29.6615 32.4766L29.9572 32.1813C30.0636 32.0514 30.0636 31.8625 29.9572 31.7444Z" fill="#87888A"/>
<path opacity="0.4" d="M64.5837 20.2197L52.7712 47.6587L75.1934 57.2871L87.0059 29.848L64.5837 20.2197Z" fill="#B2B3B5"/>
<path opacity="0.4" d="M64.3082 17.4899H58.6442C58.4904 16.7931 57.8755 16.2735 57.1306 16.2735H52.3297C51.9868 15.3641 51.1117 14.7146 50.083 14.7146C49.0542 14.7146 48.1792 15.3641 47.8363 16.2735H43.0354C42.2904 16.2735 41.6755 16.7931 41.5218 17.4899H35.8577C35.2783 17.4899 34.8171 17.9387 34.8171 18.4938V18.5292V54.0062V55.2934C34.8171 55.8721 35.2901 56.3327 35.8577 56.3327H64.2964C64.8758 56.3327 65.337 55.8603 65.337 55.2934V54.0062V18.541V18.5056C65.3488 17.9505 64.8877 17.4899 64.3082 17.4899Z" fill="#B2B3B5"/>
<path d="M63.6877 18.8451L51.8752 46.2842L74.2974 55.9126L86.1099 28.4735L63.6877 18.8451Z" fill="white"/>
<path d="M80.4844 31.8273C80.4371 31.9336 80.3071 31.9691 80.1888 31.9218L65.2659 25.509C65.1476 25.4618 65.0885 25.3319 65.124 25.2256C65.1713 25.1193 65.3014 25.0839 65.4196 25.1311L80.3544 31.5557C80.4726 31.603 80.5317 31.7329 80.4844 31.8273Z" fill="#ECECF0"/>
<path d="M74.9268 30.2564C74.8795 30.3627 74.7494 30.3981 74.6311 30.3509L64.9702 26.2056C64.852 26.1583 64.7929 26.0284 64.8283 25.9221C64.8756 25.8158 65.0057 25.7804 65.124 25.8277L74.7849 29.9729C74.9149 30.0202 74.9741 30.1501 74.9268 30.2564Z" fill="#ECECF0"/>
<path d="M72.219 29.9021C72.1717 30.0084 72.0417 30.0439 71.9234 29.9966L64.6748 26.8906C64.5566 26.8434 64.4975 26.7135 64.5329 26.6072C64.5802 26.5009 64.7103 26.4655 64.8285 26.5127L72.0771 29.6187C72.1954 29.6778 72.2663 29.8077 72.219 29.9021Z" fill="#ECECF0"/>
<path d="M79.042 35.193C78.9947 35.2993 78.8647 35.3347 78.7464 35.2875L63.8235 28.8865C63.7053 28.8392 63.6461 28.7093 63.6816 28.603C63.7289 28.4968 63.859 28.4613 63.9772 28.5086L78.9001 34.9214C79.0184 34.9686 79.0775 35.0985 79.042 35.193Z" fill="#ECECF0"/>
<path d="M73.4844 33.6104C73.4371 33.7167 73.307 33.7521 73.1888 33.7049L63.5279 29.5596C63.4096 29.5123 63.3505 29.3824 63.386 29.2761C63.4333 29.1699 63.5633 29.1344 63.6816 29.1817L73.3425 33.3269C73.4607 33.386 73.5317 33.5159 73.4844 33.6104Z" fill="#ECECF0"/>
<path d="M70.7646 33.2681C70.7173 33.3744 70.5872 33.4098 70.469 33.3626L63.2322 30.2566C63.114 30.2094 63.0548 30.0795 63.0903 29.9732C63.1376 29.8669 63.2677 29.8314 63.3859 29.8787L70.6345 32.9847C70.7528 33.0437 70.8119 33.1618 70.7646 33.2681Z" fill="#ECECF0"/>
<path d="M77.3509 39.1023C77.3036 39.2085 77.1735 39.244 77.0553 39.1967L62.1323 32.7839C62.0141 32.7367 61.955 32.6068 61.9904 32.5005C62.0377 32.3942 62.1678 32.3588 62.2861 32.406L77.209 38.8188C77.3391 38.8779 77.3982 38.996 77.3509 39.1023Z" fill="#ECECF0"/>
<path d="M71.8049 37.5195C71.7576 37.6258 71.6275 37.6613 71.5093 37.614L61.8484 33.4688C61.7302 33.4215 61.671 33.2916 61.7065 33.1853C61.7538 33.079 61.8839 33.0436 62.0021 33.0908L71.663 37.2361C71.7813 37.2952 71.8404 37.4251 71.8049 37.5195Z" fill="#ECECF0"/>
<path d="M69.0855 37.1772C69.0382 37.2835 68.9081 37.3189 68.7899 37.2716L61.5413 34.1538C61.423 34.1066 61.3639 33.9767 61.3994 33.8704C61.4467 33.7641 61.5768 33.7287 61.695 33.7759L68.9436 36.8819C69.0737 36.9528 69.1328 37.0709 69.0855 37.1772Z" fill="#ECECF0"/>
<path d="M73.697 47.6052C73.6497 47.7115 73.5197 47.7469 73.4014 47.6996L58.4785 41.2869C58.3603 41.2396 58.3012 41.1097 58.3366 41.0034C58.3839 40.8971 58.514 40.8617 58.6323 40.909L73.5551 47.3217C73.6734 47.3808 73.7325 47.5107 73.697 47.6052Z" fill="#ECECF0"/>
<path d="M68.1394 46.0345C68.0921 46.1408 67.962 46.1762 67.8437 46.129L58.1829 41.9837C58.0646 41.9364 58.0055 41.8065 58.041 41.7002C58.0883 41.5939 58.2184 41.5585 58.3366 41.6057L67.9975 45.751C68.1157 45.7983 68.1867 45.9282 68.1394 46.0345Z" fill="#ECECF0"/>
<path d="M65.4197 45.6802C65.3724 45.7865 65.2423 45.8219 65.1241 45.7747L57.8755 42.6687C57.7573 42.6215 57.6981 42.4916 57.7336 42.3853C57.7809 42.279 57.911 42.2436 58.0292 42.2908L65.2778 45.3968C65.4079 45.4558 65.467 45.5857 65.4197 45.6802Z" fill="#ECECF0"/>
<path d="M75.9202 42.4326C75.8729 42.5388 75.7428 42.5743 75.6246 42.527L60.7017 36.1143C60.5834 36.067 60.5243 35.9371 60.5598 35.8308C60.6071 35.7245 60.7372 35.6891 60.8554 35.7363L75.7783 42.1491C75.8966 42.2082 75.9675 42.3381 75.9202 42.4326Z" fill="#ECECF0"/>
<path d="M70.3625 40.8618C70.3152 40.9681 70.1851 41.0035 70.0669 40.9563L60.406 36.811C60.2878 36.7638 60.2287 36.6339 60.2641 36.5276C60.3114 36.4213 60.4415 36.3859 60.5598 36.4331L70.2206 40.5784C70.3507 40.6256 70.4098 40.7555 70.3625 40.8618Z" fill="#ECECF0"/>
<path d="M69.4402 42.9993C69.3929 43.1056 69.2628 43.141 69.1445 43.0938L59.4837 38.9485C59.3654 38.9013 59.3063 38.7713 59.3418 38.6651C59.3891 38.5588 59.5191 38.5233 59.6374 38.5706L69.2983 42.7159C69.4283 42.7749 69.4874 42.9048 69.4402 42.9993Z" fill="#ECECF0"/>
<path d="M67.6546 40.5076C67.6073 40.6139 67.4772 40.6494 67.359 40.6021L60.1104 37.4961C59.9921 37.4489 59.933 37.319 59.9685 37.2127C60.0158 37.1064 60.1458 37.0709 60.2641 37.1182L67.5127 40.2242C67.6309 40.2832 67.6901 40.4132 67.6546 40.5076Z" fill="#ECECF0"/>
<path d="M66.0229 40.6728C65.9756 40.7791 65.8455 40.8145 65.7272 40.7673L59.803 38.2163C59.6848 38.1691 59.6256 38.0392 59.6611 37.9329C59.7084 37.8266 59.8385 37.7912 59.9567 37.8384L65.8928 40.3893C66.011 40.4484 66.0702 40.5665 66.0229 40.6728Z" fill="#ECECF0"/>
<path d="M78.4268 33.6815C78.415 33.6815 78.4032 33.6815 78.3913 33.6697C78.3677 33.6579 78.344 33.6342 78.344 33.6106L78.0839 32.5241C78.0721 32.4769 78.0957 32.4414 78.1312 32.4178C78.143 32.4178 78.1548 32.406 78.1667 32.406C78.2021 32.406 78.2258 32.4178 78.2376 32.4532L78.616 33.0792L80.035 32.6068C80.0468 32.6068 80.0586 32.6068 80.0586 32.6068C80.0941 32.6068 80.1296 32.6304 80.1414 32.654C80.1651 32.7013 80.1414 32.7485 80.1059 32.7721L78.4623 33.6697C78.4623 33.6815 78.4505 33.6815 78.4268 33.6815Z" fill="#88BA34"/>
<path d="M78.1669 32.5124L78.5925 33.2091L80.0706 32.7131L78.427 33.6107L78.1669 32.5124ZM78.1669 32.3352C78.1432 32.3352 78.1196 32.3352 78.0959 32.347C78.0131 32.3824 77.9658 32.4651 77.9895 32.5478L78.2496 33.6343C78.2615 33.6933 78.2969 33.7288 78.3442 33.7524C78.3679 33.7642 78.3915 33.7642 78.4152 33.7642C78.4388 33.7642 78.4743 33.7524 78.4979 33.7406L80.1416 32.843C80.2007 32.8194 80.2362 32.7486 80.2362 32.6895C80.2362 32.595 80.1652 32.5124 80.0706 32.5124H80.0588C80.047 32.5124 80.047 32.5124 80.0352 32.5124C80.0233 32.5124 80.0115 32.5124 79.9997 32.5242L78.6517 32.9729L78.3088 32.4061C78.2969 32.3588 78.2378 32.3352 78.1669 32.3352Z" fill="#88BA34"/>
<path d="M71.7457 49.2234C71.7338 49.2234 71.722 49.2234 71.7102 49.2116C71.6865 49.1998 71.6629 49.1762 71.6629 49.1526L71.4027 48.0661C71.3909 48.0189 71.4146 47.9834 71.45 47.9598C71.4619 47.9598 71.4737 47.948 71.4855 47.948C71.521 47.948 71.5446 47.9598 71.5565 47.9952L71.9349 48.6212L73.3538 48.1488C73.3657 48.1488 73.3775 48.1488 73.3775 48.1488C73.413 48.1488 73.4484 48.1724 73.4603 48.196C73.4839 48.2432 73.4603 48.2905 73.4248 48.3141L71.7811 49.2116C71.7693 49.2234 71.7575 49.2234 71.7457 49.2234Z" fill="#88BA34"/>
<path d="M71.4857 48.0424L71.9114 48.7392L73.3895 48.2431L71.7459 49.1407L71.4857 48.0424ZM71.4857 47.8652C71.4621 47.8652 71.4384 47.8652 71.4148 47.877C71.332 47.9125 71.2847 47.9951 71.3083 48.0778L71.5685 49.1643C71.5803 49.2234 71.6158 49.2588 71.6631 49.2824C71.6867 49.2942 71.7104 49.2942 71.734 49.2942C71.7577 49.2942 71.7932 49.2824 71.8168 49.2706L73.4605 48.3731C73.5196 48.3494 73.5551 48.2786 73.5551 48.2195C73.5551 48.1251 73.4841 48.0424 73.3895 48.0424H73.3777C73.3659 48.0424 73.3659 48.0424 73.354 48.0424C73.3422 48.0424 73.3304 48.0424 73.3186 48.0542L71.9705 48.503L71.6276 47.9361C71.604 47.9007 71.5448 47.8652 71.4857 47.8652Z" fill="#88BA34"/>
<path d="M75.2103 41.1573C75.1984 41.1573 75.1866 41.1573 75.1748 41.1455C75.1511 41.1337 75.1275 41.1101 75.1275 41.0864L74.8673 39.9999C74.8555 39.9527 74.8792 39.9173 74.9146 39.8936C74.9265 39.8936 74.9383 39.8818 74.9501 39.8818C74.9856 39.8818 75.0092 39.8936 75.0211 39.9291L75.3995 40.555L76.8184 40.0826C76.8303 40.0826 76.8421 40.0826 76.8421 40.0826C76.8776 40.0826 76.913 40.1062 76.9249 40.1298C76.9485 40.1771 76.9249 40.2243 76.8894 40.2479L75.2457 41.1455C75.2457 41.1573 75.2339 41.1573 75.2103 41.1573Z" fill="#88BA34"/>
<path d="M74.9503 39.9762L75.376 40.673L76.8541 40.177L75.2104 41.0745L74.9503 39.9762ZM74.9503 39.7991C74.9267 39.7991 74.903 39.7991 74.8794 39.8109C74.7966 39.8463 74.7493 39.929 74.7729 40.0117L75.0331 41.0982C75.0449 41.1572 75.0804 41.1926 75.1277 41.2163C75.1513 41.2281 75.175 41.2281 75.1986 41.2281C75.2223 41.2281 75.2578 41.2163 75.2814 41.2045L76.925 40.3069C76.9842 40.2833 77.0196 40.2124 77.0196 40.1534C77.0196 40.0589 76.9487 39.9762 76.8541 39.9762H76.8423C76.8304 39.9762 76.8304 39.9762 76.8186 39.9762C76.8068 39.9762 76.795 39.9762 76.7831 39.988L75.4351 40.4368L75.0922 39.8699C75.0686 39.8345 75.0213 39.7991 74.9503 39.7991Z" fill="#88BA34"/>
<path d="M23.0515 30.7641H22.2356V29.7249H23.0515V30.7641Z" fill="#B0B1B3"/>
<path d="M27.6748 32.7246L27.3201 32.3585L28.0059 31.6853L28.3606 32.0396L27.6748 32.7246Z" fill="#B0B1B3"/>
<path d="M17.8011 32.8546L18.1559 32.5003L17.3281 31.6736L16.9734 32.0279L17.8011 32.8546Z" fill="#B0B1B3"/>
<path d="M23.5244 29.5832C23.5244 29.843 23.3116 30.0674 23.0396 30.0674H22.3183C22.0582 30.0674 21.8335 29.8548 21.8335 29.5832V29.2525C21.8335 28.9927 22.0463 28.7683 22.3183 28.7683H23.0396C23.2998 28.7683 23.5244 28.9809 23.5244 29.2525V29.5832Z" fill="#BDBEC0"/>
<path d="M28.609 32.205C28.4908 32.3231 28.3016 32.3231 28.1833 32.205L27.8641 31.8862C27.7458 31.7681 27.7458 31.5791 27.8641 31.461L28.006 31.3193C28.1242 31.2012 28.3134 31.2012 28.4317 31.3193L28.7509 31.6382C28.8692 31.7563 28.8692 31.9452 28.7509 32.0633L28.609 32.205Z" fill="#BDBEC0"/>
<path d="M16.7369 32.205C16.8552 32.3231 17.0444 32.3231 17.1626 32.205L17.4819 31.8862C17.6001 31.7681 17.6001 31.5791 17.4819 31.461L17.34 31.3193C17.2217 31.2012 17.0326 31.2012 16.9143 31.3193L16.595 31.6382C16.4768 31.7563 16.4768 31.9452 16.595 32.0633L16.7369 32.205Z" fill="#BDBEC0"/>
<path d="M24.2102 28.8037C24.2102 29.0635 23.9974 29.2879 23.7254 29.2879H21.5615C21.3013 29.2879 21.0767 29.0753 21.0767 28.8037V28.1187C21.0767 27.8589 21.2895 27.6345 21.5615 27.6345H23.7254C23.9856 27.6345 24.2102 27.8471 24.2102 28.1187V28.8037Z" fill="#D1D2D4"/>
<path d="M29.2477 32.1578C29.1295 32.2759 28.9403 32.2759 28.822 32.1578L27.876 31.213C27.7578 31.0949 27.7578 30.906 27.876 30.7879L28.1717 30.4926C28.2899 30.3745 28.4791 30.3745 28.5973 30.4926L29.5433 31.4374C29.6616 31.5555 29.6616 31.7445 29.5433 31.8626L29.2477 32.1578Z" fill="#D1D2D4"/>
<path d="M16.0865 32.1578C16.2047 32.2759 16.3939 32.2759 16.5121 32.1578L17.4581 31.213C17.5764 31.0949 17.5764 30.906 17.4581 30.7879L17.1625 30.4926C17.0443 30.3745 16.8551 30.3745 16.7368 30.4926L15.7908 31.4374C15.6726 31.5555 15.6726 31.7445 15.7908 31.8626L16.0865 32.1578Z" fill="#D1D2D4"/>
<path d="M25.1672 42.8644C28.4747 41.4997 30.0483 37.7155 28.6819 34.4122C27.3155 31.1088 23.5266 29.5372 20.219 30.9019C16.9115 32.2665 15.3379 36.0507 16.7043 39.3541C18.0707 42.6574 21.8596 44.2291 25.1672 42.8644Z" fill="#D1D2D4"/>
<path d="M22.6967 42.0071C25.531 42.0071 27.8286 39.7123 27.8286 36.8816C27.8286 34.0509 25.531 31.7561 22.6967 31.7561C19.8624 31.7561 17.5647 34.0509 17.5647 36.8816C17.5647 39.7123 19.8624 42.0071 22.6967 42.0071Z" fill="#BDBEC0"/>
<path d="M24.4594 41.025C26.7487 40.0516 27.8146 37.4089 26.8399 35.1224C25.8653 32.8359 23.2193 31.7715 20.93 32.7448C18.6406 33.7182 17.5748 36.3609 18.5494 38.6474C19.524 40.9339 22.17 41.9983 24.4594 41.025Z" fill="white"/>
<path d="M22.8268 33.6338C22.8268 33.6574 22.8031 33.6811 22.7795 33.6811H22.673C22.6494 33.6811 22.6257 33.6574 22.6257 33.6338V33.0433C22.6257 33.0197 22.6494 32.9961 22.673 32.9961H22.7795C22.8031 32.9961 22.8268 33.0197 22.8268 33.0433V33.6338Z" fill="#B0B1B3"/>
<path d="M22.8268 40.6134C22.8268 40.637 22.8031 40.6606 22.7795 40.6606H22.673C22.6494 40.6606 22.6257 40.637 22.6257 40.6134V40.0228C22.6257 39.9992 22.6494 39.9756 22.673 39.9756H22.7795C22.8031 39.9756 22.8268 39.9992 22.8268 40.0228V40.6134Z" fill="#B0B1B3"/>
<path d="M24.4822 34.1536C24.4703 34.1772 24.4467 34.1772 24.423 34.1654L24.3284 34.1064C24.3048 34.0946 24.3048 34.0709 24.3166 34.0473L24.624 33.5513C24.6359 33.5277 24.6595 33.5277 24.6832 33.5395L24.7778 33.5985C24.8014 33.6104 24.8014 33.634 24.7896 33.6576L24.4822 34.1536Z" fill="#B0B1B3"/>
<path d="M20.8518 40.1175C20.84 40.1411 20.8163 40.1411 20.7927 40.1293L20.6981 40.0702C20.6744 40.0584 20.6744 40.0348 20.6862 40.0112L20.9937 39.5152C21.0055 39.4916 21.0292 39.4916 21.0528 39.5034L21.1474 39.5624C21.1711 39.5742 21.171 39.5978 21.1592 39.6215L20.8518 40.1175Z" fill="#B0B1B3"/>
<path d="M25.5582 35.3227C25.5346 35.3345 25.5109 35.3227 25.4991 35.3109L25.44 35.2164C25.4281 35.1928 25.44 35.1691 25.4518 35.1573L25.9602 34.8621C25.9839 34.8503 26.0075 34.8621 26.0194 34.8739L26.0785 34.9684C26.0903 34.992 26.0785 35.0156 26.0667 35.0274L25.5582 35.3227Z" fill="#B0B1B3"/>
<path d="M19.492 38.8066C19.4684 38.8184 19.4447 38.8066 19.4329 38.7947L19.3738 38.7003C19.362 38.6766 19.3738 38.653 19.3856 38.6412L19.8941 38.346C19.9177 38.3341 19.9414 38.346 19.9532 38.3578L20.0123 38.4522C20.0242 38.4759 20.0123 38.4995 20.0005 38.5113L19.492 38.8066Z" fill="#B0B1B3"/>
<path d="M25.9365 36.9408C25.9128 36.9408 25.8892 36.9171 25.8892 36.8935V36.7872C25.8892 36.7636 25.9128 36.74 25.9365 36.74H26.5277C26.5514 36.74 26.575 36.7636 26.575 36.7872V36.8935C26.575 36.9171 26.5514 36.9408 26.5277 36.9408H25.9365Z" fill="#B0B1B3"/>
<path d="M18.9482 36.9171C18.9245 36.9171 18.9009 36.8935 18.9009 36.8698V36.7635C18.9009 36.7399 18.9245 36.7163 18.9482 36.7163H19.5394C19.5631 36.7163 19.5867 36.7399 19.5867 36.7635V36.8698C19.5867 36.8935 19.5631 36.9171 19.5394 36.9171H18.9482Z" fill="#B0B1B3"/>
<path d="M25.4517 38.5232C25.4281 38.5114 25.4281 38.4878 25.4399 38.4641L25.499 38.3697C25.5108 38.346 25.5345 38.346 25.5581 38.3579L26.0666 38.6531C26.0903 38.6649 26.0903 38.6885 26.0784 38.7121L26.0193 38.8066C26.0075 38.8302 25.9838 38.8302 25.9602 38.8184L25.4517 38.5232Z" fill="#B0B1B3"/>
<path d="M19.3975 35.0273C19.3739 35.0155 19.3739 34.9919 19.3857 34.9683L19.4448 34.8738C19.4566 34.8502 19.4803 34.8502 19.5039 34.862L20.0124 35.1573C20.0361 35.1691 20.0361 35.1927 20.0242 35.2163L19.9651 35.3108C19.9533 35.3344 19.9296 35.3344 19.906 35.3226L19.3975 35.0273Z" fill="#B0B1B3"/>
<path d="M25.4517 38.5232C25.4281 38.5114 25.4281 38.4878 25.4399 38.4641L25.499 38.3697C25.5108 38.346 25.5345 38.346 25.5581 38.3579L26.0666 38.6531C26.0903 38.6649 26.0903 38.6885 26.0784 38.7121L26.0193 38.8066C26.0075 38.8302 25.9838 38.8302 25.9602 38.8184L25.4517 38.5232Z" fill="#B0B1B3"/>
<path d="M19.3975 35.0273C19.3739 35.0155 19.3739 34.9919 19.3857 34.9683L19.4448 34.8738C19.4566 34.8502 19.4803 34.8502 19.5039 34.862L20.0124 35.1573C20.0361 35.1691 20.0361 35.1927 20.0242 35.2163L19.9651 35.3108C19.9533 35.3344 19.9296 35.3344 19.906 35.3226L19.3975 35.0273Z" fill="#B0B1B3"/>
<path d="M24.2693 39.6332C24.2575 39.6096 24.2693 39.586 24.2811 39.5742L24.3757 39.5151C24.3994 39.5033 24.423 39.5151 24.4349 39.527L24.7305 40.0348C24.7423 40.0584 24.7305 40.082 24.7187 40.0938L24.6241 40.1529C24.6004 40.1647 24.5768 40.1529 24.5649 40.1411L24.2693 39.6332Z" fill="#B0B1B3"/>
<path d="M20.7219 33.622C20.7101 33.5984 20.7219 33.5748 20.7338 33.563L20.8284 33.5039C20.852 33.4921 20.8757 33.5039 20.8875 33.5157L21.1831 34.0236C21.1949 34.0472 21.1831 34.0708 21.1713 34.0826L21.0767 34.1417C21.053 34.1535 21.0294 34.1417 21.0176 34.1298L20.7219 33.622Z" fill="#B0B1B3"/>
<path d="M23.0749 36.8106C23.0749 36.976 22.9448 37.1059 22.7793 37.1059C22.6137 37.1059 22.4836 36.976 22.4836 36.8106C22.4836 36.6453 22.6137 36.5154 22.7793 36.5154C22.9448 36.5154 23.0749 36.6571 23.0749 36.8106Z" fill="#B0B1B3"/>
<path d="M21.9636 37.3541L25.31 35.3228" stroke="#B0B1B3" stroke-miterlimit="10" stroke-linecap="round" stroke-linejoin="round"/>
<path d="M64.7457 54.691C64.7457 55.2696 64.2727 55.7302 63.7051 55.7302H35.2664C34.687 55.7302 34.2258 55.2578 34.2258 54.691V17.9267C34.2258 17.348 34.6988 16.8875 35.2664 16.8875H63.7051C64.2845 16.8875 64.7457 17.3598 64.7457 17.9267V54.691Z" fill="#0041AE"/>
<path d="M64.7457 53.4037C64.7457 53.9587 64.2727 54.4075 63.7051 54.4075H35.2664C34.687 54.4075 34.2258 53.9587 34.2258 53.4037V17.8913C34.2258 17.3362 34.6988 16.8875 35.2664 16.8875H63.7051C64.2845 16.8875 64.7457 17.3362 64.7457 17.8913V53.4037Z" fill="#2979FF"/>
<path d="M62.9838 18.9895H35.9995V52.01H62.9838V18.9895Z" fill="white"/>
<path d="M58.0763 17.2182C58.0763 16.3679 57.3787 15.6711 56.5273 15.6711H42.4321C41.5807 15.6711 40.8831 16.3679 40.8831 17.2182V19.9345H58.0645V17.2182H58.0763Z" fill="#B4B3B3"/>
<path d="M51.4163 17.9323C52.2017 16.8656 51.9725 15.3651 50.9045 14.5807C49.8365 13.7963 48.3341 14.0252 47.5487 15.0918C46.7634 16.1585 46.9925 17.6591 48.0605 18.4434C49.1285 19.2278 50.631 18.9989 51.4163 17.9323Z" fill="#B4B3B3"/>
<path d="M50.2246 15.7774C50.2246 16.1789 49.8935 16.5096 49.4914 16.5096C49.0894 16.5096 48.7583 16.1789 48.7583 15.7774C48.7583 15.3758 49.0894 15.0452 49.4914 15.0452C49.8935 15.0452 50.2246 15.364 50.2246 15.7774Z" fill="#EDEFC7"/>
<path d="M58.0762 18.0447H40.8948V19.9342H58.0762V18.0447Z" fill="#D2D2D2"/>
<path d="M58.2656 26.1465C58.2656 26.2646 58.1592 26.3709 58.0291 26.3709H40.0199C39.8899 26.3709 39.7834 26.2646 39.7834 26.1465C39.7834 26.0284 39.8899 25.9221 40.0199 25.9221H58.0291C58.1592 25.9221 58.2656 26.0166 58.2656 26.1465Z" fill="#ECECF0"/>
<path d="M51.9275 26.9612C51.9275 27.0793 51.8211 27.1856 51.691 27.1856H40.0199C39.8899 27.1856 39.7834 27.0793 39.7834 26.9612C39.7834 26.8431 39.8899 26.7368 40.0199 26.7368H51.691C51.8211 26.7368 51.9275 26.8431 51.9275 26.9612Z" fill="#ECECF0"/>
<path d="M49.0186 27.7998C49.0186 27.9179 48.9122 28.0242 48.7821 28.0242H40.0199C39.8899 28.0242 39.7834 27.9179 39.7834 27.7998C39.7834 27.6817 39.8899 27.5754 40.0199 27.5754H48.7821C48.9122 27.5754 49.0186 27.6699 49.0186 27.7998Z" fill="#ECECF0"/>
<path d="M58.3838 31.9215C58.3838 32.0514 58.2774 32.1577 58.1473 32.1577H43.9457C43.8157 32.1577 43.7092 32.0514 43.7092 31.9215V31.6971C43.7092 31.5672 43.8157 31.4609 43.9457 31.4609H58.1473C58.2774 31.4609 58.3838 31.5672 58.3838 31.6971V31.9215Z" fill="#ECECF0"/>
<path d="M58.3838 35.4288C58.3838 35.5588 58.2774 35.665 58.1473 35.665H43.9457C43.8157 35.665 43.7092 35.5588 43.7092 35.4288V35.2045C43.7092 35.0746 43.8157 34.9683 43.9457 34.9683H58.1473C58.2774 34.9683 58.3838 35.0746 58.3838 35.2045V35.4288Z" fill="#ECECF0"/>
<path d="M58.3838 39.0074C58.3838 39.1374 58.2774 39.2436 58.1473 39.2436H43.9457C43.8157 39.2436 43.7092 39.1374 43.7092 39.0074V38.7831C43.7092 38.6532 43.8157 38.5469 43.9457 38.5469H58.1473C58.2774 38.5469 58.3838 38.6532 58.3838 38.7831V39.0074Z" fill="#ECECF0"/>
<path d="M58.3838 42.3378C58.3838 42.4677 58.2774 42.574 58.1473 42.574H43.9457C43.8157 42.574 43.7092 42.4677 43.7092 42.3378V42.1134C43.7092 41.9835 43.8157 41.8772 43.9457 41.8772H58.1473C58.2774 41.8772 58.3838 41.9835 58.3838 42.1134V42.3378Z" fill="#ECECF0"/>
<path d="M42.2548 30.5514V32.7362H40.0554V30.5514H42.2548ZM42.5268 30.2798H39.7834V33.0197H42.5268V30.2798Z" fill="#ECECF0"/>
<path d="M42.2548 34.1063V36.2912H40.0554V34.1063H42.2548ZM42.5268 33.8347H39.7834V36.5746H42.5268V33.8347Z" fill="#ECECF0"/>
<path d="M42.2548 37.6611V39.846H40.0554V37.6611H42.2548ZM42.5268 37.3777H39.7834V40.1176H42.5268V37.3777Z" fill="#ECECF0"/>
<path d="M42.2548 41.2514V43.4362H40.0554V41.2514H42.2548ZM42.5268 40.9797H39.7834V43.7196H42.5268V40.9797Z" fill="#ECECF0"/>
<path d="M41.1669 32.3938C41.1432 32.3938 41.1078 32.382 41.0959 32.3584L40.1854 31.142C40.1618 31.1065 40.1618 31.0593 40.1973 31.0239C40.2091 31.0121 40.2327 31.0002 40.2564 31.0002C40.28 31.0002 40.2919 31.0002 40.3037 31.0121L41.1432 31.6026L42.6686 30.2326C42.6805 30.2208 42.7041 30.209 42.7278 30.209C42.7514 30.209 42.7751 30.2208 42.7869 30.2326C42.8224 30.268 42.8224 30.3153 42.7987 30.3507L41.2378 32.3584C41.226 32.382 41.1905 32.3938 41.1669 32.3938Z" fill="#88BA34"/>
<path d="M42.7279 30.3153L41.167 32.3112L40.2565 31.0948L41.1551 31.7325L42.7279 30.3153ZM42.7279 30.1382C42.6806 30.1382 42.6451 30.1618 42.6096 30.1854L41.1433 31.5081L40.3629 30.9531C40.3274 30.9294 40.2919 30.9176 40.2565 30.9176C40.2092 30.9176 40.1619 30.9413 40.1264 30.9767C40.0673 31.0357 40.0554 31.142 40.1146 31.2011L41.0251 32.4175C41.0605 32.4647 41.1078 32.4883 41.167 32.4883C41.2261 32.4883 41.2734 32.4647 41.3089 32.4175L42.8697 30.4334C42.8934 30.398 42.917 30.3626 42.917 30.3153C42.9052 30.2209 42.8343 30.1382 42.7279 30.1382Z" fill="#88BA34"/>
<path d="M41.1669 35.6768C41.1432 35.6768 41.1078 35.6649 41.0959 35.6413L40.1854 34.4249C40.1618 34.3895 40.1618 34.3422 40.1973 34.3068C40.2091 34.295 40.2327 34.2832 40.2564 34.2832C40.28 34.2832 40.2919 34.2832 40.3037 34.295L41.1432 34.8855L42.6686 33.5156C42.6805 33.5038 42.7041 33.4919 42.7278 33.4919C42.7514 33.4919 42.7751 33.5038 42.7869 33.5156C42.8224 33.551 42.8224 33.5982 42.7987 33.6337L41.2378 35.6413C41.226 35.6649 41.1905 35.6768 41.1669 35.6768Z" fill="#88BA34"/>
<path d="M42.7279 33.5983L41.167 35.5942L40.2565 34.3778L41.1551 35.0155L42.7279 33.5983ZM42.7279 33.4211C42.6806 33.4211 42.6451 33.433 42.6096 33.4684L41.1433 34.7911L40.3629 34.236C40.3274 34.2124 40.2919 34.2006 40.2565 34.2006C40.2092 34.2006 40.1619 34.2242 40.1264 34.2597C40.0673 34.3187 40.0554 34.425 40.1146 34.484L41.0251 35.7005C41.0605 35.7477 41.1078 35.7713 41.167 35.7713C41.2261 35.7713 41.2734 35.7477 41.3089 35.7005L42.8697 33.7164C42.8934 33.681 42.917 33.6455 42.917 33.5983C42.9052 33.492 42.8343 33.4211 42.7279 33.4211Z" fill="#88BA34"/>
<path d="M35.9995 43.9084V51.9746H39.9254C39.748 51.9746 36.236 47.9592 35.9995 43.9084Z" fill="#DDDDE0"/>
<path d="M40.4221 48.16C39.2514 47.8175 38.4001 47.3333 37.7615 46.7901C36.2716 45.5264 36.0233 43.9911 35.9878 43.3416V43.873C36.2243 47.9238 39.7481 51.9746 39.9136 51.9746C39.7363 51.762 39.6535 51.4668 39.6417 51.1597C39.6298 50.4157 40.0319 49.4 40.4221 48.16Z" fill="#ECECF0"/>
<path opacity="0.4" d="M38.3172 48.2547L35.6566 49.5184L21.455 63.7729L20.5327 64.6941L20.5445 64.7059L20.2016 65.0484C19.6695 65.5799 19.6695 66.4538 20.2016 66.9852C20.7337 67.5167 21.6087 67.5167 22.1408 66.9852L22.4838 66.6428L22.4956 66.6546L23.4298 65.7216L37.6432 51.467L38.9203 48.8334L38.9321 48.8452L39.4997 47.676L38.3172 48.2429V48.2547Z" fill="#B2B3B5"/>
<path d="M21.6916 66.1228C21.1595 66.6542 20.2845 66.6542 19.7524 66.1228C19.2202 65.5913 19.2202 64.7174 19.7524 64.186L21.6562 62.2846C22.1883 61.7531 23.0633 61.7531 23.5954 62.2846C24.1275 62.816 24.1275 63.6899 23.5954 64.2214L21.6916 66.1228Z" fill="white"/>
<path d="M21.0139 62.8952L20.0864 63.8228L22.0444 65.7754L22.9718 64.8479L21.0139 62.8952Z" fill="#D2D2D2"/>
<path d="M35.2192 48.656L37.1822 50.6047L39.0032 46.8491L35.2192 48.656Z" fill="#FDFFFE"/>
<path d="M39.0384 46.802L37.856 47.3571L38.4709 47.9712L39.0384 46.802Z" fill="#543823"/>
<path d="M35.2263 48.654L21.0151 62.9036L22.9756 64.8538L37.1867 50.6042L35.2263 48.654Z" fill="#FCB040"/>
<path d="M35.7707 49.1962L21.5596 63.4458L22.4225 64.3042L36.6336 50.0547L35.7707 49.1962Z" fill="#E6A03A"/>
</svg>
