<svg width="31" height="43" viewBox="0 0 31 43" fill="none" xmlns="http://www.w3.org/2000/svg">
<path d="M30.5199 41.5306C30.5199 42.1092 30.0469 42.5698 29.4793 42.5698H1.04058C0.461168 42.5698 0 42.0974 0 41.5306V4.76632C0 4.18764 0.472993 3.72705 1.04058 3.72705H29.4793C30.0587 3.72705 30.5199 4.19945 30.5199 4.76632V41.5306Z" fill="#0041AE"/>
<path d="M30.5199 40.2433C30.5199 40.7983 30.0469 41.2471 29.4793 41.2471H1.04058C0.461168 41.2471 0 40.7983 0 40.2433V4.73089C0 4.17583 0.472993 3.72705 1.04058 3.72705H29.4793C30.0587 3.72705 30.5199 4.17583 30.5199 4.73089V40.2433Z" fill="#2979FF"/>
<path d="M28.7582 5.8291H1.77393V38.8496H28.7582V5.8291Z" fill="white"/>
<path d="M23.8505 4.05784C23.8505 3.20753 23.1528 2.51074 22.3015 2.51074H8.20628C7.35489 2.51074 6.65723 3.20753 6.65723 4.05784V6.77411H23.8387V4.05784H23.8505Z" fill="#B4B3B3"/>
<path d="M17.1905 4.77189C17.9758 3.70523 17.7467 2.20468 16.6787 1.42031C15.6107 0.635939 14.1083 0.864778 13.3229 1.93144C12.5375 2.99809 12.7667 4.49865 13.8347 5.28302C14.9027 6.06739 16.4051 5.83855 17.1905 4.77189Z" fill="#B4B3B3"/>
<path d="M15.9985 2.61698C15.9985 3.01852 15.6674 3.34921 15.2654 3.34921C14.8633 3.34921 14.5322 3.01852 14.5322 2.61698C14.5322 2.21544 14.8633 1.88477 15.2654 1.88477C15.6674 1.88477 15.9985 2.20363 15.9985 2.61698Z" fill="#EDEFC7"/>
<path d="M23.8504 4.88428H6.66895V6.77385H23.8504V4.88428Z" fill="#D2D2D2"/>
<path d="M24.0398 12.9861C24.0398 13.1042 23.9334 13.2105 23.8033 13.2105H5.79411C5.66404 13.2105 5.55762 13.1042 5.55762 12.9861C5.55762 12.868 5.66404 12.7617 5.79411 12.7617H23.8033C23.9334 12.7617 24.0398 12.8562 24.0398 12.9861Z" fill="#ECECF0"/>
<path d="M17.7017 13.8006C17.7017 13.9187 17.5953 14.0249 17.4652 14.0249H5.79411C5.66404 14.0249 5.55762 13.9187 5.55762 13.8006C5.55762 13.6825 5.66404 13.5762 5.79411 13.5762H17.4652C17.5953 13.5762 17.7017 13.6825 17.7017 13.8006Z" fill="#ECECF0"/>
<path d="M14.7928 14.6394C14.7928 14.7575 14.6864 14.8638 14.5563 14.8638H5.79411C5.66404 14.8638 5.55762 14.7575 5.55762 14.6394C5.55762 14.5213 5.66404 14.415 5.79411 14.415H14.5563C14.6864 14.415 14.7928 14.5095 14.7928 14.6394Z" fill="#ECECF0"/>
<path d="M24.158 18.7609C24.158 18.8908 24.0516 18.9971 23.9215 18.9971H9.71989C9.58982 18.9971 9.4834 18.8908 9.4834 18.7609V18.5365C9.4834 18.4066 9.58982 18.3003 9.71989 18.3003H23.9215C24.0516 18.3003 24.158 18.4066 24.158 18.5365V18.7609Z" fill="#ECECF0"/>
<path d="M24.158 22.2687C24.158 22.3986 24.0516 22.5049 23.9215 22.5049H9.71989C9.58982 22.5049 9.4834 22.3986 9.4834 22.2687V22.0443C9.4834 21.9144 9.58982 21.8081 9.71989 21.8081H23.9215C24.0516 21.8081 24.158 21.9144 24.158 22.0443V22.2687Z" fill="#ECECF0"/>
<path d="M24.158 25.8468C24.158 25.9767 24.0516 26.083 23.9215 26.083H9.71989C9.58982 26.083 9.4834 25.9767 9.4834 25.8468V25.6224C9.4834 25.4925 9.58982 25.3862 9.71989 25.3862H23.9215C24.0516 25.3862 24.158 25.4925 24.158 25.6224V25.8468Z" fill="#ECECF0"/>
<path d="M24.158 29.1774C24.158 29.3073 24.0516 29.4136 23.9215 29.4136H9.71989C9.58982 29.4136 9.4834 29.3073 9.4834 29.1774V28.953C9.4834 28.8231 9.58982 28.7168 9.71989 28.7168H23.9215C24.0516 28.7168 24.158 28.8231 24.158 28.953V29.1774Z" fill="#ECECF0"/>
<path d="M8.029 17.3908V19.5756H5.82959V17.3908H8.029ZM8.30097 17.1191H5.55762V19.859H8.30097V17.1191Z" fill="#ECECF0"/>
<path d="M8.029 20.9459V23.1308H5.82959V20.9459H8.029ZM8.30097 20.6743H5.55762V23.4142H8.30097V20.6743Z" fill="#ECECF0"/>
<path d="M8.029 24.5007V26.6856H5.82959V24.5007H8.029ZM8.30097 24.2173H5.55762V26.9572H8.30097V24.2173Z" fill="#ECECF0"/>
<path d="M8.029 28.091V30.2758H5.82959V28.091H8.029ZM8.30097 27.8193H5.55762V30.5592H8.30097V27.8193Z" fill="#ECECF0"/>
<path d="M6.94081 19.2337C6.91716 19.2337 6.88168 19.2218 6.86986 19.1982L5.95935 17.9818C5.9357 17.9464 5.9357 17.8991 5.97118 17.8637C5.983 17.8519 6.00665 17.8401 6.0303 17.8401C6.05395 17.8401 6.06578 17.8401 6.0776 17.8519L6.91716 18.4424L8.44256 17.0724C8.45438 17.0606 8.47803 17.0488 8.50168 17.0488C8.52533 17.0488 8.54898 17.0606 8.56081 17.0724C8.59628 17.1079 8.59628 17.1551 8.57263 17.1905L7.01176 19.1982C6.99993 19.2218 6.96446 19.2337 6.94081 19.2337Z" fill="#88BA34"/>
<path d="M8.50178 17.1552L6.94089 19.151L6.03038 17.9346L6.92907 18.5724L8.50178 17.1552ZM8.50178 16.978C8.45448 16.978 8.419 17.0016 8.38353 17.0253L6.91725 18.348L6.1368 17.7929C6.10133 17.7693 6.06585 17.7575 6.03038 17.7575C5.98308 17.7575 5.93578 17.7811 5.90031 17.8165C5.84118 17.8756 5.82936 17.9819 5.88848 18.0409L6.799 19.2573C6.83447 19.3046 6.88177 19.3282 6.94089 19.3282C7.00002 19.3282 7.04732 19.3046 7.08279 19.2573L8.64367 17.2733C8.66732 17.2378 8.69098 17.2024 8.69098 17.1552C8.67915 17.0607 8.6082 16.978 8.50178 16.978Z" fill="#88BA34"/>
<path d="M6.94081 22.5164C6.91716 22.5164 6.88168 22.5045 6.86986 22.4809L5.95935 21.2645C5.9357 21.2291 5.9357 21.1818 5.97118 21.1464C5.983 21.1346 6.00665 21.1228 6.0303 21.1228C6.05395 21.1228 6.06578 21.1228 6.0776 21.1346L6.91716 21.7251L8.44256 20.3552C8.45438 20.3434 8.47803 20.3315 8.50168 20.3315C8.52533 20.3315 8.54898 20.3434 8.56081 20.3552C8.59628 20.3906 8.59628 20.4378 8.57263 20.4733L7.01176 22.4809C6.99993 22.5045 6.96446 22.5164 6.94081 22.5164Z" fill="#88BA34"/>
<path d="M8.50178 20.4379L6.94089 22.4338L6.03038 21.2174L6.92907 21.8551L8.50178 20.4379ZM8.50178 20.2607C8.45448 20.2607 8.419 20.2726 8.38353 20.308L6.91725 21.6307L6.1368 21.0756C6.10133 21.052 6.06585 21.0402 6.03038 21.0402C5.98308 21.0402 5.93578 21.0638 5.90031 21.0993C5.84118 21.1583 5.82936 21.2646 5.88848 21.3236L6.799 22.5401C6.83447 22.5873 6.88177 22.6109 6.94089 22.6109C7.00002 22.6109 7.04732 22.5873 7.08279 22.5401L8.64367 20.556C8.66732 20.5206 8.69098 20.4851 8.69098 20.4379C8.67915 20.3316 8.6082 20.2607 8.50178 20.2607Z" fill="#88BA34"/>
<path d="M1.77393 30.748V38.8142H5.69978C5.52241 38.8142 2.01042 34.7988 1.77393 30.748Z" fill="#DDDDE0"/>
<path d="M6.19603 34.9996C5.02537 34.6571 4.17398 34.1729 3.53544 33.6297C2.04551 32.366 1.79719 30.8307 1.76172 30.1812V30.7126C1.99822 34.7634 5.52201 38.8142 5.68756 38.8142C5.51018 38.6016 5.42741 38.3064 5.41559 37.9993C5.40376 37.2553 5.80581 36.2396 6.19603 34.9996Z" fill="#ECECF0"/>
</svg>
