<svg xmlns="http://www.w3.org/2000/svg" width="81.007" height="79.899" viewBox="0 0 81.007 79.899">
   
    <g transform="translate(0 -3.5)">
        <g transform="translate(46.34 14.035)">
            <path class="a" d="M300.539,70.089a7.647,7.647,0,1,0,7.647,7.647A7.656,7.656,0,0,0,300.539,70.089Zm0,10.548a2.9,2.9,0,1,1,2.9-2.9A2.9,2.9,0,0,1,300.539,80.637Z" transform="translate(-292.892 -70.089)"/>
        </g>
        <g transform="translate(0 3.5)">
            <g transform="translate(0 0)">
                <path class="a" d="M78.634,34.391h-8.95a37.894,37.894,0,0,0,2.5-12.708,18.195,18.195,0,0,0-36.39,0,37.893,37.893,0,0,0,2.5,12.708H2.373A2.373,2.373,0,0,0,0,36.764V81.026A2.373,2.373,0,0,0,2.373,83.4h76.26a2.373,2.373,0,0,0,2.373-2.373V36.764A2.373,2.373,0,0,0,78.634,34.391ZM53.987,8.246A13.457,13.457,0,0,1,67.435,21.682c0,4.1-1.151,8.86-3.421,14.144A88.536,88.536,0,0,1,53.986,52.806,87.441,87.441,0,0,1,43.959,35.827h0c-2.27-5.285-3.421-10.043-3.421-14.144A13.457,13.457,0,0,1,53.987,8.246ZM4.746,39.137h17.6L34.722,61.048H4.746Zm0,39.516V65.795H37.4l7.262,12.858Zm71.514,0H50.116L27.8,39.137H40.236A94.05,94.05,0,0,0,51.9,57.874c2.4,2.977,4.626-.568,4.3-.158A94.133,94.133,0,0,0,67.738,39.137H76.26Z" transform="translate(0 -3.5)"/>
            </g>
        </g>
    </g>
</svg>
