<svg xmlns="http://www.w3.org/2000/svg" width="13.617" height="11.064" viewBox="0 0 13.617 11.064"><defs><style>.a{fill:#2979ff;}</style></defs><path class="a" d="M11.489,11.886h1.7a.426.426,0,0,1,.426.426v1.7a.426.426,0,0,1-.426.426h-1.7a.426.426,0,0,1-.426-.426v-1.7A.426.426,0,0,1,11.489,11.886Zm0-8.511h1.7a.426.426,0,0,1,.426.426V5.5a.426.426,0,0,1-.426.426h-1.7a.426.426,0,0,1-.426-.426V3.8A.426.426,0,0,1,11.489,3.375Zm0,4.255h1.7a.426.426,0,0,1,.426.426v1.7a.426.426,0,0,1-.426.426h-1.7a.426.426,0,0,1-.426-.426v-1.7A.426.426,0,0,1,11.489,7.63ZM.426,12.311H8.936a.426.426,0,0,1,.426.426v.851a.426.426,0,0,1-.426.426H.426A.426.426,0,0,1,0,13.588v-.851A.426.426,0,0,1,.426,12.311Zm0-8.511H8.936a.426.426,0,0,1,.426.426v.851a.426.426,0,0,1-.426.426H.426A.426.426,0,0,1,0,5.077V4.226A.426.426,0,0,1,.426,3.8Zm0,4.255H8.936a.426.426,0,0,1,.426.426v.851a.426.426,0,0,1-.426.426H.426A.426.426,0,0,1,0,9.332V8.481A.426.426,0,0,1,.426,8.056Z" transform="translate(0 -3.375)"/></svg>