<svg xmlns="http://www.w3.org/2000/svg" width="14.115" height="14.115" viewBox="0 0 14.115 14.115"><defs><style>.a{fill:#ebebeb;}</style></defs><g transform="translate(-0.003 0)"><g transform="translate(0.003 0)"><path class="a" d="M13.514.6a2.07,2.07,0,0,0-2.924,0l-9.3,9.3c-.084.084-.06.078-.1.162L.024,13.571a.413.413,0,0,0,.523.523l3.517-1.175a.407.407,0,0,0,.154-.094l9.3-9.3a2.071,2.071,0,0,0,0-2.924Zm-10,11.629-2.442.814.814-2.442h.458v.756a.413.413,0,0,0,.414.414h.756Zm.827-.7v-.172a.413.413,0,0,0-.414-.414H3.17v-.756a.413.413,0,0,0-.414-.414H2.585L9.216,3.148,10.97,4.9Zm7.216-7.216L9.8,2.563l.585-.585L12.14,3.733Zm1.374-1.373-.2.2L10.97,1.393l.2-.2a1.241,1.241,0,0,1,1.755,1.755Z" transform="translate(-0.003 0)"/></g></g></svg>