<svg width="16" height="16" viewBox="0 0 16 16" fill="none" xmlns="http://www.w3.org/2000/svg">
<path d="M13.11 3.87H12.69V2.25C12.69 1.00935 11.6806 0 10.44 0H4.92C3.67935 0 2.67 1.00935 2.67 2.25V3.87H2.25C1.00935 3.87 0 4.87935 0 6.12V9.72C0 10.9606 1.00935 11.97 2.25 11.97H2.67V14.01C2.67 14.7544 3.27561 15.36 4.02 15.36H11.34C12.0844 15.36 12.69 14.7544 12.69 14.01V11.97H13.11C14.3506 11.97 15.36 10.9606 15.36 9.72V6.12C15.36 4.87935 14.3506 3.87 13.11 3.87ZM3.57 2.25C3.57 1.50561 4.17561 0.9 4.92 0.9H10.44C11.1844 0.9 11.79 1.50561 11.79 2.25V3.87H3.57V2.25ZM11.79 14.01C11.79 14.2581 11.5881 14.46 11.34 14.46H4.02C3.77187 14.46 3.57 14.2581 3.57 14.01V9.57H11.79V14.01ZM14.46 9.72C14.46 10.4644 13.8544 11.07 13.11 11.07H12.69V9.57H12.96C13.2085 9.57 13.41 9.36852 13.41 9.12C13.41 8.87148 13.2085 8.67 12.96 8.67H2.4C2.15148 8.67 1.95 8.87148 1.95 9.12C1.95 9.36852 2.15148 9.57 2.4 9.57H2.67V11.07H2.25C1.50561 11.07 0.9 10.4644 0.9 9.72V6.12C0.9 5.37561 1.50561 4.77 2.25 4.77H13.11C13.8544 4.77 14.46 5.37561 14.46 6.12V9.72Z" fill="#FFFBFB"/>
<path d="M8.87979 10.59H6.47979C6.23127 10.59 6.02979 10.7915 6.02979 11.04C6.02979 11.2885 6.23127 11.49 6.47979 11.49H8.87979C9.12831 11.49 9.32979 11.2885 9.32979 11.04C9.32979 10.7915 9.12831 10.59 8.87979 10.59Z" fill="#FFFBFB"/>
<path d="M8.87979 12.51H6.47979C6.23127 12.51 6.02979 12.7115 6.02979 12.96C6.02979 13.2085 6.23127 13.41 6.47979 13.41H8.87979C9.12831 13.41 9.32979 13.2085 9.32979 12.96C9.32979 12.7115 9.12831 12.51 8.87979 12.51Z" fill="#FFFBFB"/>
<path d="M3.8402 5.78998H2.4002C2.15168 5.78998 1.9502 5.99146 1.9502 6.23998C1.9502 6.4885 2.15168 6.68998 2.4002 6.68998H3.8402C4.08872 6.68998 4.2902 6.4885 4.2902 6.23998C4.2902 5.99146 4.08872 5.78998 3.8402 5.78998Z" fill="#FFFBFB"/>
</svg>
