<svg xmlns="http://www.w3.org/2000/svg" width="17.399" height="17.187" viewBox="0 0 17.399 17.187">
    <defs>
        <style>
            .abc{fill:#c3c3c3}
        </style>
    </defs>
    <g transform="translate(-1.601 -1.293)">
        <path class="abc" d="M18.242,17.682h-.56v.56h-1.12v-.56H16v.56h-1.12v-.56h-.56v.56H13.2v-.56h-.56v.56h-1.12v-.56h-.56v.56H9.841v-.56h-.56v.56H8.161v-.56H7.6v.56H6.481v-.56H5.92v.56H4.8v-.56H4.24v.56H2.56v-1.68h.56V16H2.56v-1.12h.56v-.56H2.56V13.2h.56v-.56H2.56v-1.12h.56v-.56H2.56V9.841h.56v-.56H2.56V8.161h.56V7.6H2.56V6.481h.56V5.92H2.56V4.8h.56V4.24H2.56V3.12h.56V2.56H2.56V2H1.6V18.43l.2.372.438.188H18.8v-.748h-.56Z" transform="translate(0 -0.509)"/>
        <path class="abc" d="M10,41.84a.84.84,0,1,0,.84-.84A.841.841,0,0,0,10,41.84Zm1.12,0a.28.28,0,1,1-.28-.28A.28.28,0,0,1,11.12,41.84Z" transform="translate(-5.76 -28.588)"/>
        <path class="abc" d="M14.68,30.84a.84.84,0,1,0-.84.84A.841.841,0,0,0,14.68,30.84Zm-1.12,0a.28.28,0,1,1,.28.28A.28.28,0,0,1,13.56,30.84Z" transform="translate(-7.92 -20.668)"/>
        <path class="abc" d="M53.68,12.84a.84.84,0,1,0-.84.84A.841.841,0,0,0,53.68,12.84Zm-1.12,0a.28.28,0,1,1,.28.28A.28.28,0,0,1,52.56,12.84Z" transform="translate(-35.998 -7.709)"/>
        <path class="abc" d="M22,22.84a.84.84,0,1,0,.84-.84A.841.841,0,0,0,22,22.84Zm1.12,0a.28.28,0,1,1-.28-.28A.28.28,0,0,1,23.12,22.84Z" transform="translate(-14.399 -14.908)"/>
        <path class="abc" d="M35,39.84a.84.84,0,1,0,.84-.84A.841.841,0,0,0,35,39.84Zm1.12,0a.28.28,0,1,1-.28-.28A.28.28,0,0,1,36.12,39.84Z" transform="translate(-23.759 -27.148)"/>
        <path class="abc" d="M40.84,27.68a.84.84,0,1,0-.84-.84A.841.841,0,0,0,40.84,27.68Zm0-1.12a.28.28,0,1,1-.28.28A.28.28,0,0,1,40.84,26.56Z" transform="translate(-27.359 -17.788)"/>
        <path class="abc" d="M38,9.84A.84.84,0,1,0,38.84,9,.841.841,0,0,0,38,9.84Zm1.12,0a.28.28,0,1,1-.28-.28A.28.28,0,0,1,39.12,9.84Z" transform="translate(-25.919 -5.549)"/>
        <path class="abc" d="M22.415,1.293l-.282.282a.826.826,0,0,0-.36-.084.841.841,0,0,0-.84.84.826.826,0,0,0,.084.36l-.667.667a.839.839,0,1,0-.818.654.819.819,0,0,0,.187-.023L18.492,5.215a.83.83,0,0,0-.36-.084.841.841,0,0,0-.84.84.826.826,0,0,0,.084.36l-.935.935a.838.838,0,1,0-.935.935l-.935.935a.826.826,0,0,0-.36-.084.841.841,0,0,0-.84.84.83.83,0,0,0,.084.36L12.4,11.307a.869.869,0,0,0-.149-.015.831.831,0,0,0-.825.989L8.971,14.737a.828.828,0,0,0-.36-.084.841.841,0,0,0-.84.84.826.826,0,0,0,.084.36l-.562.562.4.4.562-.562a.826.826,0,0,0,.36.084.841.841,0,0,0,.84-.84.826.826,0,0,0-.084-.36l2.354-2.354A.835.835,0,0,0,12.9,11.6l.954-.954a.832.832,0,0,0,.36.084.841.841,0,0,0,.84-.84.826.826,0,0,0-.084-.36l2.8-2.8a.832.832,0,0,0,.36.084.841.841,0,0,0,.84-.84.826.826,0,0,0-.084-.36l2.524-2.524a.832.832,0,0,0,.36.084.841.841,0,0,0,.84-.84.826.826,0,0,0-.084-.36l.282-.282ZM19.252,3.171a.28.28,0,1,1,.28.28A.28.28,0,0,1,19.252,3.171Zm-3.92,4.2a.28.28,0,1,1,.28.28A.28.28,0,0,1,15.332,7.372Zm-6.721,8.4a.28.28,0,1,1,.28-.28A.28.28,0,0,1,8.611,15.773Zm3.64-3.36a.28.28,0,1,1,.28-.28A.28.28,0,0,1,12.252,12.412Zm1.96-2.24a.28.28,0,1,1,.28-.28A.28.28,0,0,1,14.212,10.172Zm3.92-3.92a.28.28,0,1,1,.28-.28A.28.28,0,0,1,18.132,6.252Zm3.64-3.64a.28.28,0,1,1,.28-.28A.28.28,0,0,1,21.773,2.611Z" transform="translate(-3.811)"/>
    </g>
</svg>
