<svg width="93" height="60" viewBox="0 0 93 60" fill="none" xmlns="http://www.w3.org/2000/svg">
<path opacity="0.47" d="M91.5689 56.0149C92.8698 53.8952 93.1796 51.2879 92.9111 48.8079C92.6427 46.349 91.8993 43.763 90.8875 41.5161C89.917 39.3964 88.5128 37.5099 88.0998 35.1358C87.5629 32.0199 88.9671 29.0099 89.2768 25.9575C89.917 19.8528 85.911 14.49 80.9344 11.586C76.8871 9.2331 72.1584 8.34283 67.4916 8.40642C63.2998 8.47001 59.1286 9.2331 55.0813 10.2506C51.1785 11.2468 47.3584 12.5398 43.2491 12.1371C39.842 11.7979 36.7652 10.3353 33.6058 9.2543C26.0275 6.66827 16.8591 6.30792 9.92088 10.2506C5.48124 12.773 2.36317 16.8852 0.979658 21.2942C-0.0321668 24.5161 -0.32126 28.2468 0.401472 31.5111C1.22745 35.1782 2.77616 38.4214 2.36317 42.3004C2.03278 45.48 0.897059 48.5747 1.00031 51.7967C1.0829 54.5735 4.01513 58.5373 7.0506 59.576C7.2158 59.6396 6.92671 59.8727 7.0506 59.9999H87.1293C88.8845 59.0248 90.5158 57.7318 91.5689 56.0149Z" fill="#E1E2FE"/>
<path opacity="0.81" d="M91.9613 46.6035C91.0114 40.4776 84.6927 39.6297 86.0555 35.687C87.7901 30.6846 87.7075 25.0674 85.6012 20.192C84.5894 17.8392 83.1027 15.6559 81.079 14.1509C77.9609 11.8192 73.8517 11.3105 70.0109 11.6073C64.2703 12.0524 58.22 14.4901 52.4588 13.833C49.2788 13.4726 48.3083 10.0599 46.6563 7.83421C44.7979 5.29057 42.258 3.31925 39.4703 1.98384C34.308 -0.453814 28.1338 -0.686982 22.8681 1.5175C17.2515 3.87037 12.3369 9.63595 12.6673 16.1646C12.8119 19.1746 14.0508 22.1846 13.4726 25.1521C12.7706 28.8828 9.92093 32.2531 7.85598 35.2843C5.58454 38.6334 4.20102 42.6185 3.93258 46.6883C3.62284 51.3092 4.73791 56.0149 7.09195 59.9576H88.5128C89.5659 58.1134 93.4274 56.0149 91.9613 46.6035Z" fill="#E1E2FE"/>
<path d="M88.3586 36.8633H70.7326C69.8187 36.8633 69.1006 37.6467 69.1006 38.5606V52.4655C69.1006 53.3794 69.8187 54.1628 70.7326 54.1628H88.3586C89.2725 54.1628 89.9906 53.3794 89.9906 52.4655V38.5606C90.0559 37.5814 89.2725 36.8633 88.3586 36.8633Z" fill="#253C68"/>
<path d="M87.9018 37.3855H71.1898C70.3411 37.3855 69.623 38.1036 69.623 38.9522V52.0085C69.623 52.8572 70.3411 53.5753 71.1898 53.5753H87.9018C88.7505 53.5753 89.4686 52.8572 89.4686 52.0085V38.9522C89.4686 38.1036 88.7505 37.3855 87.9018 37.3855Z" fill="#5A9AF2"/>
<path d="M87.7712 38.7563H71.3203V52.2043H87.7712V38.7563Z" fill="white"/>
<path opacity="0.6" d="M79.611 39.8662H73.0176V39.9968H79.611V39.8662Z" fill="#D6D2C7"/>
<path opacity="0.6" d="M79.611 40.9761H73.0176V41.1066H79.611V40.9761Z" fill="#D6D2C7"/>
<path opacity="0.6" d="M79.611 42.0857H73.0176V42.2163H79.611V42.0857Z" fill="#D6D2C7"/>
<path opacity="0.6" d="M79.611 43.1956H73.0176V43.3261H79.611V43.1956Z" fill="#D6D2C7"/>
<path opacity="0.6" d="M79.611 44.3054H73.0176V44.436H79.611V44.3054Z" fill="#D6D2C7"/>
<path opacity="0.6" d="M83.0709 50.6377H76.4775V50.8988H83.0709V50.6377Z" fill="#D6D2C7"/>
<path d="M74.9761 49.9846H75.8247V47.3081C75.5636 47.3734 75.2372 47.4387 74.9761 47.4387V49.9846Z" fill="#5A9AF2"/>
<path d="M76.1509 49.9846H76.9995V46.9817C76.7384 47.047 76.412 47.1123 76.1509 47.1775V49.9846Z" fill="#FF9284"/>
<path d="M77.3262 49.9846H78.1748V46.6553C77.9137 46.7206 77.5873 46.8511 77.3262 46.9164V49.9846Z" fill="#FDB813"/>
<path d="M78.5015 49.9847H79.3501V46.2637C79.089 46.3942 78.7626 46.4595 78.5015 46.5901V49.9847Z" fill="#5A9AF2"/>
<path d="M79.6763 49.9847H80.5249V45.7415C80.2638 45.872 79.9374 46.0026 79.6763 46.1331V49.9847Z" fill="#FF9284"/>
<path d="M80.8516 49.9846H81.7002V45.1538C81.4391 45.2844 81.1127 45.4802 80.8516 45.6108V49.9846Z" fill="#FDB813"/>
<path d="M82.0918 44.958V49.9847H82.9405V44.4358C82.8099 44.5011 82.6793 44.6316 82.4835 44.6969C82.3529 44.7622 82.2224 44.8275 82.0918 44.958Z" fill="#5A9AF2"/>
<path d="M83.2671 49.9847H84.1157V43.5872C83.8546 43.783 83.5935 43.9788 83.2671 44.24V49.9847Z" fill="#FF9284"/>
<path d="M85.2255 43.3914L85.0949 41.3677L83.1365 41.6288L83.8546 42.2816C82.6142 43.3914 79.3502 45.8068 73.8013 46.4596L73.8665 47.3083C77.8487 46.8513 80.6558 45.4804 82.3531 44.4359C83.3323 43.7831 84.0504 43.1956 84.5074 42.8039L85.2255 43.3914Z" fill="#253C68"/>
<path d="M32.5425 11.4687C32.5425 11.3381 32.4773 11.2076 32.412 11.1423C32.3467 11.077 32.2161 11.0117 32.0856 11.0117H14.9819C14.8513 11.0117 14.7207 11.077 14.6555 11.1423C14.5902 11.2076 14.5249 11.3381 14.5249 11.4687V33.4032C14.5249 33.6643 14.7207 33.8602 14.9819 33.8602H32.0856C32.3467 33.8602 32.5425 33.6643 32.5425 33.4032V11.4687Z" fill="#253C68"/>
<path d="M31.8897 12.1215C31.8897 11.991 31.8245 11.9257 31.7592 11.7951C31.6939 11.7298 31.5633 11.6646 31.4328 11.6646H15.6347C15.5041 11.6646 15.4389 11.7298 15.3083 11.7951C15.243 11.8604 15.1777 11.991 15.1777 12.1215V32.7504C15.1777 33.0115 15.3736 33.2074 15.6347 33.2074H31.4328C31.6939 33.2074 31.8897 33.0115 31.8897 32.7504V12.1215Z" fill="white"/>
<path d="M28.3648 12.448H18.7031V14.7328H28.3648V12.448Z" fill="#389DC9"/>
<path d="M20.531 23.6763H15.896V25.9611H20.531V23.6763Z" fill="#389DC9"/>
<path d="M25.8186 23.6763H21.1836V25.9611H25.8186V23.6763Z" fill="#FF9284"/>
<path d="M31.1716 23.6763H26.5366V25.9611H31.1716V23.6763Z" fill="#389DC9"/>
<path d="M21.6406 16.1038H16.0264V22.5013H21.6406V16.1038Z" fill="#FF9284"/>
<path d="M31.0409 16.4299H22.8154V16.6911H31.0409V16.4299Z" fill="#BDB9B6"/>
<path d="M30.5191 27.1362H17.0059V27.3974H30.5191V27.1362Z" fill="#BDB9B6"/>
<path d="M30.5191 28.2461H17.0059V28.5072H30.5191V28.2461Z" fill="#BDB9B6"/>
<path d="M30.5191 29.2905H17.0059V29.5516H30.5191V29.2905Z" fill="#BDB9B6"/>
<path d="M30.5191 30.4004H17.0059V30.6615H30.5191V30.4004Z" fill="#BDB9B6"/>
<path d="M30.5191 31.4448H17.0059V31.7059H30.5191V31.4448Z" fill="#BDB9B6"/>
<path d="M31.0409 17.5398H22.8154V17.8009H31.0409V17.5398Z" fill="#BDB9B6"/>
<path d="M31.0409 18.6497H22.8154V18.9108H31.0409V18.6497Z" fill="#BDB9B6"/>
<path d="M31.0409 19.7595H22.8154V20.0206H31.0409V19.7595Z" fill="#BDB9B6"/>
<path d="M31.0409 20.8691H22.8154V21.1303H31.0409V20.8691Z" fill="#BDB9B6"/>
<path d="M31.0409 21.979H22.8154V22.2401H31.0409V21.979Z" fill="#BDB9B6"/>
<path d="M77.5215 43.4566L76.6075 18.7803C76.5423 17.6052 75.4325 16.626 74.0616 16.626H27.7119C26.341 16.626 25.2312 17.6052 25.1659 18.7803L24.3172 43.4566L24.1867 48.0916C24.1214 49.5277 25.2965 50.7028 26.6674 50.7028H45.142L45.0767 56.9698H38.6791V58.4713H63.2249V56.9698H56.6968V50.7028H75.1714C76.6075 50.7028 77.7173 49.5277 77.652 48.0916L77.5215 43.4566Z" fill="#253C68"/>
<path d="M26.8633 44.1746L27.5814 18.8455C27.5814 18.8455 27.5814 18.8455 27.6467 18.8455H74.1922C74.1922 18.8455 74.1922 18.8455 74.2575 18.8455L74.9756 44.1746H26.8633Z" fill="#5893E6"/>
<path d="M64.9877 46.6553H59.3082C59.1123 46.6553 58.9165 46.8511 58.9165 47.047V54.0321C58.9165 54.2279 59.1123 54.4237 59.3082 54.4237H64.9877C65.1835 54.4237 65.3793 54.2279 65.3793 54.0321V47.047C65.3141 46.7858 65.1835 46.6553 64.9877 46.6553Z" fill="#253C68"/>
<path d="M64.7919 46.8511H59.5041C59.3083 46.8511 59.1777 47.0469 59.1777 47.2428V53.8362C59.1777 54.032 59.3083 54.2279 59.5041 54.2279H64.7919C64.9878 54.2279 65.1183 54.032 65.1183 53.8362V47.2428C65.1183 46.9816 64.9878 46.8511 64.7919 46.8511Z" fill="white"/>
<path d="M60.6139 49.9846H59.9611C59.8958 49.9846 59.8306 49.9193 59.8306 49.854V49.1359C59.8306 49.0707 59.8958 49.0054 59.9611 49.0054H60.6139C60.6792 49.0054 60.7445 49.0707 60.7445 49.1359V49.854C60.7445 49.9193 60.6792 49.9846 60.6139 49.9846Z" fill="#FDB813"/>
<path d="M61.854 49.9846H61.1359C61.0707 49.9846 61.0054 49.9193 61.0054 49.854V49.1359C61.0054 49.0707 61.0707 49.0054 61.1359 49.0054H61.854C61.9193 49.0054 61.9846 49.0707 61.9846 49.1359V49.854C61.9846 49.9193 61.9193 49.9846 61.854 49.9846Z" fill="#FDB813"/>
<path d="M63.0293 49.9846H62.3112C62.2459 49.9846 62.1807 49.9193 62.1807 49.854V49.1359C62.1807 49.0707 62.2459 49.0054 62.3112 49.0054H63.0293C63.0946 49.0054 63.1599 49.0707 63.1599 49.1359V49.854C63.2252 49.9193 63.1599 49.9846 63.0293 49.9846Z" fill="#FDB813"/>
<path d="M64.3999 49.9846H63.6818C63.6165 49.9846 63.5513 49.9193 63.5513 49.854V49.1359C63.5513 49.0707 63.6165 49.0054 63.6818 49.0054H64.3999C64.4652 49.0054 64.5305 49.0707 64.5305 49.1359V49.854C64.5305 49.9193 64.4652 49.9846 64.3999 49.9846Z" fill="#FDB813"/>
<path d="M60.6139 51.2903H59.9611C59.8958 51.2903 59.8306 51.225 59.8306 51.1597V50.4416C59.8306 50.3763 59.8958 50.311 59.9611 50.311H60.6139C60.6792 50.311 60.7445 50.3763 60.7445 50.4416V51.1597C60.7445 51.225 60.6792 51.2903 60.6139 51.2903Z" fill="#FDB813"/>
<path d="M61.854 51.2903H61.1359C61.0707 51.2903 61.0054 51.225 61.0054 51.1597V50.4416C61.0054 50.3763 61.0707 50.311 61.1359 50.311H61.854C61.9193 50.311 61.9846 50.3763 61.9846 50.4416V51.1597C61.9846 51.225 61.9193 51.2903 61.854 51.2903Z" fill="#FDB813"/>
<path d="M63.0293 51.2903H62.3112C62.2459 51.2903 62.1807 51.225 62.1807 51.1597V50.4416C62.1807 50.3763 62.2459 50.311 62.3112 50.311H63.0293C63.0946 50.311 63.1599 50.3763 63.1599 50.4416V51.1597C63.2252 51.225 63.1599 51.2903 63.0293 51.2903Z" fill="#FDB813"/>
<path d="M64.3999 51.2903H63.6818C63.6165 51.2903 63.5513 51.225 63.5513 51.1597V50.4416C63.5513 50.3763 63.6165 50.311 63.6818 50.311H64.3999C64.4652 50.311 64.5305 50.3763 64.5305 50.4416V51.1597C64.5305 51.225 64.4652 51.2903 64.3999 51.2903Z" fill="#FDB813"/>
<path d="M60.6139 52.5305H59.9611C59.8958 52.5305 59.8306 52.4652 59.8306 52.3999V51.6818C59.8306 51.6165 59.8958 51.5513 59.9611 51.5513H60.6139C60.6792 51.5513 60.7445 51.6165 60.7445 51.6818V52.3999C60.7445 52.4652 60.6792 52.5305 60.6139 52.5305Z" fill="#FDB813"/>
<path d="M61.854 52.5305H61.1359C61.0707 52.5305 61.0054 52.4652 61.0054 52.3999V51.6818C61.0054 51.6165 61.0707 51.5513 61.1359 51.5513H61.854C61.9193 51.5513 61.9846 51.6165 61.9846 51.6818V52.3999C61.9846 52.4652 61.9193 52.5305 61.854 52.5305Z" fill="#FDB813"/>
<path d="M63.0293 52.5305H62.3112C62.2459 52.5305 62.1807 52.4652 62.1807 52.3999V51.6818C62.1807 51.6165 62.2459 51.5513 62.3112 51.5513H63.0293C63.0946 51.5513 63.1599 51.6165 63.1599 51.6818V52.3999C63.2252 52.4652 63.1599 52.5305 63.0293 52.5305Z" fill="#FDB813"/>
<path d="M60.6139 53.8362H59.9611C59.8958 53.8362 59.8306 53.7709 59.8306 53.7056V52.9875C59.8306 52.9222 59.8958 52.8569 59.9611 52.8569H60.6139C60.6792 52.8569 60.7445 52.9222 60.7445 52.9875V53.7056C60.7445 53.7709 60.6792 53.8362 60.6139 53.8362Z" fill="#FDB813"/>
<path d="M61.854 53.8362H61.1359C61.0707 53.8362 61.0054 53.7709 61.0054 53.7056V52.9875C61.0054 52.9222 61.0707 52.8569 61.1359 52.8569H61.854C61.9193 52.8569 61.9846 52.9222 61.9846 52.9875V53.7056C61.9846 53.7709 61.9193 53.8362 61.854 53.8362Z" fill="#FDB813"/>
<path d="M63.0293 53.8362H62.3112C62.2459 53.8362 62.1807 53.7709 62.1807 53.7056V52.9875C62.1807 52.9222 62.2459 52.8569 62.3112 52.8569H63.0293C63.0946 52.8569 63.1599 52.9222 63.1599 52.9875V53.7056C63.2252 53.7709 63.1599 53.8362 63.0293 53.8362Z" fill="#FDB813"/>
<path d="M64.3999 53.7056H63.6818C63.6165 53.7056 63.5513 53.6403 63.5513 53.575V51.6818C63.5513 51.6165 63.6165 51.5513 63.6818 51.5513H64.3999C64.4652 51.5513 64.5305 51.6165 64.5305 51.6818V53.575C64.5305 53.6403 64.4652 53.7056 64.3999 53.7056Z" fill="#389DC9"/>
<path d="M64.6612 47.2429H59.7651V48.5485H64.6612V47.2429Z" fill="#253C68"/>
<path opacity="0.3" d="M38.6138 56.9698V58.4713H50.1686V16.626H27.7119C26.341 16.626 25.2312 17.6052 25.1659 18.7803L24.3172 43.4566L24.1867 48.0916C24.1214 49.5277 25.2965 50.7028 26.6674 50.7028H45.142L45.0767 56.9698H38.6138Z" fill="#3E479B"/>
<g opacity="0.9">
<g opacity="0.9">
<path opacity="0.9" d="M36.2639 21.7832H36.1333V40.8453H36.2639V21.7832Z" fill="white"/>
</g>
<g opacity="0.9">
<path opacity="0.9" d="M40.1804 40.3232H40.0498V40.9108H40.1804V40.3232Z" fill="white"/>
</g>
<g opacity="0.9">
<path opacity="0.9" d="M44.1628 40.3232H44.0322V40.9108H44.1628V40.3232Z" fill="white"/>
</g>
<g opacity="0.9">
<path opacity="0.9" d="M48.1447 40.3232H48.0142V40.9108H48.1447V40.3232Z" fill="white"/>
</g>
<g opacity="0.9">
<path opacity="0.9" d="M63.9431 40.3232H63.8125V40.9108H63.9431V40.3232Z" fill="white"/>
</g>
<g opacity="0.9">
<path opacity="0.9" d="M63.8778 38.6912C63.8778 38.7564 63.8125 38.7564 63.8125 38.8217H66.8807V38.6912H63.8778Z" fill="white"/>
<path opacity="0.9" d="M47.6881 38.6912H35.9375V38.8217H47.7534C47.6881 38.7564 47.6881 38.7564 47.6881 38.6912Z" fill="white"/>
</g>
<g opacity="0.9">
<path opacity="0.9" d="M46.7742 36.7327H35.9375V36.8632H46.7742C46.7742 36.7979 46.7742 36.7327 46.7742 36.7327Z" fill="white"/>
<path opacity="0.9" d="M64.8573 36.7327C64.8573 36.7979 64.8573 36.7979 64.792 36.8632H66.8157V36.7327H64.8573Z" fill="white"/>
</g>
<g opacity="0.9">
<path opacity="0.9" d="M46.3825 34.8394H35.9375V34.9699H46.3825C46.3825 34.9046 46.3825 34.9046 46.3825 34.8394Z" fill="white"/>
</g>
<g opacity="0.9">
<path opacity="0.9" d="M46.3825 33.0117H35.9375V33.1423H46.3825C46.3825 33.077 46.3825 33.0117 46.3825 33.0117Z" fill="white"/>
</g>
<g opacity="0.9">
<path opacity="0.9" d="M46.7089 30.9878H35.9375V31.1184H46.7089C46.7089 31.0531 46.7089 30.9878 46.7089 30.9878Z" fill="white"/>
</g>
<g opacity="0.9">
<path opacity="0.9" d="M47.3617 29.0947H35.9375V29.2253H47.3617C47.3617 29.16 47.3617 29.0947 47.3617 29.0947Z" fill="white"/>
</g>
<g opacity="0.9">
<path opacity="0.9" d="M64.5962 27.2014C64.5962 27.2667 64.6615 27.2667 64.6615 27.332H66.881V27.2014H64.5962Z" fill="white"/>
<path opacity="0.9" d="M48.3409 27.2014H35.9375V27.332H48.3409C48.3409 27.2667 48.3409 27.2667 48.3409 27.2014Z" fill="white"/>
</g>
<g opacity="0.9">
<path opacity="0.9" d="M49.7771 25.439H35.9375V25.5695H49.7118C49.7118 25.5042 49.7771 25.5042 49.7771 25.439Z" fill="white"/>
<path opacity="0.9" d="M63.2251 25.439C63.2904 25.5042 63.2904 25.5042 63.3557 25.5695H66.8156V25.439H63.2251Z" fill="white"/>
</g>
<g opacity="0.9">
<path opacity="0.9" d="M52.5189 23.4153H52.5842H35.9375V23.5458H52.3884C52.4537 23.4806 52.5189 23.4806 52.5189 23.4153Z" fill="white"/>
<path opacity="0.9" d="M60.2222 23.4153C60.2874 23.4806 60.418 23.4806 60.4833 23.5458H66.8156V23.4153H60.2222Z" fill="white"/>
</g>
<g opacity="0.9">
<g opacity="0.9">
<path opacity="0.9" d="M35.1538 40.5189C35.1538 40.4537 35.1538 40.3231 35.2191 40.3231C35.2844 40.2578 35.2844 40.2578 35.3497 40.2578C35.4149 40.2578 35.4802 40.2578 35.4802 40.3231C35.5455 40.3884 35.5455 40.4537 35.5455 40.5189C35.5455 40.5842 35.5455 40.7148 35.4802 40.7148C35.4802 40.7801 35.4149 40.7801 35.3497 40.7801C35.2844 40.7801 35.2191 40.7801 35.2191 40.7148C35.1538 40.6495 35.1538 40.5842 35.1538 40.5189ZM35.2191 40.5189C35.2191 40.5842 35.2191 40.6495 35.2844 40.6495C35.2844 40.7148 35.3497 40.7148 35.3497 40.7148C35.4149 40.7148 35.4149 40.7148 35.4149 40.6495C35.4149 40.5842 35.4802 40.5842 35.4802 40.5189C35.4802 40.4537 35.4802 40.3884 35.4149 40.3884C35.4149 40.3231 35.3497 40.3231 35.3497 40.3231C35.2844 40.3231 35.2844 40.3231 35.2844 40.3884C35.2844 40.3884 35.2191 40.4537 35.2191 40.5189Z" fill="white"/>
</g>
</g>
<g opacity="0.9">
<path opacity="0.9" d="M35.5453 38.8216H35.1537V38.7563L35.3495 38.5604C35.4148 38.4952 35.4148 38.4952 35.4148 38.4952V38.4299C35.4148 38.3646 35.4148 38.3646 35.3495 38.3646L35.2842 38.2993C35.2189 38.2993 35.2189 38.2993 35.2189 38.3646C35.2189 38.3646 35.1537 38.4299 35.1537 38.4952H35.0884C35.0884 38.4299 35.0884 38.3646 35.1537 38.3646C35.2189 38.2993 35.2189 38.2993 35.2842 38.2993C35.3495 38.2993 35.3495 38.2993 35.4148 38.3646C35.4801 38.4299 35.4801 38.4299 35.4801 38.4952V38.5604L35.4148 38.6257L35.2189 38.8216H35.5453Z" fill="white"/>
</g>
<g opacity="0.9">
<path opacity="0.9" d="M35.4802 36.7978L35.4149 36.6673H35.1538V36.602L35.4149 36.145H35.4802V36.602H35.5455V36.6673H35.4802V36.7978ZM35.4802 36.6673V36.2756L35.2844 36.6673H35.4802Z" fill="white"/>
</g>
<g opacity="0.9">
<path opacity="0.9" d="M35.4149 34.3826H35.4802L35.3497 34.5784C35.3497 34.5784 35.3497 34.5784 35.4149 34.5784C35.4802 34.5784 35.5455 34.5784 35.5455 34.6437C35.6108 34.709 35.6108 34.709 35.6108 34.7743C35.6108 34.8395 35.6108 34.9048 35.5455 34.9048C35.4802 34.9701 35.4802 34.9701 35.4149 34.9701C35.3497 34.9701 35.2844 34.9701 35.2844 34.9048C35.2191 34.8395 35.2191 34.8395 35.2191 34.7743C35.2191 34.709 35.2191 34.6437 35.2844 34.5784L35.4149 34.3826ZM35.3497 34.5784C35.2844 34.5784 35.2844 34.5784 35.2191 34.6437C35.2191 34.6437 35.1538 34.709 35.1538 34.7743C35.1538 34.8395 35.1538 34.8395 35.2191 34.9048C35.2191 34.9048 35.2844 34.9701 35.3497 34.9701C35.4149 34.9701 35.4149 34.9701 35.4802 34.9048C35.4802 34.9048 35.5455 34.8395 35.5455 34.7743C35.5455 34.709 35.5455 34.709 35.4802 34.6437C35.4802 34.6437 35.4149 34.5784 35.3497 34.5784Z" fill="white"/>
</g>
<g opacity="0.9">
<path opacity="0.9" d="M35.2845 32.7505C35.2845 32.7505 35.2192 32.7505 35.2845 32.7505C35.2192 32.6852 35.2192 32.6852 35.2192 32.6199C35.2192 32.5546 35.2192 32.5546 35.2845 32.4894C35.2845 32.4894 35.3498 32.4241 35.4151 32.4241C35.4804 32.4241 35.4804 32.4241 35.5456 32.4894C35.5456 32.4894 35.6109 32.5546 35.6109 32.6199V32.6852C35.6109 32.6852 35.6109 32.7505 35.5456 32.7505L35.6109 32.8158V32.881C35.6109 32.9463 35.6109 33.0116 35.5456 33.0116C35.4804 33.0769 35.4804 33.0769 35.4151 33.0769C35.3498 33.0769 35.3498 33.0769 35.2845 33.0116C35.2192 32.9463 35.2192 32.9463 35.2192 32.881C35.2192 32.8158 35.2192 32.8158 35.2192 32.8158C35.2192 32.8158 35.2192 32.7505 35.2845 32.7505ZM35.2845 32.881C35.2845 32.9463 35.2845 32.9463 35.3498 32.9463L35.4151 33.0116C35.4804 33.0116 35.4804 33.0116 35.4804 32.9463L35.5456 32.881C35.5456 32.8158 35.5456 32.8158 35.4804 32.8158L35.4151 32.7505C35.3498 32.7505 35.3498 32.7505 35.3498 32.8158C35.2845 32.8158 35.2845 32.881 35.2845 32.881ZM35.2845 32.6199V32.6852H35.3498C35.4151 32.6852 35.4151 32.6852 35.4151 32.6852V32.6199V32.5546H35.3498H35.2845V32.6199Z" fill="white"/>
</g>
<g opacity="0.9">
<g opacity="0.9">
<path opacity="0.9" d="M34.9581 31.1837L34.8928 30.6615H34.7622V30.5962H34.9581V31.1837Z" fill="white"/>
</g>
<g opacity="0.9">
<path opacity="0.9" d="M35.1538 30.9227V30.7268C35.1538 30.6616 35.1538 30.6616 35.1538 30.6616V30.5963L35.2191 30.531H35.2844C35.3497 30.531 35.4149 30.531 35.4149 30.5963C35.4802 30.6616 35.4802 30.6616 35.4802 30.7268V30.988V31.0533V31.1185L35.4149 31.1838H35.3497C35.2844 31.1838 35.2844 31.1838 35.2844 31.1838L35.2191 31.1185V31.0533C35.1538 30.988 35.1538 30.988 35.1538 30.9227ZM35.2191 30.988C35.2191 31.0533 35.2191 31.0533 35.2844 31.1185C35.2844 31.1185 35.3497 31.1838 35.4149 31.1838C35.4802 31.1838 35.4802 31.1838 35.5455 31.1185C35.5455 31.1185 35.6108 31.0533 35.6108 30.988V30.7921C35.6108 30.7268 35.6108 30.7268 35.5455 30.6616C35.5455 30.6616 35.4802 30.5963 35.4149 30.5963C35.3497 30.5963 35.3497 30.5963 35.2844 30.6616C35.2844 30.6616 35.2191 30.7268 35.2191 30.7921V30.988Z" fill="white"/>
</g>
</g>
<g opacity="0.9">
<g opacity="0.9">
<path opacity="0.9" d="M34.9581 29.16L34.8928 28.6378H34.7622V28.5725H34.9581V29.16Z" fill="white"/>
</g>
<g opacity="0.9">
<path opacity="0.9" d="M35.5453 29.1599H35.1537V29.0947L35.3495 28.8988C35.4148 28.8335 35.4148 28.8335 35.4148 28.8335V28.7683C35.4148 28.703 35.4148 28.703 35.3495 28.703L35.2842 28.6377C35.2189 28.6377 35.2189 28.6377 35.2189 28.703C35.2189 28.703 35.1537 28.7683 35.1537 28.8335H35.0884C35.0884 28.7683 35.0884 28.703 35.1537 28.703C35.2189 28.6377 35.2189 28.6377 35.2842 28.6377C35.3495 28.6377 35.3495 28.6377 35.4148 28.703C35.4801 28.7683 35.4801 28.7683 35.4801 28.8335V28.8988L35.4148 28.9641L35.2189 29.1599H35.5453Z" fill="white"/>
</g>
</g>
<g opacity="0.9">
<g opacity="0.9">
<path opacity="0.9" d="M34.9581 27.3319L34.8928 26.8097H34.7622V26.7444H34.9581V27.3319Z" fill="white"/>
</g>
<g opacity="0.9">
<path opacity="0.9" d="M35.4802 27.332L35.4149 27.2014H35.1538V27.1362L35.4149 26.6792H35.4802V27.1362H35.5455V27.2014H35.4802V27.332ZM35.4802 27.1362V26.7445L35.2844 27.1362H35.4802Z" fill="white"/>
</g>
</g>
<g opacity="0.9">
<g opacity="0.9">
<path opacity="0.9" d="M34.9581 25.5043L34.8928 24.982H34.7622V24.9167H34.9581V25.5043Z" fill="white"/>
</g>
<g opacity="0.9">
<path opacity="0.9" d="M35.4149 24.9167H35.4802L35.3497 25.1126C35.3497 25.1126 35.3497 25.1126 35.4149 25.1126C35.4802 25.1126 35.5455 25.1126 35.5455 25.1779C35.6108 25.2432 35.6108 25.2432 35.6108 25.3084C35.6108 25.3737 35.6108 25.439 35.5455 25.439C35.4802 25.5043 35.4802 25.5043 35.4149 25.5043C35.3497 25.5043 35.2844 25.5043 35.2844 25.439C35.2191 25.3737 35.2191 25.3737 35.2191 25.3084C35.2191 25.2432 35.2191 25.1779 35.2844 25.1126L35.4149 24.9167ZM35.3497 25.1779C35.2844 25.1779 35.2844 25.1779 35.2191 25.2432C35.2191 25.2432 35.1538 25.3084 35.1538 25.3737C35.1538 25.439 35.1538 25.439 35.2191 25.5043C35.2191 25.5043 35.2844 25.5696 35.3497 25.5696C35.4149 25.5696 35.4149 25.5696 35.4802 25.5043C35.4802 25.5043 35.5455 25.439 35.5455 25.3737C35.5455 25.3084 35.5455 25.3084 35.4802 25.2432C35.4802 25.1779 35.4149 25.1779 35.3497 25.1779Z" fill="white"/>
</g>
</g>
<g opacity="0.9">
<g opacity="0.9">
<path opacity="0.9" d="M34.9581 23.4804L34.8928 22.9581H34.7622V22.8928H34.9581V23.4804Z" fill="white"/>
</g>
<g opacity="0.9">
<path opacity="0.9" d="M35.2845 23.154C35.2845 23.154 35.2192 23.154 35.2845 23.154C35.2192 23.0888 35.2192 23.0888 35.2192 23.0235C35.2192 22.9582 35.2192 22.9582 35.2845 22.8929C35.2845 22.8929 35.3498 22.8276 35.4151 22.8276C35.4804 22.8276 35.4804 22.8276 35.5456 22.8929C35.5456 22.8929 35.6109 22.9582 35.6109 23.0235V23.0888C35.6109 23.0888 35.6109 23.154 35.5456 23.154L35.6109 23.2193V23.2846C35.6109 23.3499 35.6109 23.4152 35.5456 23.4152C35.4804 23.4805 35.4804 23.4804 35.4151 23.4804C35.3498 23.4804 35.3498 23.4805 35.2845 23.4152C35.2192 23.3499 35.2192 23.3499 35.2192 23.2846C35.2192 23.2193 35.2192 23.2193 35.2192 23.2193C35.2192 23.2193 35.2192 23.2193 35.2845 23.154ZM35.2845 23.3499C35.2845 23.4152 35.2845 23.4152 35.3498 23.4152L35.4151 23.4804C35.4804 23.4804 35.4804 23.4805 35.4804 23.4152L35.5456 23.3499C35.5456 23.2846 35.5456 23.2846 35.4804 23.2846L35.4151 23.2193C35.3498 23.2193 35.3498 23.2193 35.3498 23.2846C35.2845 23.2846 35.2845 23.2846 35.2845 23.3499ZM35.2845 23.0235V23.0888H35.3498C35.4151 23.0888 35.4151 23.0888 35.4151 23.0888V23.0235V22.9582H35.3498H35.2845C35.2845 23.0235 35.2845 23.0235 35.2845 23.0235Z" fill="white"/>
</g>
</g>
<g opacity="0.9">
<path opacity="0.9" d="M37.7651 41.5633H37.3734V41.498L37.5692 41.3021C37.6345 41.2369 37.6345 41.2369 37.6345 41.2369V41.1716C37.6345 41.1063 37.6345 41.1063 37.5692 41.1063L37.5039 41.041C37.4387 41.041 37.4387 41.041 37.4387 41.1063C37.4387 41.1063 37.3734 41.1716 37.3734 41.2369H37.3081C37.3081 41.1716 37.3081 41.1063 37.3734 41.1063C37.4387 41.041 37.4387 41.041 37.5039 41.041C37.5692 41.041 37.5692 41.041 37.6345 41.1063C37.6998 41.1716 37.6998 41.1716 37.6998 41.2369V41.3021L37.6345 41.3674L37.4387 41.5633H37.7651Z" fill="white"/>
<path opacity="0.9" d="M37.8306 41.3675V41.1717C37.8306 41.1064 37.8306 41.1064 37.8306 41.1064V41.0411L37.8958 40.9758H37.9611C38.0264 40.9758 38.0917 40.9758 38.0917 41.0411C38.157 41.1064 38.157 41.1064 38.157 41.1717V41.3675V41.4328V41.4981L38.0917 41.5634H38.0264C37.9611 41.5634 37.9611 41.5634 37.9611 41.5634L37.8958 41.4981V41.4328L37.8306 41.3675ZM37.8958 41.3675C37.8958 41.4328 37.8958 41.4328 37.9611 41.4981C37.9611 41.4981 38.0264 41.5634 38.0917 41.5634C38.157 41.5634 38.157 41.5634 38.2223 41.4981C38.2223 41.4981 38.2875 41.4328 38.2875 41.3675V41.1717C38.2875 41.1064 38.2875 41.1064 38.2223 41.0411C38.2223 41.0411 38.157 40.9758 38.0917 40.9758C38.0264 40.9758 38.0264 40.9758 37.9611 41.0411C37.9611 41.0411 37.8958 41.1064 37.8958 41.1717V41.3675Z" fill="white"/>
<path opacity="0.9" d="M38.5485 41.5634L38.4832 41.0411H38.418V40.9758H38.5485V41.5634Z" fill="white"/>
<path opacity="0.9" d="M39.0054 41.5634L38.9401 41.0411H38.8096V40.9758H38.9401V41.5634H39.0054Z" fill="white"/>
</g>
<g opacity="0.9">
<path opacity="0.9" d="M62.1802 41.5634L62.1149 41.0411H61.9844V40.9758H62.1149V41.5634H62.1802Z" fill="white"/>
<path opacity="0.9" d="M62.5721 41.5634L62.768 41.0411H62.5068V40.9758H62.8332V41.0411L62.5721 41.5634Z" fill="white"/>
</g>
<g opacity="0.9">
<path opacity="0.9" d="M41.6821 41.5633H41.2904V41.498L41.4862 41.3021C41.5515 41.2369 41.5515 41.2369 41.5515 41.2369V41.1716C41.5515 41.1063 41.5515 41.1063 41.4862 41.1063L41.4209 41.041C41.3557 41.041 41.3557 41.041 41.3557 41.1063C41.3557 41.1063 41.2904 41.1716 41.2904 41.2369H41.2251C41.2251 41.1716 41.2251 41.1063 41.2904 41.1063C41.3557 41.041 41.3557 41.041 41.4209 41.041C41.4862 41.041 41.4862 41.041 41.5515 41.1063C41.6168 41.1716 41.6168 41.1716 41.6168 41.2369V41.3021L41.5515 41.3674L41.3557 41.5633H41.6821Z" fill="white"/>
<path opacity="0.9" d="M41.7476 41.3675V41.1717C41.7476 41.1064 41.7476 41.1064 41.7476 41.1064V41.0411L41.8128 40.9758H41.8781C41.9434 40.9758 42.0087 40.9758 42.0087 41.0411C42.074 41.1064 42.074 41.1064 42.074 41.1717V41.3675V41.4328V41.4981L42.0087 41.5634H41.9434C41.8781 41.5634 41.8781 41.5634 41.8781 41.5634L41.8128 41.4981V41.4328C41.7476 41.4328 41.7476 41.3675 41.7476 41.3675ZM41.8128 41.3675C41.8128 41.4328 41.8128 41.4328 41.8781 41.4981C41.8781 41.4981 41.9434 41.5634 42.0087 41.5634C42.074 41.5634 42.074 41.5634 42.1392 41.4981C42.1392 41.4981 42.2045 41.4328 42.2045 41.3675V41.1717C42.2045 41.1064 42.2045 41.1064 42.1392 41.0411C42.1392 41.0411 42.074 40.9758 42.0087 40.9758C41.9434 40.9758 41.9434 40.9758 41.8781 41.0411C41.8781 41.0411 41.8128 41.1064 41.8128 41.1717V41.3675Z" fill="white"/>
<path opacity="0.9" d="M42.4654 41.5634L42.4001 41.0411H42.2695V40.9758H42.4001V41.5634H42.4654Z" fill="white"/>
<path opacity="0.9" d="M43.0532 41.5633H42.6615V41.498L42.8573 41.3021C42.9226 41.2369 42.9226 41.2369 42.9226 41.2369V41.1716C42.9226 41.1063 42.9226 41.1063 42.8573 41.1063L42.792 41.041C42.7268 41.041 42.7268 41.041 42.7268 41.1063C42.7268 41.1063 42.6615 41.1716 42.6615 41.2369H42.5962C42.5962 41.1716 42.5962 41.1063 42.6615 41.1063C42.7268 41.041 42.7268 41.041 42.792 41.041C42.8573 41.041 42.8573 41.041 42.9226 41.1063C42.9879 41.1716 42.9879 41.1716 42.9879 41.2369V41.3021L42.9226 41.3674L42.7268 41.5633H43.0532Z" fill="white"/>
</g>
<g opacity="0.9">
<path opacity="0.9" d="M45.7294 41.5635H45.3377V41.4982L45.5336 41.3024C45.5989 41.2371 45.5989 41.2371 45.5989 41.2371V41.1718C45.5989 41.1065 45.5989 41.1065 45.5336 41.1065L45.4683 41.0413C45.403 41.0413 45.403 41.0413 45.403 41.1065C45.403 41.1065 45.3377 41.1718 45.3377 41.2371H45.2725C45.2725 41.1718 45.2725 41.1065 45.3377 41.1065C45.403 41.0413 45.403 41.0413 45.4683 41.0413C45.5336 41.0413 45.5336 41.0413 45.5989 41.1065C45.6641 41.1718 45.6641 41.1718 45.6641 41.2371V41.3024L45.5989 41.3677L45.403 41.5635H45.7294Z" fill="white"/>
<path opacity="0.9" d="M45.7949 41.3675V41.1717C45.7949 41.1064 45.7949 41.1064 45.7949 41.1064V41.0411L45.8602 40.9758H45.9255C45.9908 40.9758 46.056 40.9758 46.056 41.0411C46.1213 41.1064 46.1213 41.1064 46.1213 41.1717V41.3675V41.4328V41.4981L46.056 41.5634H45.9908C45.9255 41.5634 45.9255 41.5634 45.9255 41.5634L45.8602 41.4981V41.4328C45.7949 41.4328 45.7949 41.3675 45.7949 41.3675ZM45.8602 41.3675C45.8602 41.4328 45.8602 41.4328 45.9255 41.4981C45.9255 41.4981 45.9908 41.5634 46.056 41.5634C46.1213 41.5634 46.1213 41.5634 46.1866 41.4981C46.1866 41.4981 46.2519 41.4328 46.2519 41.3675V41.1717C46.2519 41.1064 46.2519 41.1064 46.1866 41.0411C46.1866 41.0411 46.1213 40.9758 46.056 40.9758C45.9908 40.9758 45.9908 40.9758 45.9255 41.0411C45.9255 41.0411 45.8602 41.1064 45.8602 41.1717V41.3675Z" fill="white"/>
<path opacity="0.9" d="M46.5127 41.5634L46.4475 41.0411H46.3169V40.9758H46.4475V41.5634H46.5127Z" fill="white"/>
<path opacity="0.9" d="M46.7738 41.3676C46.7738 41.4329 46.7738 41.4329 46.8391 41.4982L46.9043 41.5635C46.9696 41.5635 46.9696 41.5635 46.9696 41.4982L47.0349 41.4329C47.0349 41.3676 47.0349 41.3676 46.9696 41.3023C46.9696 41.3023 46.9043 41.2371 46.8391 41.2371V41.1718C46.9043 41.1718 46.9043 41.1718 46.9043 41.1718V41.1065V41.0412H46.8391H46.7738V41.1065H46.7085C46.7085 41.0412 46.7085 41.0412 46.7738 40.9759C46.7738 40.9759 46.8391 40.9106 46.9043 40.9106C46.9696 40.9106 46.9696 40.9106 47.0349 40.9759C47.0349 40.9759 47.1002 41.0412 47.1002 41.1065V41.1718C47.1002 41.1718 47.1002 41.2371 47.0349 41.2371L47.1002 41.3023V41.3676C47.1002 41.4329 47.1002 41.4982 47.0349 41.4982C46.9696 41.5635 46.9696 41.5635 46.9043 41.5635C46.8391 41.5635 46.7738 41.5635 46.7738 41.4982C46.7738 41.4982 46.7738 41.4329 46.7738 41.3676Z" fill="white"/>
</g>
<g opacity="0.9">
<path opacity="0.9" d="M49.581 41.5635H49.1893V41.4982L49.3851 41.3024C49.4504 41.2371 49.4504 41.2371 49.4504 41.2371V41.1718C49.4504 41.1065 49.4504 41.1065 49.3851 41.1065L49.3199 41.0413C49.2546 41.0413 49.2546 41.0413 49.2546 41.1065C49.2546 41.1065 49.1893 41.1718 49.1893 41.2371H49.124C49.124 41.1718 49.124 41.1065 49.1893 41.1065C49.2546 41.0413 49.2546 41.0413 49.3199 41.0413C49.3851 41.0413 49.3852 41.0413 49.4504 41.1065C49.5157 41.1718 49.5157 41.1718 49.5157 41.2371V41.3024L49.4504 41.3677L49.2546 41.5635H49.581Z" fill="white"/>
</g>
<g opacity="0.9">
<path opacity="0.9" d="M65.1179 41.5634H64.7915V41.4981L64.9873 41.3022C65.0526 41.237 65.0526 41.237 65.0526 41.237V41.1717C65.0526 41.1064 65.0526 41.1064 64.9873 41.1064L64.9221 41.0411C64.8568 41.0411 64.8568 41.0411 64.8568 41.1064V41.1717H64.7915C64.7915 41.1064 64.7915 41.0411 64.8568 41.0411C64.9221 40.9758 64.9221 40.9758 64.9873 40.9758C65.0526 40.9758 65.0526 40.9758 65.1179 41.0411C65.1832 41.1064 65.1832 41.1064 65.1832 41.1717V41.237L65.1179 41.3022L64.9221 41.4981L65.1179 41.5634Z" fill="white"/>
<path opacity="0.9" d="M65.1831 41.3675V41.1717C65.1831 41.1064 65.1831 41.1064 65.1831 41.1064V41.0411L65.2484 40.9758H65.3137C65.3789 40.9758 65.4442 40.9758 65.4442 41.0411C65.5095 41.1064 65.5095 41.1064 65.5095 41.1717V41.3675V41.4328V41.4981L65.4442 41.5634H65.3789H65.3137C65.3137 41.5634 65.2484 41.5634 65.2484 41.4981C65.2484 41.4981 65.2484 41.4981 65.2484 41.4328C65.1831 41.4328 65.1831 41.4328 65.1831 41.3675Z" fill="white"/>
<path opacity="0.9" d="M65.2485 41.3675C65.2485 41.4328 65.2485 41.4328 65.3138 41.4981C65.3138 41.4981 65.3791 41.5634 65.4444 41.5634C65.5097 41.5634 65.5097 41.5634 65.5749 41.4981C65.5749 41.4981 65.6402 41.4328 65.6402 41.3675V41.1717C65.6402 41.1064 65.6402 41.1064 65.5749 41.0411C65.5749 41.0411 65.5097 40.9758 65.4444 40.9758C65.3791 40.9758 65.3791 40.9758 65.3138 41.0411C65.3138 41.0411 65.2485 41.1064 65.2485 41.1717V41.3675Z" fill="white"/>
<path opacity="0.9" d="M65.8361 41.5634L65.7708 41.0411H65.7056V40.9758H65.8361V41.5634Z" fill="white"/>
<path opacity="0.9" d="M66.1624 41.2371C66.1624 41.2371 66.0972 41.2371 66.1624 41.2371C66.0972 41.1718 66.0972 41.1718 66.0972 41.1065C66.0972 41.0412 66.0972 41.0412 66.1624 40.9759C66.1624 40.9759 66.2277 40.9106 66.293 40.9106C66.3583 40.9106 66.3583 40.9106 66.4236 40.9759C66.4236 40.9759 66.4889 41.0412 66.4889 41.1065V41.1718C66.4889 41.1718 66.4889 41.2371 66.4236 41.2371L66.4889 41.3023V41.3676C66.4889 41.4329 66.4889 41.4329 66.4236 41.4982C66.3583 41.5635 66.3583 41.5635 66.293 41.5635C66.2277 41.5635 66.2277 41.5635 66.1624 41.4982C66.0972 41.4329 66.0972 41.4329 66.0972 41.3676C66.0972 41.3676 66.0972 41.3676 66.1624 41.2371C66.0972 41.3023 66.1624 41.3023 66.1624 41.2371ZM66.1624 41.4329C66.1624 41.4982 66.1624 41.4982 66.2277 41.4982L66.293 41.5635C66.3583 41.5635 66.3583 41.5635 66.3583 41.4982L66.4236 41.4329C66.4236 41.3676 66.4236 41.3676 66.3583 41.3676L66.293 41.3023C66.2277 41.3023 66.2277 41.3023 66.2277 41.3676C66.1624 41.3023 66.1624 41.3676 66.1624 41.4329ZM66.1624 41.1065V41.1718H66.2277C66.293 41.1718 66.293 41.1718 66.293 41.1718V41.1065V41.0412H66.2277C66.2277 41.0412 66.2277 41.0412 66.1624 41.1065Z" fill="white"/>
</g>
<g opacity="0.9">
<path opacity="0.9" d="M46.317 34.5784L43.3794 38.2994L40.7028 34.0562L37.5693 40.519H37.7652L40.7028 34.3826L43.3794 38.5606L46.3823 34.7742C46.3823 34.7742 46.3823 34.709 46.317 34.5784Z" fill="white"/>
</g>
<g opacity="0.9">
<path opacity="0.9" d="M49.1896 40.519H35.9375V40.6496H49.3202C49.2549 40.5843 49.1896 40.5843 49.1896 40.519Z" fill="white"/>
<path opacity="0.9" d="M62.4418 40.519C62.4418 40.5843 62.3765 40.5843 62.3765 40.6496H66.8809V40.519H62.4418Z" fill="white"/>
</g>
</g>
<g opacity="0.9">
<g opacity="0.9">
<path opacity="0.9" d="M53.7588 39.1479H53.563V40.4536H53.7588V39.1479Z" fill="white"/>
</g>
<g opacity="0.9">
<path opacity="0.9" d="M62.3106 39.1479H62.1147V40.4536H62.3106V39.1479Z" fill="white"/>
</g>
<g opacity="0.9">
<path opacity="0.9" d="M65.5748 35.6882H47.3613C47.3613 35.7535 47.4266 35.8188 47.4266 35.8841H65.5095C65.5095 35.8841 65.5748 35.7535 65.5748 35.6882Z" fill="white"/>
</g>
<g opacity="0.9">
<path opacity="0.9" d="M65.4443 31.4448H46.5127C46.5127 31.5101 46.5127 31.5754 46.5127 31.6407H65.5096C65.4443 31.5754 65.4443 31.5101 65.4443 31.4448Z" fill="white"/>
</g>
<g opacity="0.9">
<path opacity="0.9" d="M48.1446 27.3975C48.0793 27.4627 48.014 27.528 47.9487 27.5933H63.8121C63.7468 27.528 63.7468 27.4627 63.6815 27.3975H48.1446Z" fill="white"/>
</g>
<g opacity="0.9">
<path opacity="0.9" d="M50.6255 41.4982H50.7561C50.7561 41.5634 50.8213 41.6287 50.8213 41.694C50.8866 41.7593 50.9519 41.7593 51.0172 41.7593C51.0825 41.7593 51.1477 41.7593 51.213 41.694C51.2783 41.6287 51.2783 41.5634 51.2783 41.4329C51.2783 41.3676 51.2783 41.237 51.213 41.1718C51.1477 41.1065 51.0825 41.1065 50.9519 41.1065C50.8866 41.1065 50.8213 41.1065 50.8213 41.1718C50.756 41.1718 50.756 41.237 50.6908 41.3023L50.6255 41.237L50.7561 40.5842H51.3436V40.7148H50.8866L50.8213 41.1065C50.8866 41.1065 50.8866 41.0412 50.9519 41.0412C51.0172 41.0412 51.0172 41.0412 51.0825 41.0412C51.213 41.0412 51.2783 41.1065 51.4089 41.1718C51.4741 41.237 51.5394 41.3676 51.5394 41.4982C51.5394 41.6287 51.4741 41.694 51.4089 41.8246C51.3436 41.8899 51.213 41.9551 51.0825 41.9551C50.9519 41.9551 50.8866 41.8899 50.8213 41.8246C50.6908 41.694 50.6255 41.6287 50.6255 41.4982Z" fill="white"/>
</g>
<g opacity="0.9">
<path opacity="0.9" d="M56.3703 41.8899H55.5869V41.7593L56.0439 41.3676C56.1092 41.3023 56.1744 41.237 56.2397 41.1718C56.2397 41.1065 56.305 41.0412 56.305 41.0412C56.305 40.9759 56.305 40.9106 56.2397 40.8454C56.1744 40.7801 56.1092 40.7801 56.0439 40.7801C55.9786 40.7801 55.9133 40.7801 55.848 40.8454C55.7828 40.9106 55.7828 40.9759 55.7828 41.0412H55.6522C55.6522 40.9106 55.7175 40.7801 55.7828 40.7148C55.848 40.6495 55.9786 40.5842 56.0439 40.5842C56.1744 40.5842 56.2397 40.6495 56.305 40.7148C56.3703 40.7801 56.4356 40.9106 56.4356 40.9759C56.4356 41.0412 56.4356 41.1065 56.3703 41.1718C56.3703 41.237 56.305 41.3023 56.2397 41.3676L55.848 41.7593H56.4356V41.8899H56.3703Z" fill="white"/>
<path opacity="0.9" d="M56.501 41.433V41.0413C56.501 40.976 56.501 40.9107 56.501 40.8454C56.501 40.7802 56.501 40.7802 56.5663 40.7149C56.6315 40.6496 56.6315 40.6496 56.6968 40.5843C56.7621 40.5843 56.8274 40.519 56.8927 40.519C57.0232 40.519 57.1538 40.5843 57.2191 40.6496C57.3496 40.7802 57.3496 40.9107 57.3496 41.0413V41.433C57.3496 41.4983 57.3496 41.5635 57.3496 41.6288C57.3496 41.6941 57.3496 41.6941 57.2844 41.7594C57.2191 41.8247 57.2191 41.8899 57.1538 41.8899C57.0885 41.8899 57.0232 41.9552 56.9579 41.9552C56.8927 41.9552 56.8274 41.9552 56.7621 41.8899C56.6968 41.8899 56.6315 41.8247 56.6315 41.7594C56.6315 41.7594 56.5663 41.6941 56.5663 41.6288C56.501 41.5635 56.501 41.4983 56.501 41.433ZM56.6315 41.433C56.6315 41.5635 56.6315 41.6288 56.6968 41.6941C56.7621 41.7594 56.8274 41.7594 56.8927 41.7594C56.9579 41.7594 57.0885 41.7594 57.0885 41.6941C57.1538 41.6288 57.1538 41.5635 57.1538 41.433V40.976C57.1538 40.8455 57.1538 40.7802 57.0885 40.7149C57.0232 40.6496 56.9579 40.6496 56.8927 40.6496C56.8274 40.6496 56.6968 40.6496 56.6968 40.7149C56.6315 40.7802 56.6315 40.8455 56.6315 40.976V41.433Z" fill="white"/>
<path opacity="0.9" d="M58.0022 41.8899H57.8716V40.7148H57.6758V40.5842H58.0022V41.8899Z" fill="white"/>
<path opacity="0.9" d="M58.9817 40.6497H59.1123L58.8512 41.1066H58.9164H58.9817C59.1123 41.1066 59.1776 41.1719 59.2428 41.2372C59.3081 41.3025 59.3734 41.433 59.3734 41.5636C59.3734 41.6942 59.3081 41.7594 59.2428 41.89C59.1776 41.9553 59.047 42.0206 58.9164 42.0206C58.7859 42.0206 58.7206 41.9553 58.59 41.89C58.5248 41.8247 58.4595 41.6942 58.4595 41.5636C58.4595 41.433 58.5248 41.3025 58.59 41.1719C58.59 41.1719 58.59 41.1719 58.59 41.1066L58.9817 40.6497ZM58.9817 41.1719C58.9164 41.1719 58.8512 41.1719 58.7859 41.2372C58.6553 41.3025 58.6553 41.3678 58.6553 41.4983C58.6553 41.5636 58.6553 41.6289 58.7206 41.6942C58.7859 41.7594 58.8512 41.7594 58.9164 41.7594C58.9817 41.7594 59.047 41.7594 59.1123 41.6942C59.1776 41.6289 59.1776 41.5636 59.1776 41.4983C59.1776 41.433 59.1776 41.3025 59.1123 41.3025C59.1123 41.1719 59.047 41.1719 58.9817 41.1719Z" fill="white"/>
</g>
<g opacity="0.9">
<path opacity="0.9" d="M63.4858 33.2076L60.4176 24.3293C60.287 24.264 60.1564 24.264 60.0259 24.1987L63.3552 33.7298L65.5748 31.9019C65.5748 31.7714 65.5095 31.6408 65.5095 31.5102L63.4858 33.2076Z" fill="white"/>
<path opacity="0.9" d="M55.7175 23.9375L53.3021 33.8603L48.9282 26.3529C48.4712 27.1363 47.8837 27.7238 47.2309 28.1155L46.9045 28.5725C46.8392 28.8336 46.7739 29.0947 46.7739 29.2906L48.7976 26.7446L53.4326 34.7089L56.0439 23.9375C55.9133 23.9375 55.848 23.9375 55.7175 23.9375Z" fill="white"/>
</g>
<g opacity="0.9">
<path opacity="0.9" d="M63.1596 39.6702H48.7324C48.7977 39.7354 48.7977 39.8007 48.863 39.866H62.9637C63.029 39.8007 63.0943 39.7354 63.1596 39.6702Z" fill="white"/>
</g>
</g>
<path opacity="0.2" d="M57.9369 24.8516C62.4413 26.1572 65.0526 30.8575 63.7469 35.4271C62.4413 39.9316 57.7411 42.5428 53.1714 41.2372C48.667 39.9316 46.0557 35.2313 47.3613 30.6616C48.667 26.1572 53.4325 23.5459 57.9369 24.8516Z" fill="white"/>
<path d="M45.5988 30.1393C44.032 35.6229 47.1655 41.3676 52.7144 42.9997C58.1981 44.5664 63.9428 41.4329 65.5748 35.884C67.1416 30.4004 64.0081 24.6556 58.4592 23.0236C52.9755 21.4569 47.2308 24.6556 45.5988 30.1393ZM57.9369 24.8515C62.4413 26.1571 65.0526 30.8574 63.747 35.3618C62.4413 39.8662 57.7411 42.4774 53.2367 41.1718C48.7323 39.8662 46.121 35.1659 47.4266 30.6615C48.7323 26.1571 53.4325 23.6111 57.9369 24.8515Z" fill="#253C68"/>
<path opacity="0.3" d="M52.3229 26.614C53.9549 27.071 54.673 29.6822 53.8896 32.3588C53.1063 35.0353 51.1478 36.8632 49.4505 36.4062C47.8185 35.9492 47.1004 33.338 47.8838 30.6614C48.7324 27.9849 50.6909 26.157 52.3229 26.614Z" fill="white"/>
<path opacity="0.15" d="M51.7352 38.8869C51.2129 39.2786 50.1684 38.6258 49.3198 37.516C48.4711 36.4062 48.21 35.1659 48.7323 34.8395C49.2545 34.4478 50.299 35.1006 51.1477 36.2104C51.931 37.3202 52.1922 38.4952 51.7352 38.8869Z" fill="white"/>
<path d="M64.3009 38.3155L62.5513 40.3408L68.2321 45.2484L69.9817 43.223L64.3009 38.3155Z" fill="#253C68"/>
<path d="M66.6196 44.8276L71.5157 49.0056C72.3644 49.7237 73.67 49.6584 74.4534 48.8097C75.1715 47.9611 75.1062 46.6555 74.2575 45.8721L69.3614 41.6941L66.6196 44.8276Z" fill="#253C68"/>
<path d="M72.291 44.2868L69.6025 47.3989L70.2447 47.9537L72.9332 44.8416L72.291 44.2868Z" fill="white"/>
<path d="M33.3262 37.7117H12.8932C11.8487 37.7117 11 38.5603 11 39.6701V55.7946C11 56.8391 11.8487 57.753 12.8932 57.753H33.3262C34.3707 57.753 35.2194 56.9044 35.2194 55.7946V39.6048C35.2194 38.5603 34.3707 37.7117 33.3262 37.7117Z" fill="#253C68"/>
<path d="M32.804 38.2993H13.4807C12.4362 38.2993 11.6528 39.0827 11.6528 40.1272V55.2724C11.6528 56.2517 12.4362 57.1003 13.4807 57.1003H32.804C33.7832 57.1003 34.6318 56.3169 34.6318 55.2724V40.1272C34.6318 39.0827 33.7832 38.2993 32.804 38.2993Z" fill="#F28393"/>
<path d="M32.6082 39.9312H13.6113V55.4681H32.6082V39.9312Z" fill="white"/>
<path d="M16.9405 52.4653H16.0918V54.5543H16.9405V52.4653Z" fill="#389DC9"/>
<path d="M18.0503 51.6819H17.2017V54.5543H18.0503V51.6819Z" fill="#FDB813"/>
<path d="M19.2256 50.7681H18.377V54.5544H19.2256V50.7681Z" fill="#FF9284"/>
<path d="M20.3355 49.854H19.4868V54.6195H20.3355V49.854Z" fill="#389DC9"/>
<path d="M15.8309 51.9429L15.7656 51.8776L19.2908 49.2664V49.3316L15.8309 51.9429Z" fill="black"/>
<path d="M19.2911 49.6581H19.2258V49.3317L18.8994 49.2665V49.2012L19.3564 49.2665L19.2911 49.6581Z" fill="black"/>
<path d="M15.7653 44.5661C15.7653 43.3911 16.5487 42.4771 17.6585 42.1507L17.3321 41.4326C15.9612 41.8243 14.9819 43.0647 14.9819 44.5661C14.9819 44.6967 14.9819 44.8272 15.0472 44.9578H15.8959C15.8306 44.8272 15.7653 44.6967 15.7653 44.5661Z" fill="#389DC9"/>
<path d="M18.4418 41.4326C18.1807 41.4326 17.9195 41.4979 17.7237 41.4979L18.0501 42.2813C18.1807 42.2813 18.3112 42.216 18.4418 42.216C19.8127 42.216 20.9225 43.3258 20.9225 44.6967C20.9225 46.0676 19.8127 47.1774 18.4418 47.1774C17.2667 47.1774 16.2875 46.394 16.0264 45.2842H15.1777C15.4389 46.851 16.8098 48.026 18.4418 48.026C20.2697 48.026 21.7059 46.5246 21.7059 44.6967C21.7711 42.9341 20.2697 41.4326 18.4418 41.4326Z" fill="#FDB813"/>
<path d="M24.7091 51.0945H24.3174V54.4238H24.7091V51.0945Z" fill="#FDB813"/>
<path d="M25.4923 48.875H25.1006V54.4239H25.4923V48.875Z" fill="#389DC9"/>
<path d="M26.276 52.2041H25.8843V54.4237H26.276V52.2041Z" fill="#FF9284"/>
<path d="M26.9937 50.8333H26.6021V54.4237H26.9937V50.8333Z" fill="#389DC9"/>
<path d="M27.7774 50.1804H27.3857V54.4237H27.7774V50.1804Z" fill="#FDB813"/>
<path d="M28.5606 48.7444H28.1689V54.4239H28.5606V48.7444Z" fill="#FDB813"/>
<path d="M29.3438 51.2251H28.9521V54.4239H29.3438V51.2251Z" fill="#FF9284"/>
<path d="M30.1275 47.9609H29.7358V54.4238H30.1275V47.9609Z" fill="#389DC9"/>
<path d="M30.8453 51.1597H30.4536V54.489H30.8453V51.1597Z" fill="#FDB813"/>
<path d="M25.1659 54.4238H25.1006V54.5544H25.1659V54.4238Z" fill="#524641"/>
<path d="M25.9491 54.4238H25.8838V54.5544H25.9491V54.4238Z" fill="#524641"/>
<path d="M26.6673 54.4238H26.6021V54.5544H26.6673V54.4238Z" fill="#524641"/>
<path d="M27.4505 54.4238H27.3853V54.5544H27.4505V54.4238Z" fill="#524641"/>
<path d="M28.2342 54.4238H28.1689V54.5544H28.2342V54.4238Z" fill="#524641"/>
<path d="M29.0174 54.4238H28.9521V54.5544H29.0174V54.4238Z" fill="#524641"/>
<path d="M29.8006 54.4238H29.7354V54.5544H29.8006V54.4238Z" fill="#524641"/>
<path d="M31.3677 54.4238H23.6646V54.4891H31.3677V54.4238Z" fill="#524641"/>
<path opacity="0.6" d="M30.5193 42.6077H22.8813V42.7382H30.5193V42.6077Z" fill="#D6D2C7"/>
<path opacity="0.6" d="M30.5193 43.4563H22.8813V43.5869H30.5193V43.4563Z" fill="#D6D2C7"/>
<path opacity="0.6" d="M30.5193 44.3049H22.8813V44.4355H30.5193V44.3049Z" fill="#D6D2C7"/>
<path opacity="0.6" d="M30.5193 45.1538H22.8813V45.2844H30.5193V45.1538Z" fill="#D6D2C7"/>
<path opacity="0.6" d="M30.5193 46.0024H22.8813V46.133H30.5193V46.0024Z" fill="#D6D2C7"/>
<path opacity="0.6" d="M30.5193 46.8511H22.8813V46.9816H30.5193V46.8511Z" fill="#D6D2C7"/>
<path d="M81.3083 57.1655V58.4712H68.1214L66.5547 57.8183L68.1214 57.1655H81.3083Z" fill="#389DC9"/>
<path d="M68.1211 57.1655V58.4059L80.5898 58.4712V57.1655H68.1211Z" fill="#FF9284"/>
<path d="M66.4893 57.8184L68.056 58.4712H68.1213H68.4477H80.4595H81.4387V57.1003H80.4595H68.4477H68.3171H68.1213L66.4893 57.8184ZM66.9462 57.8184L68.1213 57.2962V58.3407L66.9462 57.8184ZM81.1775 57.2962V58.406H80.6553V57.2962H81.1775ZM80.3942 58.3407H68.3171V57.2309H80.3942V58.3407Z" fill="#253C68"/>
<path d="M64.9873 57.1655V55.8599H78.1741L79.7409 56.5127L78.1741 57.1655H64.9873Z" fill="#389DC9"/>
<path d="M78.109 57.1002V55.8599H65.7056V57.1002H78.109Z" fill="#FF9284"/>
<path d="M79.8063 56.4475L78.2396 55.7947H78.1743H77.8479H65.8362H64.8569V57.1656H65.8362H77.8479H77.9785H78.1743L79.8063 56.4475ZM79.3494 56.4475L78.1743 56.9697V55.9252L79.3494 56.4475ZM65.1181 57.035V55.9252H65.6403V57.035H65.1181ZM65.9014 55.9252H77.9785V57.035H65.9014V55.9252Z" fill="#253C68"/>
</svg>
