<svg xmlns="http://www.w3.org/2000/svg" width="26.137" height="25.984" viewBox="0 0 26.137 25.984">
  <g id="stats" transform="translate(0 -1.5)">
    <path id="Path_1075" data-name="Path 1075" d="M60.492,318.5H56.408a.408.408,0,0,0-.408.408v8.985a.408.408,0,0,0,.408.408h4.084a.408.408,0,0,0,.408-.408v-8.985A.408.408,0,0,0,60.492,318.5Z" transform="translate(-53.141 -300.817)" fill="#94ccf8"/>
    <g id="Group_652" data-name="Group 652" transform="translate(2.859 15.641)">
      <path id="Path_1076" data-name="Path 1076" d="M57.225,327.893v-8.985a.408.408,0,0,1,.408-.408H56.408a.408.408,0,0,0-.408.408v8.985a.408.408,0,0,0,.408.408h1.225A.408.408,0,0,1,57.225,327.893Z" transform="translate(-56 -316.458)" fill="#2196f3"/>
      <path id="Path_1077" data-name="Path 1077" d="M212.492,278.5h-4.084a.408.408,0,0,0-.408.408v11.027a.408.408,0,0,0,.408.408h4.084a.408.408,0,0,0,.408-.408V278.908A.408.408,0,0,0,212.492,278.5Z" transform="translate(-200.241 -278.5)" fill="#51b0fb"/>
    </g>
    <g id="Group_653" data-name="Group 653" transform="translate(10.618 11.148)">
      <path id="Path_1078" data-name="Path 1078" d="M209.225,289.935V278.908a.408.408,0,0,1,.408-.408h-1.225a.408.408,0,0,0-.408.408v11.027a.408.408,0,0,0,.408.408h1.225A.408.408,0,0,1,209.225,289.935Z" transform="translate(-208 -274.008)" fill="#0082e9"/>
      <path id="Path_1079" data-name="Path 1079" d="M364.492,190.5h-4.084a.408.408,0,0,0-.408.408v15.519a.408.408,0,0,0,.408.408h4.084a.408.408,0,0,0,.408-.408V190.908A.408.408,0,0,0,364.492,190.5Z" transform="translate(-352.241 -190.5)" fill="#0b8ef6"/>
    </g>
    <path id="Path_1080" data-name="Path 1080" d="M361.225,206.427V190.908a.408.408,0,0,1,.408-.408h-1.225a.408.408,0,0,0-.408.408v15.519a.408.408,0,0,0,.408.408h1.225A.408.408,0,0,1,361.225,206.427Z" transform="translate(-341.622 -179.352)" fill="#0165b4"/>
    <path id="Path_1081" data-name="Path 1081" d="M25.729,495.317H.408a.408.408,0,1,1,0-.817h25.32a.408.408,0,1,1,0,.817Z" transform="translate(0 -467.833)" fill="#aab4bd"/>
    <path id="Path_1082" data-name="Path 1082" d="M39.819,1.7a.817.817,0,0,0-.642-.2l-3.267.408a.817.817,0,0,0,.2,1.621l1.229-.154A29.2,29.2,0,0,1,24.41,12.5a27.9,27.9,0,0,1-7.619,1.658.817.817,0,0,0,.025,1.633h.025a28.918,28.918,0,0,0,8.06-1.732,31.715,31.715,0,0,0,7.368-3.753,29.886,29.886,0,0,0,6.192-5.715v.991a.817.817,0,1,0,1.634,0V2.317A.817.817,0,0,0,39.819,1.7Z" transform="translate(-15.184)" fill="#55697a"/>
  </g>
</svg>
