<svg width="89" height="78" viewBox="0 0 89 78" fill="none" xmlns="http://www.w3.org/2000/svg">
<g clip-path="url(#clip0)">
<path d="M80.3875 24.0292C80.3875 25.5388 79.5262 26.4195 77.8036 26.4195H11.1972C9.47457 26.4195 8.61328 25.5388 8.61328 24.0292V21.3872C8.61328 19.8775 9.47457 18.8711 11.1972 18.8711H77.8036C79.5262 18.8711 80.3875 19.8775 80.3875 21.3872V24.0292Z" fill="#112827"/>
<path d="M87.5646 20.6323C87.5646 22.1419 85.4114 23.9032 83.8323 23.9032H5.1678C3.58877 23.9032 1.43555 22.1419 1.43555 20.6323V2.89355C1.43555 1.38387 3.58877 0 5.1678 0H83.8323C85.4114 0 87.5646 1.38387 87.5646 2.89355V20.6323Z" fill="#5C605F"/>
<path d="M1.43555 2.89355C1.43555 1.38387 3.58877 0 5.1678 0H83.8323C85.4114 0 87.5646 1.38387 87.5646 2.89355V20.6323C87.5646 22.1419 85.4114 23.9032 83.8323 23.9032" fill="#4B4F4E"/>
<path d="M10.0488 15.6001C10.0488 15.8517 9.61812 16.1033 9.33102 16.1033C9.04393 16.1033 8.61328 15.8517 8.61328 15.6001V7.8001C8.61328 7.54849 9.04393 7.29688 9.33102 7.29688C9.61812 7.29688 10.0488 7.54849 10.0488 7.8001V15.6001Z" fill="#112827"/>
<path d="M14.3574 15.6001C14.3574 15.8517 13.9267 16.1033 13.6396 16.1033C13.3525 16.1033 12.9219 15.8517 12.9219 15.6001V7.8001C12.9219 7.54849 13.3525 7.29688 13.6396 7.29688C13.9267 7.29688 14.3574 7.54849 14.3574 7.8001V15.6001Z" fill="#112827"/>
<path d="M18.662 15.6001C18.662 15.8517 18.2314 16.1033 17.9443 16.1033C17.6572 16.1033 17.2266 15.8517 17.2266 15.6001V7.8001C17.2266 7.54849 17.6572 7.29688 17.9443 7.29688C18.2314 7.29688 18.662 7.54849 18.662 7.8001V15.6001Z" fill="#112827"/>
<path d="M67.4668 11.9513C67.4668 12.3287 67.1797 12.5803 66.749 12.5803H23.6845C23.2539 12.5803 22.9668 12.3287 22.9668 11.9513C22.9668 11.5739 23.2539 11.3223 23.6845 11.3223H66.6055C67.1797 11.3223 67.4668 11.5739 67.4668 11.9513Z" fill="#FF1F2C"/>
<path d="M67.1785 15.6008C69.6362 15.6008 71.6285 13.8547 71.6285 11.7008C71.6285 9.54687 69.6362 7.80078 67.1785 7.80078C64.7208 7.80078 62.7285 9.54687 62.7285 11.7008C62.7285 13.8547 64.7208 15.6008 67.1785 15.6008Z" fill="#FF1F2C"/>
<path d="M67.1806 13.5867C68.3698 13.5867 69.3338 12.7418 69.3338 11.6996C69.3338 10.6574 68.3698 9.8125 67.1806 9.8125C65.9914 9.8125 65.0273 10.6574 65.0273 11.6996C65.0273 12.7418 65.9914 13.5867 67.1806 13.5867Z" fill="#EB0000"/>
<path d="M68.6156 13.0833C67.7543 13.8382 66.4623 13.8382 65.601 13.0833C64.7398 12.3285 64.7398 11.1962 65.601 10.4414" fill="#FC5959"/>
<path d="M80.2439 11.6996C80.2439 12.706 79.2391 13.5867 78.0907 13.5867C76.9423 13.5867 75.9375 12.706 75.9375 11.6996C75.9375 10.6931 76.9423 9.8125 78.0907 9.8125C79.2391 9.8125 80.2439 10.6931 80.2439 11.6996Z" fill="#FF6565"/>
<path d="M79.5238 13.0833C78.6625 13.8382 77.3705 13.8382 76.5093 13.0833C75.648 12.3285 75.648 11.1962 76.5093 10.4414" fill="#FC5959"/>
<path d="M80.3875 49.5667C80.3875 51.0764 79.5262 52.8377 77.8036 52.8377H11.1972C9.47457 52.8377 8.61328 51.0764 8.61328 49.5667V46.9248C8.61328 45.4151 9.47457 44.0312 11.1972 44.0312H77.8036C79.5262 44.0312 80.3875 45.4151 80.3875 46.9248V49.5667Z" fill="#112827"/>
<path d="M87.5646 46.1718C87.5646 47.6815 85.4114 49.0653 83.8323 49.0653H5.1678C3.58877 49.0653 1.43555 47.6815 1.43555 46.1718V28.4331C1.43555 26.9234 3.58877 25.1621 5.1678 25.1621H83.8323C85.5549 25.1621 87.5646 26.9234 87.5646 28.4331V46.1718Z" fill="#5C605F"/>
<path d="M1.43555 28.4331C1.43555 26.9234 3.58877 25.1621 5.1678 25.1621H83.8323C85.5549 25.1621 87.5646 26.9234 87.5646 28.4331V46.1718C87.5646 47.6815 85.4114 49.0653 83.8323 49.0653" fill="#4B4F4E"/>
<path d="M10.0488 41.1372C10.0488 41.3888 9.61812 41.6404 9.33102 41.6404C9.04393 41.7662 8.61328 41.5146 8.61328 41.1372V33.3372C8.61328 33.0856 9.04393 32.834 9.33102 32.834C9.61812 32.834 10.0488 33.0856 10.0488 33.3372V41.1372Z" fill="#112827"/>
<path d="M14.3544 41.0114C14.3544 41.263 14.0673 41.5146 13.7802 41.5146H13.6367C13.3496 41.5146 13.0625 41.263 13.0625 41.0114V33.3372C13.0625 33.0856 13.3496 32.834 13.6367 32.834H13.7802C14.0673 32.834 14.3544 33.0856 14.3544 33.3372V41.0114Z" fill="#112827"/>
<path d="M18.6611 41.0114C18.6611 41.263 18.374 41.5146 18.0869 41.5146H17.9433C17.6562 41.5146 17.3691 41.263 17.3691 41.0114V33.3372C17.3691 33.0856 17.6562 32.834 17.9433 32.834H18.0869C18.374 32.834 18.6611 33.0856 18.6611 33.3372V41.0114Z" fill="#112827"/>
<path d="M67.0362 37.1115C67.0362 37.4889 66.7491 37.7405 66.3184 37.7405H23.6845C23.2539 37.7405 22.9668 37.4889 22.9668 37.1115C22.9668 36.734 23.2539 36.4824 23.6845 36.4824H66.3184C66.7491 36.4824 67.0362 36.734 67.0362 37.1115Z" fill="#FF1F2C"/>
<path d="M67.1785 41.1379C69.6362 41.1379 71.6285 39.3918 71.6285 37.2379C71.6285 35.084 69.6362 33.3379 67.1785 33.3379C64.7208 33.3379 62.7285 35.084 62.7285 37.2379C62.7285 39.3918 64.7208 41.1379 67.1785 41.1379Z" fill="#FF1F2C"/>
<path d="M67.1806 39.1258C68.3698 39.1258 69.3338 38.2809 69.3338 37.2387C69.3338 36.1964 68.3698 35.3516 67.1806 35.3516C65.9914 35.3516 65.0273 36.1964 65.0273 37.2387C65.0273 38.2809 65.9914 39.1258 67.1806 39.1258Z" fill="#EB0000"/>
<path d="M68.6156 38.6204C67.7543 39.3753 66.4623 39.3753 65.601 38.6204C64.7398 37.8656 64.7398 36.7334 65.601 35.9785" fill="#FC5959"/>
<path d="M80.2439 37.2387C80.2439 38.2451 79.2391 39.1258 78.0907 39.1258C76.9423 39.1258 75.9375 38.2451 75.9375 37.2387C75.9375 36.2322 76.9423 35.3516 78.0907 35.3516C79.2391 35.3516 80.2439 36.2322 80.2439 37.2387Z" fill="#FF6565"/>
<path d="M79.5238 38.6204C78.6625 39.3753 77.3705 39.3753 76.5093 38.6204C75.648 37.8656 75.648 36.7334 76.5093 35.9785" fill="#FC5959"/>
<path d="M80.3875 75.106C80.3875 76.6157 79.5262 77.9996 77.8036 77.9996H11.1972C9.47457 77.9996 8.61328 76.6157 8.61328 75.106V72.4641C8.61328 71.0802 9.47457 70.4512 11.1972 70.4512H77.8036C79.5262 70.4512 80.3875 71.0802 80.3875 72.4641V75.106Z" fill="#112827"/>
<path d="M87.5646 71.7091C87.5646 73.2188 85.4114 74.2252 83.8323 74.2252H5.1678C3.58877 74.2252 1.43555 73.2188 1.43555 71.7091V53.9704C1.43555 52.4607 3.58877 51.5801 5.1678 51.5801H83.8323C85.5549 51.5801 87.5646 52.4607 87.5646 53.9704V71.7091Z" fill="#5C605F"/>
<path d="M1.43555 53.9704C1.43555 52.4607 3.58877 51.5801 5.1678 51.5801H83.8323C85.5549 51.5801 87.5646 52.4607 87.5646 53.9704V71.7091C87.5646 73.2188 85.4114 74.2252 83.8323 74.2252" fill="#4B4F4E"/>
<path d="M10.0488 66.6763C10.0488 66.9279 9.61812 67.1795 9.33102 67.1795C9.04393 67.3053 8.61328 67.0537 8.61328 66.6763V58.8763C8.61328 58.6247 9.04393 58.373 9.33102 58.373C9.61812 58.373 10.0488 58.6247 10.0488 58.8763V66.6763Z" fill="#112827"/>
<path d="M14.3574 66.6763C14.3574 66.9279 13.9267 67.1795 13.6396 67.1795C13.3525 67.1795 12.9219 66.9279 12.9219 66.6763V58.8763C12.9219 58.6247 13.3525 58.373 13.6396 58.373C13.9267 58.373 14.3574 58.6247 14.3574 58.8763V66.6763Z" fill="#112827"/>
<path d="M18.662 66.6763C18.662 66.9279 18.2314 67.1795 17.9443 67.1795C17.6572 67.1795 17.2266 66.9279 17.2266 66.6763V58.8763C17.2266 58.6247 17.6572 58.373 17.9443 58.373C18.2314 58.373 18.662 58.6247 18.662 58.8763V66.6763Z" fill="#112827"/>
<path d="M67.4668 62.2736C67.4668 62.651 67.1797 62.9026 66.749 62.9026H23.6845C23.2539 62.9026 22.9668 62.651 22.9668 62.2736C22.9668 61.8961 23.2539 61.6445 23.6845 61.6445H66.6055C67.1797 61.6445 67.4668 61.8961 67.4668 62.2736Z" fill="#FF1F2C"/>
<path d="M67.1785 66.6769C69.6362 66.6769 71.6285 64.9309 71.6285 62.777C71.6285 60.623 69.6362 58.877 67.1785 58.877C64.7208 58.877 62.7285 60.623 62.7285 62.777C62.7285 64.9309 64.7208 66.6769 67.1785 66.6769Z" fill="#FF1F2C"/>
<path d="M67.1806 64.6648C68.3698 64.6648 69.3338 63.8199 69.3338 62.7777C69.3338 61.7355 68.3698 60.8906 67.1806 60.8906C65.9914 60.8906 65.0273 61.7355 65.0273 62.7777C65.0273 63.8199 65.9914 64.6648 67.1806 64.6648Z" fill="#EB0000"/>
<path d="M68.6156 64.1634C67.7543 64.9183 66.4623 64.9183 65.601 64.1634C64.7398 63.4086 64.7398 62.2763 65.601 61.5215" fill="#FC5959"/>
<path d="M80.2439 62.7777C80.2439 63.7842 79.2391 64.6648 78.0907 64.6648C76.9423 64.6648 75.9375 63.7842 75.9375 62.7777C75.9375 61.7713 76.9423 60.8906 78.0907 60.8906C79.2391 60.8906 80.2439 61.7713 80.2439 62.7777Z" fill="#FF6565"/>
<path d="M79.5238 64.1634C78.6625 64.9183 77.3705 64.9183 76.5093 64.1634C75.648 63.4086 75.648 62.2763 76.5093 61.5215" fill="#FC5959"/>
</g>
<defs>
<clipPath id="clip0">
<rect width="89" height="78" fill="white"/>
</clipPath>
</defs>
</svg>
