<svg width="22" height="23" viewBox="0 0 22 23" fill="none" xmlns="http://www.w3.org/2000/svg">
<path fill-rule="evenodd" clip-rule="evenodd" d="M20.794 6.78279L20.1042 5.58569C19.5205 4.57276 18.2272 4.22332 17.2129 4.80453V4.80453C16.73 5.08896 16.1539 5.16966 15.6115 5.02882C15.0691 4.88799 14.605 4.5372 14.3215 4.05381C14.1392 3.74655 14.0412 3.39659 14.0375 3.03931V3.03931C14.0539 2.46651 13.8378 1.91143 13.4384 1.50054C13.039 1.08964 12.4902 0.857918 11.9172 0.858154H10.5273C9.96594 0.858148 9.42767 1.08186 9.03165 1.47978C8.63563 1.87771 8.4145 2.41704 8.4172 2.97844V2.97844C8.40056 4.13755 7.45613 5.06842 6.29691 5.0683C5.93963 5.06459 5.58967 4.9666 5.28242 4.78424V4.78424C4.2681 4.20304 2.97473 4.55247 2.39111 5.5654L1.65053 6.78279C1.06762 7.79446 1.4123 9.08701 2.42155 9.6741V9.6741C3.07758 10.0528 3.48171 10.7528 3.48171 11.5103C3.48171 12.2678 3.07758 12.9678 2.42155 13.3466V13.3466C1.41358 13.9297 1.06853 15.2191 1.65053 16.2277V16.2277L2.35053 17.435C2.62398 17.9284 3.08279 18.2925 3.62541 18.4467C4.16804 18.6009 4.74976 18.5325 5.24184 18.2567V18.2567C5.72558 17.9744 6.30203 17.8971 6.84307 18.0419C7.3841 18.1867 7.84489 18.5416 8.123 19.0277C8.30536 19.335 8.40335 19.6849 8.40706 20.0422V20.0422C8.40706 21.2132 9.35634 22.1625 10.5273 22.1625H11.9172C13.0843 22.1625 14.0319 21.2194 14.0375 20.0524V20.0524C14.0348 19.4892 14.2573 18.9483 14.6555 18.5501C15.0537 18.1519 15.5946 17.9294 16.1578 17.9321C16.5142 17.9416 16.8627 18.0392 17.1723 18.2161V18.2161C18.1839 18.799 19.4765 18.4544 20.0636 17.4451V17.4451L20.794 16.2277C21.0767 15.7424 21.1543 15.1644 21.0096 14.6218C20.8649 14.0791 20.5098 13.6165 20.023 13.3364V13.3364C19.5362 13.0563 19.1811 12.5937 19.0364 12.0511C18.8917 11.5084 18.9693 10.9304 19.252 10.4451C19.4358 10.1241 19.702 9.85796 20.023 9.6741V9.6741C21.0262 9.08733 21.3701 7.80232 20.794 6.79294V6.79294V6.78279Z" stroke="white" stroke-width="1.5" stroke-linecap="round" stroke-linejoin="round"/>
<ellipse cx="11.2274" cy="11.5103" rx="2.92174" ry="2.92174" stroke="white" stroke-width="1.5" stroke-linecap="round" stroke-linejoin="round"/>
</svg>
