<svg id="settings_4_" data-name="settings (4)" xmlns="http://www.w3.org/2000/svg" width="26.079" height="26.079" viewBox="0 0 26.079 26.079">
  <path id="Path_1121" data-name="Path 1121" d="M26.079,14.858V11.221a.764.764,0,0,0-.614-.749l-2.274-.455a10.53,10.53,0,0,0-.833-2.023l1.283-1.925a.764.764,0,0,0-.1-.964L20.974,2.533a.764.764,0,0,0-.964-.1L18.085,3.721a10.533,10.533,0,0,0-2.023-.833L15.607.614A.764.764,0,0,0,14.858,0H11.221a.764.764,0,0,0-.749.614l-.455,2.274a10.529,10.529,0,0,0-2.023.833L6.069,2.438a.764.764,0,0,0-.964.1L2.533,5.105a.764.764,0,0,0-.1.964L3.721,7.994a10.533,10.533,0,0,0-.833,2.023l-2.274.455A.764.764,0,0,0,0,11.221v3.637a.764.764,0,0,0,.614.749l2.274.455a10.529,10.529,0,0,0,.833,2.023L2.438,20.01a.764.764,0,0,0,.1.964l2.572,2.572a.764.764,0,0,0,.964.1l1.925-1.283a10.53,10.53,0,0,0,2.023.833l.455,2.274a.764.764,0,0,0,.749.614h3.637a.764.764,0,0,0,.749-.614l.455-2.274a10.527,10.527,0,0,0,2.023-.833l1.925,1.283a.764.764,0,0,0,.964-.1l2.572-2.572a.764.764,0,0,0,.1-.964l-1.283-1.925a10.532,10.532,0,0,0,.833-2.023l2.274-.455a.764.764,0,0,0,.614-.749Z" transform="translate(0 0)" fill="#94ccf8"/>
  <path id="Path_1122" data-name="Path 1122" d="M268.425,10.472l-2.274-.455a10.528,10.528,0,0,0-.833-2.023L266.6,6.069a.764.764,0,0,0-.1-.964l-2.572-2.572a.764.764,0,0,0-.964-.1l-1.925,1.283a10.533,10.533,0,0,0-2.023-.833L258.568.614A.764.764,0,0,0,257.819,0H256V26.079h1.819a.764.764,0,0,0,.749-.614l.455-2.274a10.526,10.526,0,0,0,2.023-.833l1.925,1.283a.764.764,0,0,0,.964-.1l2.572-2.572a.764.764,0,0,0,.1-.964l-1.283-1.925a10.531,10.531,0,0,0,.833-2.023l2.274-.455a.764.764,0,0,0,.614-.749V11.221A.764.764,0,0,0,268.425,10.472Z" transform="translate(-242.96)" fill="#51b0fb"/>
  <path id="Path_1123" data-name="Path 1123" d="M127.876,134.753a6.876,6.876,0,1,1,6.876-6.876A6.884,6.884,0,0,1,127.876,134.753Z" transform="translate(-114.837 -114.837)" fill="#f4f4f6"/>
  <path id="Path_1124" data-name="Path 1124" d="M262.876,127.876A6.884,6.884,0,0,0,256,121v13.753A6.884,6.884,0,0,0,262.876,127.876Z" transform="translate(-242.96 -114.837)" fill="#cce9ff"/>
</svg>
