<svg xmlns="http://www.w3.org/2000/svg" width="24.132" height="23.771" viewBox="0 0 24.132 23.771">
    <defs>
        <style>
            .asetting{fill:#cbcbcb;stroke:#acacac}
        </style>
    </defs>
    <g transform="translate(23.632 23.271) rotate(180)">
        <path class="asetting" d="M12.292,22.771H10.84a2.115,2.115,0,0,1-2.13-2.1v-.483a9.422,9.422,0,0,1-1.45-.593l-.348.343a2.154,2.154,0,0,1-3.012,0l-1.026-1.01a2.073,2.073,0,0,1,0-2.965l.348-.342a9.114,9.114,0,0,1-.6-1.427H2.129A2.115,2.115,0,0,1,0,12.1V10.671a2.115,2.115,0,0,1,2.13-2.1h.491a9.116,9.116,0,0,1,.6-1.427L2.875,6.8a2.073,2.073,0,0,1,0-2.965L3.9,2.83a2.153,2.153,0,0,1,3.012,0l.348.342a9.431,9.431,0,0,1,1.45-.593V2.1A2.115,2.115,0,0,1,10.84,0h1.452a2.115,2.115,0,0,1,2.129,2.1V2.58a9.422,9.422,0,0,1,1.45.593l.348-.343a2.154,2.154,0,0,1,3.012,0l1.026,1.01a2.073,2.073,0,0,1,0,2.965l-.348.342a9.114,9.114,0,0,1,.6,1.427H21a2.115,2.115,0,0,1,2.13,2.1V12.1A2.115,2.115,0,0,1,21,14.2h-.491a9.116,9.116,0,0,1-.6,1.427l.348.343a2.073,2.073,0,0,1,0,2.965l-1.026,1.01a2.153,2.153,0,0,1-3.012,0l-.348-.342a9.431,9.431,0,0,1-1.45.593v.483A2.115,2.115,0,0,1,12.292,22.771ZM7.487,18.2a8.059,8.059,0,0,0,2.071.846.669.669,0,0,1,.508.646v.985a.769.769,0,0,0,.774.762h1.452a.769.769,0,0,0,.774-.762V19.69a.669.669,0,0,1,.508-.646,8.059,8.059,0,0,0,2.071-.846.686.686,0,0,1,.824.1l.709.7a.783.783,0,0,0,1.094,0L19.3,17.987a.753.753,0,0,0,0-1.077l-.709-.7a.659.659,0,0,1-.1-.811,7.8,7.8,0,0,0,.86-2.038.676.676,0,0,1,.656-.5h1a.769.769,0,0,0,.774-.762V10.671A.769.769,0,0,0,21,9.909H20a.676.676,0,0,1-.656-.5,7.8,7.8,0,0,0-.86-2.038.659.659,0,0,1,.1-.811l.709-.7a.753.753,0,0,0,0-1.077L18.273,3.773a.783.783,0,0,0-1.094,0l-.709.7a.686.686,0,0,1-.824.1,8.059,8.059,0,0,0-2.071-.846.669.669,0,0,1-.508-.646V2.1a.769.769,0,0,0-.774-.762H10.84a.769.769,0,0,0-.774.762v.985a.669.669,0,0,1-.508.646,8.059,8.059,0,0,0-2.071.846.686.686,0,0,1-.824-.1l-.709-.7a.783.783,0,0,0-1.094,0L3.833,4.783a.753.753,0,0,0,0,1.077l.709.7a.659.659,0,0,1,.1.811,7.8,7.8,0,0,0-.86,2.038.676.676,0,0,1-.656.5h-1a.769.769,0,0,0-.774.762V12.1a.769.769,0,0,0,.774.762h1a.676.676,0,0,1,.656.5,7.8,7.8,0,0,0,.86,2.038.659.659,0,0,1-.1.811l-.709.7a.753.753,0,0,0,0,1.077L4.859,19a.783.783,0,0,0,1.094,0l.709-.7a.689.689,0,0,1,.824-.1Z" transform="translate(0 0)"/>
        <path class="asetting" d="M5.309,10.617a5.309,5.309,0,1,1,5.309-5.309A5.315,5.315,0,0,1,5.309,10.617Zm0-9.188A3.879,3.879,0,1,0,9.188,5.309,3.883,3.883,0,0,0,5.309,1.43Z" transform="translate(6.258 6.077)"/>
    </g>
</svg>
