<svg width="27" height="24" viewBox="0 0 27 24" fill="none" xmlns="http://www.w3.org/2000/svg">
<path d="M22.392 12.757V9.634C22.392 9.48244 22.3394 9.33558 22.2434 9.21836C22.1473 9.10114 22.0136 9.0208 21.865 8.991L19.912 8.6C19.7355 7.99821 19.4969 7.41641 19.2 6.864L20.3 5.211C20.3842 5.08479 20.422 4.93331 20.4071 4.78234C20.3921 4.63137 20.3253 4.49025 20.218 4.383L18.008 2.175C17.9008 2.0677 17.7596 2.00088 17.6087 1.98593C17.4577 1.97098 17.3062 2.00882 17.18 2.093L15.528 3.2C14.9754 2.90202 14.3933 2.66239 13.791 2.485L13.4 0.527C13.3702 0.378402 13.2899 0.244707 13.1726 0.148636C13.0554 0.0525645 12.9086 4.41892e-05 12.757 0L9.634 0C9.48244 4.41892e-05 9.33558 0.0525645 9.21836 0.148636C9.10114 0.244707 9.0208 0.378402 8.991 0.527L8.6 2.48C7.99789 2.65904 7.41608 2.90034 6.864 3.2L5.211 2.1C5.08479 2.01582 4.93331 1.97798 4.78234 1.99293C4.63137 2.00788 4.49025 2.0747 4.383 2.182L2.175 4.383C2.0677 4.49025 2.00088 4.63137 1.98593 4.78234C1.97098 4.93331 2.00882 5.08479 2.093 5.211L3.2 6.864C2.90036 7.41609 2.65906 7.9979 2.48 8.6L0.527 8.99C0.378234 9.01984 0.24441 9.10032 0.148319 9.21774C0.0522285 9.33517 -0.000186535 9.48227 4.98817e-07 9.634V12.757C4.4688e-05 12.9086 0.052565 13.0554 0.148636 13.1726C0.244707 13.2899 0.378402 13.3702 0.527 13.4L2.48 13.79C2.6589 14.3928 2.90021 14.9753 3.2 15.528L2.1 17.181C2.01582 17.3072 1.97798 17.4587 1.99293 17.6097C2.00788 17.7606 2.0747 17.9018 2.182 18.009L4.39 20.217C4.49725 20.3243 4.63837 20.3911 4.78934 20.4061C4.94031 20.421 5.09179 20.3832 5.218 20.299L6.871 19.199C7.4236 19.497 8.00575 19.7366 8.608 19.914L8.998 21.867C9.0278 22.0156 9.10814 22.1493 9.22536 22.2454C9.34258 22.3414 9.48944 22.394 9.641 22.394H12.764C12.9156 22.394 13.0624 22.3414 13.1796 22.2454C13.2969 22.1493 13.3772 22.0156 13.407 21.867L13.797 19.914C14.3993 19.7366 14.9814 19.497 15.534 19.199L17.187 20.299C17.3132 20.3832 17.4647 20.421 17.6157 20.4061C17.7666 20.3911 17.9078 20.3243 18.015 20.217L20.223 18.009C20.3303 17.9018 20.3971 17.7606 20.4121 17.6097C20.427 17.4587 20.3892 17.3072 20.305 17.181L19.205 15.528C19.503 14.9754 19.7426 14.3933 19.92 13.791L21.873 13.401C22.0216 13.3712 22.1553 13.2909 22.2514 13.1736C22.3474 13.0564 22.4 12.9096 22.4 12.758L22.392 12.757Z" fill="#94CCF8"/>
<path d="M21.864 8.991L19.911 8.601C19.7337 7.99874 19.4941 7.4166 19.196 6.864L20.2961 5.211C20.3802 5.08479 20.4181 4.93331 20.4031 4.78234C20.3882 4.63137 20.3214 4.49025 20.2141 4.383L18.006 2.175C17.8988 2.0677 17.7577 2.00088 17.6067 1.98593C17.4557 1.97098 17.3042 2.00882 17.178 2.093L15.5251 3.193C14.9749 2.89621 14.3955 2.65727 13.7961 2.48L13.3961 0.527C13.3664 0.379072 13.2866 0.245892 13.1702 0.149898C13.0538 0.0539038 12.9079 0.000964563 12.757 0L11.196 0V22.392H12.757C12.9086 22.392 13.0555 22.3394 13.1727 22.2434C13.2899 22.1473 13.3703 22.0136 13.4001 21.865L13.791 19.912C14.3933 19.7347 14.9755 19.495 15.528 19.197L17.181 20.297C17.3072 20.3812 17.4587 20.419 17.6097 20.4041C17.7607 20.3891 17.9018 20.3223 18.009 20.215L20.217 18.007C20.3243 17.8998 20.3912 17.7586 20.4061 17.6077C20.4211 17.4567 20.3832 17.3052 20.299 17.179L19.196 15.528C19.494 14.9754 19.7337 14.3933 19.911 13.791L21.864 13.401C22.0126 13.3712 22.1463 13.2909 22.2424 13.1736C22.3385 13.0564 22.391 12.9096 22.3911 12.758V9.634C22.391 9.48244 22.3385 9.33558 22.2424 9.21836C22.1463 9.10114 22.0126 9.0208 21.864 8.991Z" fill="#51B0FB"/>
<path d="M11.192 17.1C10.0251 17.1 8.88438 16.754 7.91413 16.1057C6.94388 15.4574 6.18766 14.5359 5.74111 13.4578C5.29455 12.3797 5.17771 11.1935 5.40536 10.049C5.63301 8.90448 6.19494 7.8532 7.02007 7.02807C7.8452 6.20294 8.89648 5.64102 10.041 5.41337C11.1855 5.18571 12.3717 5.30255 13.4498 5.74911C14.5279 6.19566 15.4494 6.95188 16.0977 7.92213C16.746 8.89238 17.092 10.0331 17.092 11.2C17.0891 12.7639 16.4666 14.2629 15.3607 15.3687C14.2549 16.4746 12.7559 17.0971 11.192 17.1Z" fill="#F4F4F6"/>
<path d="M17.096 11.192C17.0931 9.62812 16.4706 8.12912 15.3648 7.02328C14.2589 5.91745 12.7599 5.29491 11.196 5.292V17.1C12.7613 17.0971 14.2615 16.4734 15.3676 15.3659C16.4736 14.2583 17.0952 12.7573 17.096 11.192Z" fill="#CCE9FF"/>
<path d="M9.76491 15.033C9.95367 13.1685 10.7797 11.4262 12.1038 10.1C13.4278 8.77379 15.1687 7.94484 17.0329 7.75301C17.3127 7.72486 17.5937 7.71085 17.8749 7.71101C19.5371 7.70596 21.1609 8.21078 22.5273 9.15739C23.8936 10.104 24.9368 11.4469 25.5161 13.0049C26.0955 14.5629 26.183 16.2611 25.7671 17.8704C25.3511 19.4798 24.4516 20.9228 23.1899 22.005V19.013C23.1899 18.3828 22.9396 17.7785 22.494 17.3329C22.0484 16.8873 21.4441 16.637 20.8139 16.637H20.1629L18.5339 21.611L18.1579 18.394H17.7719L17.3959 21.604L15.7439 16.639H14.9439C14.3138 16.639 13.7094 16.8893 13.2638 17.3349C12.8182 17.7805 12.5679 18.3849 12.5679 19.015V22.007C12.3792 21.8443 12.1979 21.6737 12.0239 21.495C10.5531 19.9814 9.73108 17.9535 9.73291 15.843C9.73291 15.57 9.74691 15.3 9.77291 15.034L9.76491 15.033ZM20.1419 13.207V12.301C20.1419 11.7 19.9032 11.1237 19.4782 10.6987C19.0533 10.2737 18.4769 10.035 17.8759 10.035C17.2749 10.035 16.6986 10.2737 16.2736 10.6987C15.8487 11.1237 15.6099 11.7 15.6099 12.301V13.207C15.6099 13.808 15.8487 14.3844 16.2736 14.8093C16.6986 15.2343 17.2749 15.473 17.8759 15.473C18.4769 15.473 19.0533 15.2343 19.4782 14.8093C19.9032 14.3844 20.1419 13.808 20.1419 13.207ZM18.4339 18.133L18.8869 16.805L16.9989 16.798L17.4519 18.133H18.4339Z" fill="#00ACEA"/>
<path d="M23.1908 19.017V22.009C21.7105 23.278 19.8251 23.9756 17.8753 23.9756C15.9256 23.9756 14.0401 23.278 12.5598 22.009V19.017C12.5598 18.3868 12.8102 17.7825 13.2557 17.3369C13.7013 16.8913 14.3057 16.641 14.9358 16.641H15.7358L17.3878 21.606L17.2198 23.036L17.9658 23.527L18.6928 23.036L18.5258 21.613L20.1548 16.64H20.8058C21.436 16.64 22.0403 16.8903 22.4859 17.3359C22.9315 17.7815 23.1818 18.3858 23.1818 19.016L23.1908 19.017Z" fill="#FEDB41"/>
<path d="M20.1409 12.302V13.208C20.1409 13.809 19.9022 14.3853 19.4772 14.8103C19.0522 15.2353 18.4759 15.474 17.8749 15.474C17.2739 15.474 16.6975 15.2353 16.2726 14.8103C15.8476 14.3853 15.6089 13.809 15.6089 13.208V12.302C15.6089 11.701 15.8476 11.1246 16.2726 10.6997C16.6975 10.2747 17.2739 10.036 17.8749 10.036C18.4759 10.036 19.0522 10.2747 19.4772 10.6997C19.9022 11.1246 20.1409 11.701 20.1409 12.302Z" fill="#FEDB41"/>
<path d="M18.8809 16.808L18.4279 18.136H17.4459L16.9929 16.801L18.8809 16.808Z" fill="#FCBE2C"/>
<path d="M18.534 21.61L18.701 23.033L17.974 23.524L17.228 23.033L17.396 21.603L17.772 18.392H18.158L18.534 21.61Z" fill="#FCBE2C"/>
</svg>
