<svg xmlns="http://www.w3.org/2000/svg" width="20.706" height="20.631" viewBox="0 0 20.706 20.631">
     <defs>
        <style>
            .asetting{fill:#fff;}
        </style>
    </defs>
    <g transform="matrix(-0.848, -0.53, 0.53, -0.848, 12.82, 20.631)">
        <path class="asetting" d="M8.033,14.881H7.084a1.383,1.383,0,0,1-1.392-1.37V13.2a6.157,6.157,0,0,1-.948-.387l-.227.224a1.407,1.407,0,0,1-1.968,0l-.671-.66a1.355,1.355,0,0,1,0-1.938l.227-.224a5.956,5.956,0,0,1-.393-.933H1.392A1.383,1.383,0,0,1,0,7.908V6.974A1.383,1.383,0,0,1,1.392,5.6h.321a5.957,5.957,0,0,1,.393-.933l-.227-.224a1.355,1.355,0,0,1,0-1.938l.671-.66a1.407,1.407,0,0,1,1.968,0l.227.224a6.163,6.163,0,0,1,.948-.387V1.37A1.382,1.382,0,0,1,7.084,0h.949A1.382,1.382,0,0,1,9.425,1.37v.316a6.157,6.157,0,0,1,.948.387l.227-.224a1.407,1.407,0,0,1,1.968,0l.671.66a1.355,1.355,0,0,1,0,1.938l-.227.224A5.956,5.956,0,0,1,13.4,5.6h.321a1.383,1.383,0,0,1,1.392,1.37v.934a1.383,1.383,0,0,1-1.392,1.37H13.4a5.958,5.958,0,0,1-.393.933l.227.224a1.355,1.355,0,0,1,0,1.938l-.671.66a1.407,1.407,0,0,1-1.968,0l-.227-.224a6.163,6.163,0,0,1-.948.387v.316A1.382,1.382,0,0,1,8.033,14.881Zm-3.14-2.989a5.267,5.267,0,0,0,1.353.553.437.437,0,0,1,.332.422v.644a.5.5,0,0,0,.506.5h.949a.5.5,0,0,0,.506-.5v-.644a.437.437,0,0,1,.332-.422,5.267,5.267,0,0,0,1.353-.553.448.448,0,0,1,.539.067l.463.456a.511.511,0,0,0,.715,0l.671-.661a.492.492,0,0,0,0-.7l-.463-.456a.431.431,0,0,1-.068-.53,5.094,5.094,0,0,0,.562-1.332.442.442,0,0,1,.429-.327h.654a.5.5,0,0,0,.506-.5V6.974a.5.5,0,0,0-.506-.5h-.654a.442.442,0,0,1-.429-.327,5.1,5.1,0,0,0-.562-1.332.431.431,0,0,1,.068-.53l.463-.456a.492.492,0,0,0,0-.7l-.671-.66a.511.511,0,0,0-.715,0l-.463.456a.448.448,0,0,1-.539.067,5.267,5.267,0,0,0-1.353-.553.437.437,0,0,1-.332-.422V1.37a.5.5,0,0,0-.506-.5H7.084a.5.5,0,0,0-.506.5v.644a.437.437,0,0,1-.332.422,5.267,5.267,0,0,0-1.353.553.448.448,0,0,1-.539-.067l-.463-.456a.511.511,0,0,0-.715,0L2.5,3.126a.492.492,0,0,0,0,.7l.463.456a.431.431,0,0,1,.068.53,5.094,5.094,0,0,0-.562,1.332.442.442,0,0,1-.429.327H1.392a.5.5,0,0,0-.506.5v.934a.5.5,0,0,0,.506.5h.654a.442.442,0,0,1,.429.327,5.1,5.1,0,0,0,.562,1.332.431.431,0,0,1-.068.53l-.463.456a.492.492,0,0,0,0,.7l.671.66a.511.511,0,0,0,.715,0l.463-.456a.45.45,0,0,1,.539-.067Z" transform="translate(0 0)"/>
        <path class="asetting" d="M3.469,6.939A3.469,3.469,0,1,1,6.939,3.469,3.473,3.473,0,0,1,3.469,6.939Zm0-6A2.535,2.535,0,1,0,6,3.469,2.538,2.538,0,0,0,3.469.934Z" transform="translate(4.089 3.971)"/>
    </g>
</svg>
