<svg xmlns="http://www.w3.org/2000/svg" width="89.818" height="69.645" viewBox="0 0 89.818 69.645">
    <defs>
        <style>
            .a{fill:#2979ff}
        </style>
    </defs>
    <g transform="translate(0 -56.375)">
        <g transform="translate(0 56.375)">
            <g transform="translate(0 0)">
                <path class="a" d="M88.029,56.375H1.789A1.789,1.789,0,0,0,0,58.164v66.067a1.789,1.789,0,0,0,1.789,1.789h86.24a1.789,1.789,0,0,0,1.789-1.789V58.164A1.789,1.789,0,0,0,88.029,56.375ZM21.56,122.442H3.578V112.8H21.56Zm0-13.222H3.578V99.577H21.56ZM21.56,96H3.578V86.355H21.56Zm0-13.222H3.578v-9.6H21.56Zm21.56,39.665H25.138V112.8H43.12Zm0-13.222H25.138V99.577H43.12ZM43.12,96H25.138V86.355H43.12Zm0-13.222H25.138v-9.6H43.12Zm21.56,39.665H46.7V112.8H64.68Zm0-13.222H46.7V99.577H64.68ZM64.68,96H46.7V86.355H64.68Zm0-13.222H46.7v-9.6H64.68Zm21.56,39.665H68.258V112.8H86.24Zm0-13.222H68.258V99.577H86.24ZM86.24,96H68.258V86.355H86.24Zm0-13.222H68.258v-9.6H86.24Zm0-13.222H3.578v-9.6H86.24Z" transform="translate(0 -56.375)"/>
                <path class="a" d="M200.789,91.2h34.353a1.789,1.789,0,0,0,0-3.578H200.789a1.789,1.789,0,1,0,0,3.578Z" transform="translate(-163.395 -82.034)"/>
                <path class="a" d="M427.789,91.2h3.936a1.789,1.789,0,0,0,0-3.578h-3.936a1.789,1.789,0,0,0,0,3.578Z" transform="translate(-349.78 -82.034)"/>
            </g>
        </g>
    </g>
</svg>
