<svg xmlns="http://www.w3.org/2000/svg" width="18.809" height="18.807" viewBox="0 0 18.809 18.807">
    <defs>
        <style>
            .atheme{fill:#fff;}
        </style>
    </defs>
    <g transform="translate(0 -0.021)">
        <g transform="translate(0 0.021)">
            <path class="atheme" d="M17.475.021a1.329,1.329,0,0,0-1.229.817L15.047,3.7a1.947,1.947,0,0,0-1.332-.549H1.959A1.962,1.962,0,0,0,0,5.113V16.869a1.962,1.962,0,0,0,1.959,1.959H13.715a1.962,1.962,0,0,0,1.959-1.959V8.291l3.009-6.349a1.361,1.361,0,0,0,.125-.589A1.335,1.335,0,0,0,17.475.021ZM14.89,16.869a1.177,1.177,0,0,1-1.176,1.176H1.959A1.177,1.177,0,0,1,.784,16.869V5.113A1.177,1.177,0,0,1,1.959,3.938H13.715a1.167,1.167,0,0,1,.995.572L13.323,7.823V5.9a.392.392,0,0,0-.392-.392H2.743a.392.392,0,0,0-.392.392V9.032a.392.392,0,0,0,.392.392h9.91l-.328.784H9.012a.392.392,0,0,0-.392.392v4.7c0,.01,0,.019.005.029a2.452,2.452,0,0,1-.534.387.392.392,0,0,0-.141.645,2.937,2.937,0,0,0,2.116.784,3.6,3.6,0,0,0,2.356-.784,2.878,2.878,0,0,0,.726-2.747L14.89,9.945v6.924ZM9.942,14.624a2.162,2.162,0,0,1,.523-1,1.179,1.179,0,0,1,1.8,0c.5.5.118,1.679-.392,2.189a3.053,3.053,0,0,1-2.948.3,5.076,5.076,0,0,0,.466-.416A2.357,2.357,0,0,0,9.942,14.624ZM9.4,13.809V10.992H12l-.6,1.436a2.04,2.04,0,0,0-1.486.639A2.432,2.432,0,0,0,9.4,13.809Zm2.765-1.2,1.055-2.521.592.291-1.2,2.522A2.233,2.233,0,0,0,12.169,12.611Zm.37-6.322V8.64h-9.4V6.289Zm5.435-4.68L14.151,9.673l-.625-.306,1.987-4.748,1.455-3.478A.547.547,0,0,1,17.476.8a.556.556,0,0,1,.549.575A.545.545,0,0,1,17.974,1.609Z" transform="translate(0 -0.021)"/>
        </g>
        <g transform="translate(2.351 10.207)">
            <path class="atheme" d="M68.31,277.312H64.392A.392.392,0,0,0,64,277.7v5.486a.392.392,0,0,0,.392.392H68.31a.392.392,0,0,0,.392-.392V277.7A.392.392,0,0,0,68.31,277.312Zm-.392,5.486H64.784v-4.7h3.135v4.7Z" transform="translate(-64 -277.312)"/>
        </g>
    </g>
</svg>
