<svg xmlns="http://www.w3.org/2000/svg" width="44" height="44" viewBox="0 0 38 38">
  <g id="Group_236" data-name="Group 236" transform="translate(-935 -348)">
    <rect id="Rectangle_126" data-name="Rectangle 126" width="38" height="38" rx="6" transform="translate(935 348)" fill="#c9ffe6"/>
    <path id="Icon_awesome-plus" data-name="Icon awesome-plus" d="M13.49,7.957H8.82V3.288A1.038,1.038,0,0,0,7.783,2.25H6.745A1.038,1.038,0,0,0,5.707,3.288v4.67H1.038A1.038,1.038,0,0,0,0,9v1.038A1.038,1.038,0,0,0,1.038,11.07h4.67v4.67a1.038,1.038,0,0,0,1.038,1.038H7.783A1.038,1.038,0,0,0,8.82,15.74V11.07h4.67a1.038,1.038,0,0,0,1.038-1.038V9A1.038,1.038,0,0,0,13.49,7.957Z" transform="translate(941.777 365.128) rotate(-45)" fill="#00e178"/>
  </g>
</svg>
