<svg xmlns="http://www.w3.org/2000/svg" width="18" height="18" viewBox="0 0 11.515 13"><defs><style>.a{fill:rgb(106 104 104 / 87%);}</style></defs><g transform="translate(0 0)"><path class="a" d="M81.245,8.746H78.588V7.873A.879.879,0,0,0,77.7,7H75.045a.879.879,0,0,0-.886.873v.873H71.5a.879.879,0,0,0-.886.873v.873a.88.88,0,0,0,.885.873h9.745a.88.88,0,0,0,.885-.873V9.619A.879.879,0,0,0,81.245,8.746Zm-3.543,0H75.045V8.309a.44.44,0,0,1,.443-.436h1.772a.44.44,0,0,1,.443.436Zm-6.2,9.508A1.759,1.759,0,0,0,73.273,20h6.2a1.759,1.759,0,0,0,1.771-1.746V11.271H71.5Zm6.2-5.674a.443.443,0,0,1,.886,0v5.238a.443.443,0,0,1-.886,0V12.58Zm-3.543,0a.443.443,0,0,1,.886,0v5.238a.443.443,0,0,1-.886,0Z" transform="translate(-70.616 -7)"/></g></svg>