<svg width="17" height="20" viewBox="0 0 17 20" fill="none" xmlns="http://www.w3.org/2000/svg">
<path d="M10.0429 1.72398H6.65876V2.25689H5.43664V1.64938C5.43649 1.05979 5.94875 0.580078 6.57843 0.580078H10.1232C10.7529 0.580078 11.2651 1.05979 11.2651 1.64938V2.25689H10.0429V1.72398Z" fill="white"/>
<path d="M2.61452 6.78882H14.0877C14.402 6.78882 14.6495 7.03981 14.6242 7.33315L13.665 18.4333C13.6116 19.0529 13.0593 19.5302 12.3958 19.5302H4.30657C3.64306 19.5302 3.09079 19.0529 3.03734 18.4331L2.07815 7.33315C2.05266 7.03981 2.30014 6.78882 2.61452 6.78882ZM11.3096 18.3462C11.3224 18.347 11.3352 18.3474 11.3479 18.3474C11.6683 18.3474 11.9373 18.1139 11.9572 17.8106L12.5583 8.69797C12.579 8.38265 12.3227 8.11127 11.9859 8.0919C11.6502 8.07282 11.359 8.31209 11.3383 8.62756L10.7374 17.7402C10.7165 18.0555 10.9728 18.3267 11.3096 18.3462ZM7.73316 17.7754C7.73316 18.0912 8.00675 18.3472 8.3443 18.3472C8.68184 18.3472 8.95543 18.0912 8.95543 17.7754V8.66269C8.95543 8.34679 8.68184 8.09074 8.3443 8.09074C8.00691 8.09074 7.73316 8.34679 7.73316 8.66269V17.7754ZM4.1439 8.69638L4.7178 17.809C4.73681 18.1129 5.00622 18.3472 5.32724 18.3472C5.33929 18.3472 5.35149 18.347 5.3637 18.3464C5.70063 18.3277 5.95769 18.0571 5.93776 17.7418L5.36401 8.62901C5.34423 8.31368 5.05597 8.0731 4.71811 8.09176C4.38119 8.11026 4.12413 8.38106 4.1439 8.69638Z" fill="white"/>
<path d="M0.501484 5.02391L0.902831 3.89794C1.00865 3.60112 1.30557 3.40088 1.64003 3.40088H15.0629C15.3972 3.40088 15.6943 3.60112 15.8 3.89794L16.2013 5.02391C16.2787 5.24107 16.178 5.46256 15.99 5.57302C15.9133 5.61798 15.8227 5.64502 15.723 5.64502H0.979764C0.880122 5.64502 0.789287 5.61798 0.712817 5.57287C0.524811 5.46242 0.424088 5.24092 0.501484 5.02391Z" fill="white"/>
</svg>
