<svg xmlns="http://www.w3.org/2000/svg" width="26.026" height="23.972" viewBox="0 0 26.026 23.972">
  <g id="settings_3_" data-name="settings (3)" transform="translate(-0.999 -3.43)">
    <g id="settings_4_" data-name="settings (4)" transform="translate(0.999 3.43)">
      <path id="Path_1121" data-name="Path 1121" d="M22.392,12.757V9.634a.656.656,0,0,0-.527-.643L19.912,8.6A9.041,9.041,0,0,0,19.2,6.864l1.1-1.653a.656.656,0,0,0-.082-.828L18.008,2.175a.656.656,0,0,0-.828-.082L15.528,3.2a9.043,9.043,0,0,0-1.737-.715L13.4.527A.656.656,0,0,0,12.757,0H9.634a.656.656,0,0,0-.643.527L8.6,2.48A9.041,9.041,0,0,0,6.864,3.2l-1.653-1.1a.656.656,0,0,0-.828.082L2.175,4.383a.656.656,0,0,0-.082.828L3.2,6.864A9.044,9.044,0,0,0,2.48,8.6l-1.953.39A.656.656,0,0,0,0,9.634v3.123a.656.656,0,0,0,.527.643l1.953.39A9.04,9.04,0,0,0,3.2,15.528l-1.1,1.653a.656.656,0,0,0,.082.828l2.208,2.208a.656.656,0,0,0,.828.082l1.653-1.1a9.041,9.041,0,0,0,1.737.715l.39,1.953a.656.656,0,0,0,.643.527h3.123a.656.656,0,0,0,.643-.527l.39-1.953a9.038,9.038,0,0,0,1.737-.715l1.653,1.1a.656.656,0,0,0,.828-.082l2.208-2.208a.656.656,0,0,0,.082-.828l-1.1-1.653a9.043,9.043,0,0,0,.715-1.737l1.953-.39a.656.656,0,0,0,.527-.643Z" transform="translate(0 0)" fill="#94ccf8"/>
      <path id="Path_1122" data-name="Path 1122" d="M266.668,8.991l-1.953-.39A9.039,9.039,0,0,0,264,6.864l1.1-1.653a.656.656,0,0,0-.082-.828l-2.208-2.208a.656.656,0,0,0-.828-.082l-1.653,1.1A9.043,9.043,0,0,0,258.6,2.48L258.2.527A.656.656,0,0,0,257.561,0H256V22.392h1.561a.656.656,0,0,0,.643-.527l.391-1.953a9.037,9.037,0,0,0,1.737-.715l1.653,1.1a.656.656,0,0,0,.828-.082l2.208-2.208a.656.656,0,0,0,.082-.828L264,15.528a9.043,9.043,0,0,0,.715-1.737l1.953-.39a.656.656,0,0,0,.527-.643V9.634A.656.656,0,0,0,266.668,8.991Z" transform="translate(-244.804)" fill="#51b0fb"/>
      <path id="Path_1123" data-name="Path 1123" d="M126.9,132.808a5.9,5.9,0,1,1,5.9-5.9A5.911,5.911,0,0,1,126.9,132.808Z" transform="translate(-115.708 -115.708)" fill="#f4f4f6"/>
      <path id="Path_1124" data-name="Path 1124" d="M261.9,126.9A5.911,5.911,0,0,0,256,121v11.808A5.911,5.911,0,0,0,261.9,126.9Z" transform="translate(-244.804 -115.708)" fill="#cce9ff"/>
    </g>
    <g id="Group_680" data-name="Group 680" transform="translate(-1 -1)">
      <path id="Path_1113" data-name="Path 1113" d="M212.231,219.7a8.143,8.143,0,0,1,7.268-7.28,8.365,8.365,0,0,1,.842-.042,8.126,8.126,0,0,1,5.315,14.294v-2.992a2.376,2.376,0,0,0-2.376-2.376h-.651L221,226.278l-.376-3.217h-.386l-.376,3.21h0l-1.652-4.965h-.8a2.376,2.376,0,0,0-2.376,2.376v2.992q-.283-.244-.544-.512a8.1,8.1,0,0,1-2.291-5.652c0-.273.014-.543.04-.809Zm10.377-1.826v-.906a2.266,2.266,0,0,0-4.532,0v.906a2.266,2.266,0,0,0,4.532,0ZM220.9,222.8l.453-1.328-1.888-.007.453,1.335Zm0,0" transform="translate(-200.467 -200.237)" fill="#00acea"/>
      <path id="Path_1115" data-name="Path 1115" d="M268.151,357.5v2.992a8.167,8.167,0,0,1-10.631,0V357.5a2.376,2.376,0,0,1,2.376-2.376h.8l1.652,4.965h0l-.168,1.43.746.491.727-.491-.167-1.423,1.629-4.973h.651a2.376,2.376,0,0,1,2.376,2.376Zm0,0" transform="translate(-242.961 -334.053)" fill="#fedb41"/>
      <path id="Path_1116" data-name="Path 1116" d="M310.821,251.813v.906a2.266,2.266,0,0,1-4.532,0v-.906a2.266,2.266,0,0,1,4.532,0Zm0,0" transform="translate(-288.681 -235.081)" fill="#fedb41"/>
      <g id="Group_679" data-name="Group 679" transform="translate(18.992 21.231)">
        <path id="Path_1117" data-name="Path 1117" d="M330.31,357.749l-.453,1.328h-.982l-.453-1.335Zm0,0" transform="translate(-328.422 -357.742)" fill="#fcbe2c"/>
        <path id="Path_1118" data-name="Path 1118" d="M333.486,386.409l.167,1.423-.727.491-.746-.491.168-1.43.376-3.211h.386Zm0,0" transform="translate(-331.945 -381.6)" fill="#fcbe2c"/>
      </g>
    </g>
  </g>
</svg>
