<svg width="10" height="10" viewBox="0 0 10 10" fill="none" xmlns="http://www.w3.org/2000/svg">
<g clip-path="url(#clip0)">
<path d="M4.92862 4.81703C5.59039 4.81703 6.16344 4.57968 6.63165 4.11139C7.09987 3.64317 7.33722 3.07029 7.33722 2.40844C7.33722 1.74682 7.09987 1.17385 6.63158 0.705487C6.16328 0.23735 5.59032 0 4.92862 0C4.26677 0 3.69388 0.23735 3.22566 0.705564C2.75745 1.17378 2.52002 1.74674 2.52002 2.40844C2.52002 3.07029 2.75745 3.64325 3.22574 4.11146C3.69403 4.5796 4.267 4.81703 4.92862 4.81703Z" fill="#626262"/>
<path d="M9.14314 7.68943C9.12964 7.49457 9.10233 7.28202 9.06212 7.05756C9.02153 6.83143 8.96927 6.61765 8.90671 6.42226C8.84209 6.22032 8.7542 6.02088 8.64555 5.82977C8.53279 5.63141 8.40034 5.45868 8.25172 5.31654C8.09631 5.16785 7.90604 5.04829 7.686 4.96109C7.46674 4.87434 7.22374 4.8304 6.96381 4.8304C6.86172 4.8304 6.763 4.87228 6.57234 4.99641C6.455 5.07294 6.31775 5.16144 6.16455 5.25932C6.03355 5.34279 5.85609 5.42099 5.6369 5.49179C5.42305 5.56099 5.20592 5.59608 4.99161 5.59608C4.7773 5.59608 4.56024 5.56099 4.34616 5.49179C4.1272 5.42106 3.94974 5.34286 3.81889 5.2594C3.66714 5.16243 3.52982 5.07393 3.41072 4.99634C3.22029 4.87221 3.12149 4.83032 3.01941 4.83032C2.7594 4.83032 2.51648 4.87434 2.29729 4.96117C2.07741 5.04822 1.88705 5.16777 1.73149 5.31662C1.58295 5.45883 1.45042 5.63148 1.33781 5.82977C1.22925 6.02088 1.14136 6.22024 1.07666 6.42234C1.01418 6.61773 0.961914 6.83143 0.921326 7.05756C0.881119 7.28171 0.853806 7.49434 0.840302 7.68965C0.827026 7.881 0.820312 8.07959 0.820312 8.28017C0.820312 8.80217 0.986252 9.22476 1.31348 9.53642C1.63666 9.84396 2.06429 9.99998 2.5843 9.99998H7.39937C7.91939 9.99998 8.34686 9.84403 8.67012 9.53642C8.99742 9.22499 9.16336 8.80232 9.16336 8.28009C9.16328 8.0786 9.15649 7.87985 9.14314 7.68943Z" fill="#626262"/>
</g>
<defs>
<clipPath id="clip0">
<rect width="10" height="10" fill="white"/>
</clipPath>
</defs>
</svg>
