<svg width="17" height="15" viewBox="0 0 17 15" fill="none" xmlns="http://www.w3.org/2000/svg">
<path d="M6.12709 14.0313C5.97389 14.2076 5.76617 14.3066 5.54959 14.3066C5.33301 14.3066 5.12529 14.2076 4.97209 14.0313L0.359088 8.71822C0.245249 8.58722 0.154941 8.43168 0.0933272 8.26047C0.0317131 8.08927 0 7.90576 0 7.72044C0 7.53511 0.0317131 7.3516 0.0933272 7.1804C0.154941 7.00919 0.245249 6.85365 0.359088 6.72265L0.937088 6.05707C1.05085 5.92598 1.18593 5.82199 1.33461 5.75104C1.48329 5.68009 1.64265 5.64358 1.80359 5.64358C1.96453 5.64358 2.12389 5.68009 2.27257 5.75104C2.42125 5.82199 2.55633 5.92598 2.67009 6.05707L5.55009 9.37344L13.3311 0.413496C13.4449 0.282407 13.5799 0.178417 13.7286 0.107468C13.8773 0.0365182 14.0366 0 14.1976 0C14.3585 0 14.5179 0.0365182 14.6666 0.107468C14.8152 0.178417 14.9503 0.282407 15.0641 0.413496L15.6421 1.07907C15.7559 1.21007 15.8462 1.36562 15.9079 1.53682C15.9695 1.70803 16.0012 1.89154 16.0012 2.07686C16.0012 2.26218 15.9695 2.44569 15.9079 2.6169C15.8462 2.7881 15.7559 2.94365 15.6421 3.07465L6.12709 14.0313Z" fill="#4AD295"/>
</svg>
