<svg width="25" height="25" viewBox="0 0 35 35" fill="none" xmlns="http://www.w3.org/2000/svg">
<circle cx="17.0551" cy="17.0551" r="17.0551" fill="#2979FF"/>
<path d="M24.8382 15.3632H19.0855C18.8986 15.3632 18.7471 15.2116 18.7471 15.0248V9.27205C18.7471 8.33767 17.9895 7.58008 17.0551 7.58008C16.1208 7.58008 15.3632 8.33767 15.3632 9.27205V15.0248C15.3632 15.2116 15.2116 15.3632 15.0248 15.3632H9.27205C8.33767 15.3632 7.58008 16.1208 7.58008 17.0551C7.58008 17.9895 8.33767 18.7471 9.27205 18.7471H15.0248C15.2116 18.7471 15.3632 18.8986 15.3632 19.0855V24.8382C15.3632 25.7726 16.1208 26.5302 17.0551 26.5302C17.9895 26.5302 18.7471 25.7726 18.7471 24.8382V19.0855C18.7471 18.8986 18.8986 18.7471 19.0855 18.7471H24.8382C25.7726 18.7471 26.5302 17.9895 26.5302 17.0551C26.5302 16.1208 25.7726 15.3632 24.8382 15.3632Z" fill="white"/>
</svg>
