<svg width="27" height="27" viewBox="0 0 27 27" fill="none" xmlns="http://www.w3.org/2000/svg">
<path d="M25.3747 19.6551V5.84454L26.0595 5.1598C27.2227 3.99657 27.2228 2.10381 26.0595 0.940532C24.8962 -0.222698 23.0035 -0.222646 21.8402 0.940532L21.1555 1.62527H7.34488C6.63328 0.67952 5.50185 0.0666809 4.22983 0.0666809C2.08131 0.0666809 0.333344 1.81464 0.333344 3.96317C0.333344 5.23519 0.946182 6.36662 1.89194 7.07822V19.6551C0.946182 20.3667 0.333344 21.4982 0.333344 22.7702C0.333344 24.9187 2.08131 26.6667 4.22983 26.6667C5.50185 26.6667 6.63328 26.0538 7.34488 25.1081H19.9218C20.6334 26.0538 21.7648 26.6667 23.0369 26.6667C25.1854 26.6667 26.9333 24.9187 26.9333 22.7702C26.9333 21.4982 26.3205 20.3667 25.3747 19.6551ZM22.9423 2.04261C23.4979 1.48708 24.4018 1.48698 24.9574 2.04261C25.513 2.5982 25.513 3.50219 24.9574 4.05772C24.1581 4.85712 24.0077 5.00742 23.6932 5.3219C23.5572 4.85879 23.307 4.42238 22.9423 4.05772C22.5776 3.69306 22.1412 3.44285 21.6781 3.30679C21.8907 3.0942 22.4733 2.51154 22.9423 2.04261ZM23.8162 7.40314V18.9521C23.5643 18.9008 23.3037 18.8737 23.0369 18.8737C22.77 18.8737 22.5094 18.9008 22.2576 18.9521V8.96173L23.8162 7.40314ZM21.8402 5.1598C22.3958 5.71539 22.3958 6.61937 21.8402 7.17491C21.3112 7.70395 17.705 11.3102 17.2046 11.8105C16.8113 10.9115 16.0885 10.1887 15.1895 9.79542C15.6894 9.29548 19.2964 5.68858 19.8251 5.1598C20.3807 4.60421 21.2846 4.60421 21.8402 5.1598ZM15.9082 12.826L13.307 13.6931L14.174 11.0919C15.0298 11.2952 15.7048 11.9702 15.9082 12.826ZM8.04791 3.18387H19.5969L18.0383 4.74246H8.04791C8.09924 4.49059 8.12631 4.23 8.12631 3.96317C8.12631 3.69633 8.09924 3.43574 8.04791 3.18387ZM4.22983 1.62527C5.51894 1.62527 6.56772 2.67405 6.56772 3.96317C6.56772 5.25228 5.51894 6.30106 4.22983 6.30106C2.94071 6.30106 1.89194 5.25228 1.89194 3.96317C1.89194 2.67405 2.94071 1.62527 4.22983 1.62527ZM5.78842 12.5874H8.12631V14.146H5.78842C5.35804 14.146 5.00912 14.4949 5.00912 14.9253V18.9521C4.75726 18.9008 4.49666 18.8737 4.22983 18.8737C3.963 18.8737 3.7024 18.9008 3.45053 18.9521V7.78125C3.7024 7.83258 3.963 7.85965 4.22983 7.85965C4.49666 7.85965 4.75726 7.83258 5.00912 7.78125V11.8081C5.00912 12.2385 5.35804 12.5874 5.78842 12.5874ZM4.22983 25.1081C2.94071 25.1081 1.89194 24.0593 1.89194 22.7702C1.89194 21.4811 2.94071 20.4323 4.22983 20.4323C5.51894 20.4323 6.56772 21.4811 6.56772 22.7702C6.56772 24.0593 5.51894 25.1081 4.22983 25.1081ZM19.2188 23.5495H8.04791C8.09924 23.2976 8.12631 23.037 8.12631 22.7702C8.12631 22.5034 8.09924 22.2428 8.04791 21.9909H12.0747C12.5051 21.9909 12.854 21.642 12.854 21.2116V18.8737H14.4126V21.2116C14.4126 21.642 14.7616 21.9909 15.1919 21.9909H19.2188C19.1674 22.2428 19.1404 22.5034 19.1404 22.7702C19.1404 23.037 19.1674 23.2976 19.2188 23.5495ZM19.9218 20.4323H15.9712V18.0944C15.9712 17.664 15.6223 17.3151 15.1919 17.3151H12.0747C11.6444 17.3151 11.2955 17.664 11.2955 18.0944V20.4323H7.34488C7.12362 20.1383 6.86177 19.8764 6.56772 19.6551V15.7046H8.90561C9.33599 15.7046 9.68491 15.3557 9.68491 14.9253V11.8081C9.68491 11.3777 9.33599 11.0288 8.90561 11.0288H6.56772V7.07822C6.86177 6.85695 7.12362 6.59511 7.34488 6.30106H16.4797L13.0863 9.69443C13.0862 9.69458 13.086 9.69474 13.0858 9.69495L13.0823 9.69848C13.0803 9.70045 13.0787 9.70258 13.0768 9.70456C12.8718 9.91377 12.9785 9.74939 11.3354 14.6789C11.2421 14.9589 11.3149 15.2676 11.5237 15.4763C11.7327 15.6855 12.0415 15.7578 12.3212 15.6646C17.2309 14.028 17.0954 14.1194 17.2955 13.9233C17.2974 13.9213 17.2996 13.9197 17.3015 13.9177L17.3051 13.9142C17.3052 13.9141 17.3054 13.9139 17.3056 13.9137L20.699 10.5203V19.6551C20.4049 19.8764 20.1431 20.1383 19.9218 20.4323ZM23.0369 25.1081C21.7477 25.1081 20.699 24.0593 20.699 22.7702C20.699 21.4811 21.7477 20.4323 23.0369 20.4323C24.326 20.4323 25.3747 21.4811 25.3747 22.7702C25.3747 24.0593 24.326 25.1081 23.0369 25.1081Z" fill="white"/>
</svg>
