<svg xmlns="http://www.w3.org/2000/svg" width="26.339" height="26.339" viewBox="0 0 26.339 26.339">
    <defs>
        <style>
            .aitem{fill:#cbcbcb; stroke:none !important}
          .bitem{fill:#acacac;stroke:none !important}  
        </style>
    </defs>
    <g transform="translate(-8 -8)">
        <path class="aitem" d="M19.721,10.194H18.514a3.025,3.025,0,0,0-5.818,0H11.49a.83.83,0,0,0-.823.823v1.646a1.931,1.931,0,0,0,1.921,1.921h6.035a1.931,1.931,0,0,0,1.921-1.921V11.017A.83.83,0,0,0,19.721,10.194Z" transform="translate(1.723)"/>
        <path class="bitem" d="M23.639,10h-.275v1.371a3.016,3.016,0,0,1-3.017,3.017H14.31a3.016,3.016,0,0,1-3.017-3.017V10h-.275A3.016,3.016,0,0,0,8,13.017V26.735a3.016,3.016,0,0,0,3.017,3.019h7.232a9.6,9.6,0,0,1-.91-3.841H12.115a.823.823,0,0,1,0-1.646h5.312a10.1,10.1,0,0,1,.482-1.921H12.115a.823.823,0,0,1,0-1.646H18.7a9.557,9.557,0,0,1,1.526-1.921H12.115a.823.823,0,0,1,0-1.646h10.36a9.466,9.466,0,0,1,4.181-1.086V13.017A3.016,3.016,0,0,0,23.639,10Z" transform="translate(0 1.292)" />
        <path class="aitem" d="M22.408,15a7.408,7.408,0,1,0,7.408,7.408A7.417,7.417,0,0,0,22.408,15Zm3.017,8.506H23.5v1.921a1.1,1.1,0,0,1-2.2,0V23.506H19.387a1.1,1.1,0,0,1,0-2.2h1.921V19.389a1.1,1.1,0,1,1,2.2,0V21.31h1.921a1.1,1.1,0,1,1,0,2.2Z" transform="translate(4.523 4.523)"/>
    </g>
</svg>
