<svg xmlns="http://www.w3.org/2000/svg" width="26.248" height="21.873" viewBox="0 0 26.248 21.873">
    <defs>
        <style>
            .atab{fill:#acacac}
        </style>
    </defs>
    <g transform="translate(-658 -116)">
        <g transform="translate(658 116)">
            <path class="atab" d="M128.547,43.76h18.592a.547.547,0,0,0,0-1.094H128.547a.547.547,0,1,0,0,1.094Z" transform="translate(-128 -42.666)"/>
            <path class="atab" d="M128.547,107.76h10.937a.547.547,0,0,0,0-1.094H128.547a.547.547,0,1,0,0,1.094Z" transform="translate(-120.344 -103.385)"/>
            <path class="atab" d="M128.547,214.427h18.592a.547.547,0,1,0,0-1.094H128.547a.547.547,0,1,0,0,1.094Z" transform="translate(-128 -204.584)"/>
            <path class="atab" d="M128.547,278.427h10.937a.547.547,0,1,0,0-1.094H128.547a.547.547,0,1,0,0,1.094Z" transform="translate(-120.344 -265.303)"/>
            <path class="atab" d="M128.547,385.093h18.592a.547.547,0,0,0,0-1.094H128.547a.547.547,0,0,0,0,1.094Z" transform="translate(-128 -366.5)"/>
            <path class="atab" d="M128.547,449.093h10.937a.547.547,0,1,0,0-1.094H128.547a.547.547,0,1,0,0,1.094Z" transform="translate(-120.344 -427.219)"/>
        </g>
        <g transform="translate(679.873 116)">
            <circle class="atab" cx="2.187" cy="2.187" transform="translate(0)" r="2.187"/>
            <circle class="atab" cx="2.187" cy="2.187" transform="translate(0 8.749)" r="2.187"/>
            <circle class="atab" cx="2.187" cy="2.187" transform="translate(0 17.499)" r="2.187"/>
        </g>
        <path class="atab" d="M128.547,43.76h18.592a.547.547,0,0,0,0-1.094H128.547a.547.547,0,1,0,0,1.094Z" transform="translate(530 73.334)"/>
        <path class="atab" d="M128.547,107.76h10.937a.547.547,0,0,0,0-1.094H128.547a.547.547,0,1,0,0,1.094Z" transform="translate(537.656 12.615)"/>
        <path class="atab" d="M128.547,214.427h18.592a.547.547,0,1,0,0-1.094H128.547a.547.547,0,1,0,0,1.094Z" transform="translate(530 -88.583)"/>
        <path class="atab" d="M128.547,278.427h10.937a.547.547,0,1,0,0-1.094H128.547a.547.547,0,1,0,0,1.094Z" transform="translate(537.656 -149.303)"/>
        <path class="atab" d="M128.547,385.093h18.592a.547.547,0,0,0,0-1.094H128.547a.547.547,0,0,0,0,1.094Z" transform="translate(530 -250.5)"/>
        <path class="atab" d="M2.187,47.041A2.187,2.187,0,1,0,0,44.853,2.187,2.187,0,0,0,2.187,47.041Zm0-3.281a1.094,1.094,0,1,1-1.094,1.094A1.094,1.094,0,0,1,2.187,43.76Z" transform="translate(679.873 73.334)"/>
        <path class="atab" d="M2.187,217.708A2.187,2.187,0,1,0,0,215.52,2.187,2.187,0,0,0,2.187,217.708Zm0-3.281a1.094,1.094,0,1,1-1.094,1.094A1.094,1.094,0,0,1,2.187,214.427Z" transform="translate(679.874 -88.583)"/>
        <path class="atab" d="M2.187,388.375A2.187,2.187,0,1,0,0,386.187,2.187,2.187,0,0,0,2.187,388.375Zm0-3.281a1.094,1.094,0,1,1-1.094,1.094A1.094,1.094,0,0,1,2.187,385.094Z" transform="translate(679.873 -250.501)"/>
    </g>
</svg>
