<svg xmlns="http://www.w3.org/2000/svg" width="11.82" height="11.82" viewBox="0 0 11.82 11.82">
    <defs>
        <style>
            .b1,.c1{fill:#fff}.b1{opacity:1}
        </style>
    </defs>
    <g transform="translate(-23.999 -23.999)" style="opacity:1">
        <path class="b1" d="M232.611,28.891A.611.611,0,0,1,232,28.28V24.611a.611.611,0,1,1,1.223,0V28.28A.611.611,0,0,1,232.611,28.891Z" transform="translate(-202.702 -0.001)"/>
        <path class="c1" d="M171.872,26.852a.61.61,0,0,1-.432-.179l-1.2-1.2-1.2,1.2a.611.611,0,0,1-.865-.865l1.63-1.63a.611.611,0,0,1,.865,0l1.63,1.63a.611.611,0,0,1-.432,1.044Z" transform="translate(-140.332)"/>
        <path class="b1" d="M232.611,300.891a.611.611,0,0,1-.611-.611v-3.668a.611.611,0,0,1,1.223,0v3.668A.611.611,0,0,1,232.611,300.891Z" transform="translate(-202.702 -265.072)"/>
        <path class="c1" d="M170.241,378.853a.61.61,0,0,1-.432-.179l-1.63-1.63a.611.611,0,0,1,.865-.865l1.2,1.2,1.2-1.2a.611.611,0,1,1,.865.865l-1.63,1.63A.61.61,0,0,1,170.241,378.853Z" transform="translate(-140.332 -343.033)"/>
        <path d="M300.28,233.223h-3.668a.611.611,0,0,1,0-1.223h3.668a.611.611,0,0,1,0,1.223Z" transform="translate(-265.072 -202.702)" style="opacity:.87;fill:#fff"/>
        <path class="c1" d="M376.61,172.483a.611.611,0,0,1-.432-1.044l1.2-1.2-1.2-1.2a.611.611,0,1,1,.865-.865l1.63,1.63a.611.611,0,0,1,0,.865l-1.63,1.63A.609.609,0,0,1,376.61,172.483Z" transform="translate(-343.032 -140.332)"/>
        <path class="c1" d="M376.61,172.483a.611.611,0,0,1-.432-1.044l1.2-1.2-1.2-1.2a.611.611,0,1,1,.865-.865l1.63,1.63a.611.611,0,0,1,0,.865l-1.63,1.63A.609.609,0,0,1,376.61,172.483Z" transform="translate(-343.032 -140.332)"/>
        <path class="b1" d="M28.28,233.223H24.611a.611.611,0,1,1,0-1.223H28.28a.611.611,0,1,1,0,1.223Z" transform="translate(-0.001 -202.702)"/>
        <path class="c1" d="M26.241,172.483a.609.609,0,0,1-.432-.179l-1.63-1.63a.611.611,0,0,1,0-.865l1.63-1.63a.611.611,0,0,1,.865.865l-1.2,1.2,1.2,1.2a.611.611,0,0,1-.432,1.044Z" transform="translate(0 -140.332)"/>
        <path class="c1" d="M26.241,172.483a.609.609,0,0,1-.432-.179l-1.63-1.63a.611.611,0,0,1,0-.865l1.63-1.63a.611.611,0,0,1,.865.865l-1.2,1.2,1.2,1.2a.611.611,0,0,1-.432,1.044Z" transform="translate(0 -140.332)"/>
    </g>
</svg>
