<svg xmlns="http://www.w3.org/2000/svg" width="10.962" height="13.201" viewBox="0 0 10.962 13.201"><defs><style>.a{fill:#ebebeb;}</style></defs><g transform="translate(0.327 0.002)"><path class="a" d="M222.9,154.7c-.276,0-.5.133-.5.3v5.606c0,.164.224.3.5.3s.5-.133.5-.3V155C223.4,154.836,223.174,154.7,222.9,154.7Zm0,0" transform="translate(-215.805 -150.116)"/><path class="a" d="M104.9,154.7c-.276,0-.5.133-.5.3v5.606c0,.164.224.3.5.3s.5-.133.5-.3V155C105.4,154.836,105.174,154.7,104.9,154.7Zm0,0" transform="translate(-101.801 -150.117)"/><path class="a" d="M.465,3.769v7.307a2.615,2.615,0,0,0,.566,1.432,2.351,2.351,0,0,0,1.3.691H8.153a2.063,2.063,0,0,0,1.191-.691,2.576,2.576,0,0,0,.528-1.432V3.769a1.2,1.2,0,0,0,.752-1.351c-.074-.564-.905-1-1.474-1H7.631V1.17A1.165,1.165,0,0,0,6.456,0H3.823A1.165,1.165,0,0,0,2.648,1.17v.249H1.13A1.616,1.616,0,0,0-.316,2.527,1.1,1.1,0,0,0,.465,3.769Zm7.48,8.3H2.334a.939.939,0,0,1-.9-.994V3.795H8.847v7.281a.939.939,0,0,1-.9.994Zm-4.7-10.9A.571.571,0,0,1,3.823.592H6.456a.571.571,0,0,1,.581.578v.249h-3.8ZM1.13,2.23H9.15c.295,0,.615.143.615.438s-.32.406-.615.406H1.13c-.295,0-.664-.111-.664-.406S.835,2.23,1.13,2.23Zm.07.188" transform="translate(0 0)"/><path class="a" d="M163.9,154.7c-.276,0-.5.133-.5.3v5.606c0,.164.224.3.5.3s.5-.133.5-.3V155C164.4,154.836,164.174,154.7,163.9,154.7Zm0,0" transform="translate(-158.851 -150.116)"/></g></svg>