<svg xmlns="http://www.w3.org/2000/svg" width="93.57" height="70.142" viewBox="0 0 93.57 70.142">
    <defs>
        <style>
            .a{fill:#2979ff}
        </style>
    </defs>
    <g transform="translate(-13.601)">
        <g transform="translate(13.601 20.091)">
            <path class="a" d="M105.241,193.965h-4.233V150.337c0-2.03-2.328-3.683-5.188-3.683H86.357c-2.861,0-5.188,1.652-5.188,3.683v43.628H70.42V170.1c0-2.031-2.327-3.683-5.188-3.683H55.769c-2.861,0-5.188,1.652-5.188,3.683v23.861H39.832V181.607c0-2.031-2.328-3.683-5.188-3.683H25.181c-2.861,0-5.188,1.652-5.188,3.683v12.358H15.531c-1.066,0-1.93.613-1.93,1.37s.864,1.37,1.93,1.37h89.71c1.066,0,1.93-.613,1.93-1.37S106.307,193.965,105.241,193.965Zm-69.27,0H23.853V181.607c0-.52.6-.943,1.328-.943h9.462c.732,0,1.328.423,1.328.943Zm30.588,0H54.441V170.1c0-.52.6-.943,1.328-.943h9.462c.732,0,1.328.423,1.328.943Zm30.588,0H85.029V150.337c0-.52.6-.943,1.328-.943h9.462c.732,0,1.328.423,1.328.943Z" transform="translate(-13.601 -146.654)"/>
        </g>
        <g transform="translate(30.151)">
            <path class="a" d="M170.2,1.441a1.18,1.18,0,0,0-.56-1.04,2.41,2.41,0,0,0-1.465-.4c-.031,0-.062,0-.093,0H156.4c-1.066,0-1.93.613-1.93,1.37s.864,1.37,1.93,1.37h7.21l-19.08,13.543-7.2-5.107a2.522,2.522,0,0,0-2.73,0L99.912,35.8a1.113,1.113,0,0,0,0,1.938,2.522,2.522,0,0,0,2.729,0l33.332-23.659,7.2,5.107a2.522,2.522,0,0,0,2.73,0L166.343,4.677V9.309c0,.757.864,1.37,1.93,1.37s1.93-.613,1.93-1.37v-7.8C170.2,1.485,170.2,1.463,170.2,1.441Z" transform="translate(-99.346)"/>
        </g>
        <g transform="translate(23.645 40.182)">
            <ellipse class="a" cx="1.93" cy="1.37" rx="1.93" ry="1.37"/>
        </g>
    </g>
</svg>
