<svg width="25" height="24" viewBox="0 0 25 24" fill="none" xmlns="http://www.w3.org/2000/svg">
<path d="M20.6406 0H4.64062C2.43149 0 0.640625 1.79086 0.640625 4V20C0.640625 22.2091 2.43149 24 4.64062 24H20.6406C22.8498 24 24.6406 22.2091 24.6406 20V4C24.6406 1.79086 22.8498 0 20.6406 0Z" fill="#B5FFE6"/>
<path d="M10.7677 17.9722C10.6145 18.1253 10.4068 18.2113 10.1902 18.2113C9.97363 18.2113 9.76591 18.1253 9.61271 17.9722L4.99971 13.3582C4.88587 13.2444 4.79557 13.1094 4.73395 12.9607C4.67234 12.812 4.64062 12.6526 4.64062 12.4917C4.64062 12.3308 4.67234 12.1714 4.73395 12.0227C4.79557 11.874 4.88587 11.739 4.99971 11.6252L5.57771 11.0472C5.69148 10.9334 5.82656 10.8431 5.97523 10.7814C6.12391 10.7198 6.28327 10.6881 6.44421 10.6881C6.60515 10.6881 6.76451 10.7198 6.91319 10.7814C7.06187 10.8431 7.19695 10.9334 7.31071 11.0472L10.1907 13.9272L17.9717 6.1462C18.0855 6.03236 18.2206 5.94205 18.3692 5.88044C18.5179 5.81882 18.6773 5.78711 18.8382 5.78711C18.9992 5.78711 19.1585 5.81882 19.3072 5.88044C19.4559 5.94205 19.591 6.03236 19.7047 6.1462L20.2827 6.7242C20.3966 6.83796 20.4869 6.97304 20.5485 7.12172C20.6101 7.2704 20.6418 7.42976 20.6418 7.5907C20.6418 7.75164 20.6101 7.911 20.5485 8.05968C20.4869 8.20836 20.3966 8.34344 20.2827 8.4572L10.7677 17.9722Z" fill="#4AD295"/>
</svg>