<svg width="29" height="29" viewBox="0 0 29 29" fill="none" xmlns="http://www.w3.org/2000/svg">
<path d="M18 15C18.2761 15 18.5 14.7761 18.5 14.5C18.5 14.2239 18.2761 14 18 14H15.5V6C15.5 5.72386 15.7239 5.5 16 5.5H18C18.2761 5.5 18.5 5.27614 18.5 5C18.5 4.72386 18.2761 4.5 18 4.5H16C15.1716 4.5 14.5 5.17157 14.5 6V14H12C11.7239 14 11.5 14.2239 11.5 14.5C11.5 14.7761 11.7239 15 12 15H14.5V23C14.5 23.8284 15.1716 24.5 16 24.5H18C18.2761 24.5 18.5 24.2761 18.5 24C18.5 23.7239 18.2761 23.5 18 23.5H16C15.7239 23.5 15.5 23.2761 15.5 23V15H18Z" fill="#2FA8CC"/>
<path d="M0 8.5V20.5C0 21.605 2.685 22.5 6 22.5C9.315 22.5 12 21.605 12 20.5V8.5H0Z" fill="#94CCF8"/>
<path d="M0 16.5C0 17.6045 2.6865 18.5 6 18.5C9.3135 18.5 12 17.6045 12 16.5V12.5C12 13.6045 9.3135 14.5 6 14.5C2.6865 14.5 0 13.6045 0 12.5V16.5Z" fill="#51B0FB"/>
<path d="M2 12.5C2.27614 12.5 2.5 12.2761 2.5 12C2.5 11.7239 2.27614 11.5 2 11.5C1.72386 11.5 1.5 11.7239 1.5 12C1.5 12.2761 1.72386 12.5 2 12.5Z" fill="#F0C419"/>
<path d="M2 16.5C2.27614 16.5 2.5 16.2761 2.5 16C2.5 15.7239 2.27614 15.5 2 15.5C1.72386 15.5 1.5 15.7239 1.5 16C1.5 16.2761 1.72386 16.5 2 16.5Z" fill="#F0C419"/>
<path d="M2 20.5C2.27614 20.5 2.5 20.2761 2.5 20C2.5 19.7239 2.27614 19.5 2 19.5C1.72386 19.5 1.5 19.7239 1.5 20C1.5 20.2761 1.72386 20.5 2 20.5Z" fill="#F0C419"/>
<path d="M6 10.5C9.31371 10.5 12 9.49264 12 8.25C12 7.00736 9.31371 6 6 6C2.68629 6 0 7.00736 0 8.25C0 9.49264 2.68629 10.5 6 10.5Z" fill="#CCE9FF"/>
<path d="M29 3V7C28.9983 7.5516 28.5516 7.99835 28 8H19C18.4484 7.99835 18.0016 7.5516 18 7V1C18.0016 0.4484 18.4484 0.00164788 19 4.76837e-07H22C22.5523 4.76837e-07 23 0.447716 23 1C23 1.55229 23.4477 2 24 2H28C28.5523 2 29 2.44772 29 3Z" fill="#F0C419"/>
<path d="M29 13.5V17.5C28.9983 18.0516 28.5516 18.4984 28 18.5H19C18.4484 18.4984 18.0016 18.0516 18 17.5V11.5C18.0016 10.9484 18.4484 10.5016 19 10.5H22C22.5523 10.5 23 10.9477 23 11.5C23 12.0523 23.4477 12.5 24 12.5H28C28.5523 12.5 29 12.9477 29 13.5Z" fill="#F0C419"/>
<path d="M29 24V28C28.9983 28.5516 28.5516 28.9983 28 29H19C18.4484 28.9983 18.0016 28.5516 18 28V22C18.0016 21.4484 18.4484 21.0016 19 21H22C22.5523 21 23 21.4477 23 22C23 22.5523 23.4477 23 24 23H28C28.5523 23 29 23.4477 29 24Z" fill="#F0C419"/>
<path d="M20 6.5C20.2761 6.5 20.5 6.27614 20.5 6C20.5 5.72386 20.2761 5.5 20 5.5C19.7239 5.5 19.5 5.72386 19.5 6C19.5 6.27614 19.7239 6.5 20 6.5Z" fill="#F29C1F"/>
<path d="M20 4.5C20.2761 4.5 20.5 4.27614 20.5 4C20.5 3.72386 20.2761 3.5 20 3.5C19.7239 3.5 19.5 3.72386 19.5 4C19.5 4.27614 19.7239 4.5 20 4.5Z" fill="#F29C1F"/>
<path d="M20 17C20.2761 17 20.5 16.7761 20.5 16.5C20.5 16.2239 20.2761 16 20 16C19.7239 16 19.5 16.2239 19.5 16.5C19.5 16.7761 19.7239 17 20 17Z" fill="#F29C1F"/>
<path d="M20 15C20.2761 15 20.5 14.7761 20.5 14.5C20.5 14.2239 20.2761 14 20 14C19.7239 14 19.5 14.2239 19.5 14.5C19.5 14.7761 19.7239 15 20 15Z" fill="#F29C1F"/>
<path d="M20 27.5C20.2761 27.5 20.5 27.2761 20.5 27C20.5 26.7239 20.2761 26.5 20 26.5C19.7239 26.5 19.5 26.7239 19.5 27C19.5 27.2761 19.7239 27.5 20 27.5Z" fill="#F29C1F"/>
<path d="M20 25.5C20.2761 25.5 20.5 25.2761 20.5 25C20.5 24.7239 20.2761 24.5 20 24.5C19.7239 24.5 19.5 24.7239 19.5 25C19.5 25.2761 19.7239 25.5 20 25.5Z" fill="#F29C1F"/>
</svg>
