<svg width="25" height="25" viewBox="0 0 30 35" fill="none" xmlns="http://www.w3.org/2000/svg">
<circle cx="17.0551" cy="17.0551" r="17.0551" fill="#2979FF"/>
<path d="M19.0429 8.72398H15.6588V9.25689H14.4366V8.64938C14.4365 8.05979 14.9488 7.58008 15.5784 7.58008H19.1232C19.7529 7.58008 20.2651 8.05979 20.2651 8.64938V9.25689H19.0429V8.72398Z" fill="white"/>
<path d="M11.6145 13.7888H23.0877C23.402 13.7888 23.6495 14.0398 23.6242 14.3332L22.665 25.4333C22.6116 26.0529 22.0593 26.5302 21.3958 26.5302H13.3066C12.6431 26.5302 12.0908 26.0529 12.0373 25.4331L11.0782 14.3332C11.0527 14.0398 11.3001 13.7888 11.6145 13.7888ZM20.3096 25.3462C20.3224 25.347 20.3352 25.3474 20.3479 25.3474C20.6683 25.3474 20.9373 25.1139 20.9572 24.8106L21.5583 15.698C21.579 15.3826 21.3227 15.1113 20.9859 15.0919C20.6502 15.0728 20.359 15.3121 20.3383 15.6276L19.7374 24.7402C19.7165 25.0555 19.9728 25.3267 20.3096 25.3462ZM16.7332 24.7754C16.7332 25.0912 17.0068 25.3472 17.3443 25.3472C17.6818 25.3472 17.9554 25.0912 17.9554 24.7754V15.6627C17.9554 15.3468 17.6818 15.0907 17.3443 15.0907C17.0069 15.0907 16.7332 15.3468 16.7332 15.6627V24.7754ZM13.1439 15.6964L13.7178 24.809C13.7368 25.1129 14.0062 25.3472 14.3272 25.3472C14.3393 25.3472 14.3515 25.347 14.3637 25.3464C14.7006 25.3277 14.9577 25.0571 14.9378 24.7418L14.364 15.629C14.3442 15.3137 14.056 15.0731 13.7181 15.0918C13.3812 15.1103 13.1241 15.3811 13.1439 15.6964Z" fill="white"/>
<path d="M9.50148 12.0239L9.90283 10.8979C10.0087 10.6011 10.3056 10.4009 10.64 10.4009H24.0629C24.3972 10.4009 24.6943 10.6011 24.8 10.8979L25.2013 12.0239C25.2787 12.2411 25.178 12.4626 24.99 12.573C24.9133 12.618 24.8227 12.645 24.723 12.645H9.97976C9.88012 12.645 9.78929 12.618 9.71282 12.5729C9.52481 12.4624 9.42409 12.2409 9.50148 12.0239Z" fill="white"/>
</svg>
