<svg xmlns="http://www.w3.org/2000/svg" width="13.821" height="13.821" viewBox="0 0 13.821 13.821"><defs><style>.a,.b,.c{fill:#fff;}.a{opacity:0.9;}.c{opacity:0.87;}</style></defs><g transform="translate(-23.999 -23.999)"><path class="a" d="M232.715,29.719A.715.715,0,0,1,232,29V24.715a.715.715,0,1,1,1.43,0V29A.715.715,0,0,1,232.715,29.719Z" transform="translate(-201.805 -0.001)"/><path class="b" d="M172.527,27.335a.713.713,0,0,1-.506-.209l-1.4-1.4-1.4,1.4a.715.715,0,0,1-1.011-1.011l1.906-1.906a.715.715,0,0,1,1.011,0l1.906,1.906a.715.715,0,0,1-.506,1.22Z" transform="translate(-139.711)"/><path class="a" d="M232.715,301.719A.715.715,0,0,1,232,301v-4.289a.715.715,0,1,1,1.43,0V301A.715.715,0,0,1,232.715,301.719Z" transform="translate(-201.805 -263.899)"/><path class="b" d="M170.621,379.336a.713.713,0,0,1-.506-.209l-1.906-1.906a.715.715,0,1,1,1.011-1.011l1.4,1.4,1.4-1.4a.715.715,0,1,1,1.011,1.011l-1.906,1.906A.713.713,0,0,1,170.621,379.336Z" transform="translate(-139.711 -341.515)"/><path class="c" d="M301,233.43h-4.289a.715.715,0,1,1,0-1.43H301a.715.715,0,1,1,0,1.43Z" transform="translate(-263.899 -201.805)"/><path class="b" d="M376.713,173.242a.715.715,0,0,1-.506-1.22l1.4-1.4-1.4-1.4a.715.715,0,1,1,1.011-1.011l1.906,1.906a.715.715,0,0,1,0,1.011l-1.906,1.906A.713.713,0,0,1,376.713,173.242Z" transform="translate(-341.514 -139.711)"/><path class="b" d="M376.713,173.242a.715.715,0,0,1-.506-1.22l1.4-1.4-1.4-1.4a.715.715,0,1,1,1.011-1.011l1.906,1.906a.715.715,0,0,1,0,1.011l-1.906,1.906A.713.713,0,0,1,376.713,173.242Z" transform="translate(-341.514 -139.711)"/><path class="a" d="M29,233.43H24.715a.715.715,0,1,1,0-1.43H29a.715.715,0,1,1,0,1.43Z" transform="translate(-0.001 -201.805)"/><path class="b" d="M26.62,173.242a.713.713,0,0,1-.506-.209l-1.906-1.906a.715.715,0,0,1,0-1.011l1.906-1.906a.715.715,0,0,1,1.011,1.011l-1.4,1.4,1.4,1.4a.715.715,0,0,1-.506,1.22Z" transform="translate(0 -139.711)"/><path class="b" d="M26.62,173.242a.713.713,0,0,1-.506-.209l-1.906-1.906a.715.715,0,0,1,0-1.011l1.906-1.906a.715.715,0,0,1,1.011,1.011l-1.4,1.4,1.4,1.4a.715.715,0,0,1-.506,1.22Z" transform="translate(0 -139.711)"/></g></svg>