<svg xmlns="http://www.w3.org/2000/svg" width="14.515" height="16.128" viewBox="0 0 14.515 16.128">
    <defs>
        <style>
            .aexport{fill:#fff;}
        </style>
    </defs>
    <g transform="translate(-3.384)">
        <path class="aexport" d="M15.2,23.348h-2.41v1.43H15.2c.717,0,1.273.366,1.273.681V31.8c0,.315-.556.681-1.273.681H6.087c-.717,0-1.273-.366-1.273-.681V25.459c0-.315.556-.681,1.273-.681H8.5v-1.43H6.087c-1.516,0-2.7.927-2.7,2.111V31.8c0,1.184,1.187,2.111,2.7,2.111H15.2c1.515,0,2.7-.927,2.7-2.111V25.459C17.9,24.275,16.712,23.348,15.2,23.348Z" transform="translate(0 -17.783)"/>
        <path class="aexport" d="M22.671,3.564a.712.712,0,0,0,.506-.209l.9-.9V9.734a.715.715,0,0,0,1.43,0V2.411l.944.944a.715.715,0,0,0,1.011-1.011L25.322.209A.712.712,0,0,0,24.817,0h-.011A.712.712,0,0,0,24.3.209L22.166,2.344a.715.715,0,0,0,.506,1.221Z" transform="translate(-14.146 0)"/>
    </g>
</svg>
