<svg xmlns="http://www.w3.org/2000/svg" width="21.146" height="26.051" viewBox="0 0 21.146 26.051">
  <g id="test_2_" data-name="test (2)" transform="translate(-48.2 0)">
    <path id="Path_1092" data-name="Path 1092" d="M69.122,6.764,62.582.225A.763.763,0,0,0,62.043,0H51.007A2.81,2.81,0,0,0,48.2,2.808V23.245a2.81,2.81,0,0,0,2.807,2.807H66.539a2.81,2.81,0,0,0,2.807-2.807V7.3A.763.763,0,0,0,69.122,6.764Z" transform="translate(0 -0.001)" fill="#94ccf8"/>
    <path id="Path_1093" data-name="Path 1093" d="M266.35,6.764l-6.54-6.54a.763.763,0,0,0-.54-.224H256v26.05h7.766a2.81,2.81,0,0,0,2.807-2.807V7.3A.763.763,0,0,0,266.35,6.764Z" transform="translate(-197.228 -0.001)" fill="#51b0fb"/>
    <path id="Path_1094" data-name="Path 1094" d="M116.5,229.729h-3.27a.763.763,0,0,1-.763-.763V225.7a.763.763,0,0,1,.763-.763h3.27a.763.763,0,0,1,.763.763v3.27A.763.763,0,0,1,116.5,229.729Zm-2.507-1.526h1.743v-1.744h-1.743Z" transform="translate(-60.997 -213.489)" fill="#0165b4"/>
    <path id="Path_1095" data-name="Path 1095" d="M116.5,358.263h-3.27a.763.763,0,0,1-.763-.763v-3.27a.763.763,0,0,1,.763-.763h3.27a.763.763,0,0,1,.763.763v3.27A.763.763,0,0,1,116.5,358.263Zm-2.507-1.526h1.743v-1.743h-1.743Z" transform="translate(-60.997 -335.483)" fill="#0165b4"/>
    <g id="Group_669" data-name="Group 669" transform="translate(58.773 11.444)">
      <path id="Path_1096" data-name="Path 1096" d="M259.27,226.459h-2.507a.763.763,0,0,1,0-1.526h2.507a.763.763,0,0,1,0,1.526Z" transform="translate(-256 -224.933)" fill="#fff"/>
      <path id="Path_1097" data-name="Path 1097" d="M262.54,290.727h-5.777a.763.763,0,0,1,0-1.526h5.777a.763.763,0,1,1,0,1.526Z" transform="translate(-256 -285.931)" fill="#fff"/>
      <path id="Path_1098" data-name="Path 1098" d="M259.27,354.994h-2.507a.763.763,0,0,1,0-1.526h2.507a.763.763,0,0,1,0,1.526Z" transform="translate(-256 -346.928)" fill="#fff"/>
      <path id="Path_1099" data-name="Path 1099" d="M262.54,419.26h-5.777a.763.763,0,0,1,0-1.526h5.777a.763.763,0,1,1,0,1.526Z" transform="translate(-256 -407.924)" fill="#fff"/>
    </g>
    <path id="Path_1100" data-name="Path 1100" d="M117.318,81.86H113.23a.763.763,0,1,1,0-1.526h4.087a.763.763,0,1,1,0,1.526Z" transform="translate(-60.997 -76.247)" fill="#fff"/>
    <path id="Path_1101" data-name="Path 1101" d="M119.007,146.126H113.23a.763.763,0,1,1,0-1.526h5.777a.763.763,0,0,1,0,1.526Z" transform="translate(-60.997 -137.243)" fill="#fff"/>
    <path id="Path_1102" data-name="Path 1102" d="M313.109,6.763l-6.54-6.54a.763.763,0,0,0-1.3.54v4.5a2.81,2.81,0,0,0,2.807,2.807h4.5a.763.763,0,0,0,.54-1.3Z" transform="translate(-243.986 0)" fill="#a8c4db"/>
  </g>
</svg>
