<svg xmlns="http://www.w3.org/2000/svg" width="127" height="50" viewBox="0 0 111 39">
  <g id="Group_124" data-name="Group 124" transform="translate(-934.5 -189)">
    <rect id="Rectangle_149" data-name="Rectangle 149" width="110" height="8" transform="translate(935 189)" fill="#9bbb59"/>
    <rect id="Rectangle_157" data-name="Rectangle 157" width="88" height="8" transform="translate(935 197)" fill="#e6eed5"/>
    <rect id="Rectangle_164" data-name="Rectangle 164" width="88" height="8" transform="translate(935 204)" fill="#cdddac"/>
    <rect id="Rectangle_168" data-name="Rectangle 168" width="88" height="8" transform="translate(935 212)" fill="#e6eed5"/>
    <rect id="Rectangle_172" data-name="Rectangle 172" width="88" height="8" transform="translate(935 220)" fill="#cdddac"/>
    <rect id="Rectangle_151" data-name="Rectangle 151" width="30.708" height="21.5" transform="translate(1023.5 227.958) rotate(-90)" fill="#9bbb59"/>
    <rect id="Rectangle_150" data-name="Rectangle 150" width="0.5" height="8" transform="translate(957 189)" fill="#fff"/>
    <rect id="Rectangle_150-2" data-name="Rectangle 150" width="0.5" height="8" transform="translate(979 189)" fill="#fff"/>
    <rect id="Rectangle_160" data-name="Rectangle 160" width="0.5" height="8" transform="translate(957 197)" fill="#fff"/>
    <rect id="Rectangle_167" data-name="Rectangle 167" width="0.5" height="8" transform="translate(957 204)" fill="#fff"/>
    <rect id="Rectangle_171" data-name="Rectangle 171" width="0.5" height="8" transform="translate(957 212)" fill="#fff"/>
    <rect id="Rectangle_175" data-name="Rectangle 175" width="0.5" height="8" transform="translate(957 220)" fill="#fff"/>
    <rect id="Rectangle_155" data-name="Rectangle 155" width="0.5" height="110.5" transform="translate(934.5 220.475) rotate(-90)" fill="#fff"/>
    <rect id="Rectangle_150-3" data-name="Rectangle 150" width="0.5" height="8" transform="translate(1001 189)" fill="#fff"/>
    <rect id="Rectangle_161" data-name="Rectangle 161" width="0.5" height="8" transform="translate(979 197)" fill="#fff"/>
    <rect id="Rectangle_166" data-name="Rectangle 166" width="0.5" height="8" transform="translate(979 204)" fill="#fff"/>
    <rect id="Rectangle_170" data-name="Rectangle 170" width="0.5" height="8" transform="translate(979 212)" fill="#fff"/>
    <rect id="Rectangle_174" data-name="Rectangle 174" width="0.5" height="8" transform="translate(979 220)" fill="#fff"/>
    <rect id="Rectangle_152" data-name="Rectangle 152" width="0.5" height="110.5" transform="translate(934.5 212.733) rotate(-90)" fill="#fff"/>
    <rect id="Rectangle_150-4" data-name="Rectangle 150" width="0.5" height="8" transform="translate(1023 189)" fill="#fff"/>
    <rect id="Rectangle_162" data-name="Rectangle 162" width="0.5" height="8" transform="translate(1001 197)" fill="#fff"/>
    <rect id="Rectangle_165" data-name="Rectangle 165" width="0.5" height="8" transform="translate(1001 204)" fill="#fff"/>
    <rect id="Rectangle_169" data-name="Rectangle 169" width="0.5" height="8" transform="translate(1001 212)" fill="#fff"/>
    <rect id="Rectangle_173" data-name="Rectangle 173" width="0.5" height="8" transform="translate(1001 220)" fill="#fff"/>
    <rect id="Rectangle_153" data-name="Rectangle 153" width="0.5" height="110.5" transform="translate(934.5 203.992) rotate(-90)" fill="#fff"/>
    <rect id="Rectangle_150-5" data-name="Rectangle 150" width="0.5" height="8" transform="translate(1045 189)" fill="#fff"/>
    <rect id="Rectangle_163" data-name="Rectangle 163" width="0.5" height="8" transform="translate(1023 197)" fill="#fff"/>
    <rect id="Rectangle_154" data-name="Rectangle 154" width="0.5" height="110.5" transform="translate(934.5 197.25) rotate(-90)" fill="#fff"/>
    <g id="Group_119" data-name="Group 119">
      <rect id="Rectangle_176" data-name="Rectangle 176" width="4" height="0.5" transform="translate(1032 193)" fill="#fff"/>
      <rect id="Rectangle_177" data-name="Rectangle 177" width="4" height="0.5" transform="translate(1010 193)" fill="#fff"/>
      <rect id="Rectangle_182" data-name="Rectangle 182" width="4" height="0.5" transform="translate(988 192)" fill="#fff"/>
      <rect id="Rectangle_187" data-name="Rectangle 187" width="4" height="0.5" transform="translate(966 192)" fill="#fff"/>
      <rect id="Rectangle_192" data-name="Rectangle 192" width="4" height="0.5" transform="translate(944 192)" fill="#fff"/>
      <rect id="Rectangle_176-2" data-name="Rectangle 176" width="4" height="0.5" transform="translate(1032 201)" fill="#fff"/>
      <rect id="Rectangle_178" data-name="Rectangle 178" width="4" height="0.5" transform="translate(1010 201)" fill="#fff"/>
      <rect id="Rectangle_183" data-name="Rectangle 183" width="4" height="0.5" transform="translate(988 200)" fill="#fff"/>
      <rect id="Rectangle_188" data-name="Rectangle 188" width="4" height="0.5" transform="translate(966 200)" fill="#fff"/>
      <rect id="Rectangle_193" data-name="Rectangle 193" width="4" height="0.5" transform="translate(944 200)" fill="#fff"/>
      <rect id="Rectangle_176-3" data-name="Rectangle 176" width="4" height="0.5" transform="translate(1032 209)" fill="#fff"/>
      <rect id="Rectangle_179" data-name="Rectangle 179" width="4" height="0.5" transform="translate(1010 209)" fill="#fff"/>
      <rect id="Rectangle_184" data-name="Rectangle 184" width="4" height="0.5" transform="translate(988 208)" fill="#fff"/>
      <rect id="Rectangle_189" data-name="Rectangle 189" width="4" height="0.5" transform="translate(966 208)" fill="#fff"/>
      <rect id="Rectangle_194" data-name="Rectangle 194" width="4" height="0.5" transform="translate(944 208)" fill="#fff"/>
      <rect id="Rectangle_176-4" data-name="Rectangle 176" width="4" height="0.5" transform="translate(1032 217)" fill="#fff"/>
      <rect id="Rectangle_180" data-name="Rectangle 180" width="4" height="0.5" transform="translate(1010 217)" fill="#fff"/>
      <rect id="Rectangle_185" data-name="Rectangle 185" width="4" height="0.5" transform="translate(988 216)" fill="#fff"/>
      <rect id="Rectangle_190" data-name="Rectangle 190" width="4" height="0.5" transform="translate(966 216)" fill="#fff"/>
      <rect id="Rectangle_195" data-name="Rectangle 195" width="4" height="0.5" transform="translate(944 216)" fill="#fff"/>
      <rect id="Rectangle_176-5" data-name="Rectangle 176" width="4" height="0.5" transform="translate(1032 225)" fill="#fff"/>
      <rect id="Rectangle_181" data-name="Rectangle 181" width="4" height="0.5" transform="translate(1010 225)" fill="#fff"/>
      <rect id="Rectangle_186" data-name="Rectangle 186" width="4" height="0.5" transform="translate(988 224)" fill="#fff"/>
      <rect id="Rectangle_191" data-name="Rectangle 191" width="4" height="0.5" transform="translate(966 224)" fill="#fff"/>
      <rect id="Rectangle_196" data-name="Rectangle 196" width="4" height="0.5" transform="translate(944 224)" fill="#fff"/>
    </g>
  </g>
</svg>
