<svg xmlns="http://www.w3.org/2000/svg" width="18.975" height="19" viewBox="0 0 18.975 19"><defs><style>.a{fill:#5ca4da;}.b{fill:#6dafe0;}.c{fill:#fff;}</style></defs><g transform="translate(0 0)"><path class="a" d="M17.205,17.867C14.3,20.24,5.22,20.24,2.372,17.867c-2.907-2.373-2.611-12.519,0-15.189s12.223-2.67,14.834,0S20.113,15.493,17.205,17.867Z" transform="translate(-0.301 -0.647)"/><path class="b" d="M10.048,13.067a13.892,13.892,0,0,1-8.247,3.2C-.217,12.83.2,4.464,2.571,2.031,4.708-.164,11.412-.58,15.269.785,16.218,4.7,14.26,9.685,10.048,13.067Z" transform="translate(-0.501 0)"/><path class="c" d="M144.521,92.655H141.97V91.409a2.028,2.028,0,0,1,.178-1.009,4.081,4.081,0,0,1,.771-.949l1.127-1.187a1.094,1.094,0,0,0,.237-.771.911.911,0,0,0-.3-.771.8.8,0,0,0-.712-.3.846.846,0,0,0-.712.356,2.243,2.243,0,0,0-.356,1.009h-2.67a3.776,3.776,0,0,1,1.246-2.611,4.192,4.192,0,0,1,5.162-.119,3.044,3.044,0,0,1,1.009,2.373,2.189,2.189,0,0,1-.178,1.009l-.237.475c-.059.119-.178.237-.3.415l-.356.356-.771.771a1.863,1.863,0,0,0-.475.593,1.831,1.831,0,0,0-.119.653v.949Zm-2.729,2.136a1.483,1.483,0,1,1,1.483,1.483A1.469,1.469,0,0,1,141.792,94.791Z" transform="translate(-133.728 -80.716)"/></g></svg>