<svg width="30" height="28" viewBox="0 0 30 21" fill="none" xmlns="http://www.w3.org/2000/svg">
<path d="M28.497 0.5H1.26697C0.788973 0.5 0.396973 1.184 0.396973 2.021C0.396973 2.858 0.787973 3.542 1.26697 3.542H28.497C28.975 3.542 29.367 2.858 29.367 2.021C29.367 1.184 28.974 0.5 28.497 0.5Z" fill="#5E5E5E"/>
<path d="M28.495 9.082H9.44398C8.96598 9.082 8.57397 9.757 8.57397 10.582C8.57397 11.407 8.96498 12.082 9.44398 12.082H28.496C28.974 12.082 29.366 11.407 29.366 10.582C29.366 9.757 28.974 9.082 28.495 9.082Z" fill="#5E5E5E"/>
<path d="M28.855 17.76H12.855C12.574 17.76 12.344 18.403 12.344 19.189C12.344 19.975 12.574 20.618 12.855 20.618H28.855C29.136 20.618 29.366 19.975 29.366 19.189C29.366 18.403 29.136 17.76 28.855 17.76Z" fill="#5E5E5E"/>
</svg>
