<svg width="33" height="43" viewBox="0 0 33 43" fill="none" xmlns="http://www.w3.org/2000/svg">
<path d="M32.3702 37.4027C32.7181 37.4027 33 37.1267 33 36.7862V7.60307C33 7.26262 32.7181 6.98661 32.3702 6.98661H30.4809V4.10977C30.4809 3.76932 30.199 3.4933 29.8511 3.4933H27.9617V0.616465C27.9617 0.276012 27.6798 0 27.3319 0H0.629771C0.281885 0 0 0.276012 0 0.616465V2.61981C0 2.96027 0.281885 3.23628 0.629771 3.23628C0.977656 3.23628 1.25954 2.96027 1.25954 2.61981V1.23293H26.7021V33.8645H1.25954V5.3016C1.25954 4.96115 0.977656 4.68514 0.629771 4.68514C0.281885 4.68514 0 4.96115 0 5.3016V34.481C0 34.8214 0.281885 35.0974 0.629771 35.0974H2.51925V37.9743C2.51925 38.3147 2.80114 38.5907 3.14902 38.5907H5.03834V41.4676C5.03834 41.808 5.32022 42.084 5.66811 42.084H32.3702C32.7181 42.084 33 41.808 33 41.4676V39.4299C33 39.0894 32.7181 38.8134 32.3702 38.8134C32.0223 38.8134 31.7405 39.0894 31.7405 39.4299V40.8511H6.29788V38.5907H9.1693C9.51718 38.5907 9.79907 38.3147 9.79907 37.9743C9.79907 37.6338 9.51718 37.3578 9.1693 37.3578H3.77879V35.0974H27.3319C27.6798 35.0974 27.9617 34.8214 27.9617 34.481V4.72623H29.2214V37.3578H11.8797C11.5319 37.3578 11.25 37.6338 11.25 37.9743C11.25 38.3147 11.5319 38.5907 11.8797 38.5907H29.8511C30.199 38.5907 30.4809 38.3147 30.4809 37.9743V8.21954H31.7405V36.7862C31.7405 37.1267 32.0223 37.4027 32.3702 37.4027Z" fill="#5E5E5E"/>
<path d="M22.9115 10.2318V5.30006C22.9115 4.95961 22.6296 4.68359 22.2817 4.68359H5.65321C5.30532 4.68359 5.02344 4.95961 5.02344 5.30006V10.2318C5.02344 10.5722 5.30532 10.8482 5.65321 10.8482H22.2816C22.6295 10.8482 22.9115 10.5722 22.9115 10.2318ZM21.6519 9.61532H6.28298V5.91652H21.6518V9.61532H21.6519Z" fill="#5E5E5E"/>
<path d="M4.69141 25.8899C4.69141 26.2304 4.97329 26.5064 5.32118 26.5064H22.2829C22.6308 26.5064 22.9127 26.2304 22.9127 25.8899C22.9127 25.5494 22.6308 25.2734 22.2829 25.2734H5.32118C4.97329 25.2734 4.69141 25.5494 4.69141 25.8899Z" fill="#5E5E5E"/>
<path d="M5.32118 29.1392H22.2829C22.6308 29.1392 22.9127 28.8632 22.9127 28.5227C22.9127 28.1823 22.6308 27.9062 22.2829 27.9062H5.32118C4.97329 27.9062 4.69141 28.1823 4.69141 28.5227C4.69141 28.8632 4.97329 29.1392 5.32118 29.1392Z" fill="#5E5E5E"/>
<path d="M9.05469 22.0269C9.05469 22.3674 9.33657 22.6434 9.68446 22.6434C10.0323 22.6434 10.3142 22.3674 10.3142 22.0269C10.3142 20.1461 11.8775 18.6158 13.799 18.6158C15.7204 18.6158 17.2837 20.1461 17.2837 22.0269C17.2837 22.3674 17.5656 22.6434 17.9135 22.6434C18.2614 22.6434 18.5432 22.3674 18.5432 22.0269C18.5432 20.1935 17.452 18.6051 15.8721 17.8506C16.5307 17.2852 16.9478 16.4564 16.9478 15.5335C16.9478 13.8339 15.5353 12.4512 13.799 12.4512C12.0626 12.4512 10.6501 13.8339 10.6501 15.5335C10.6501 16.4564 11.0672 17.2852 11.7258 17.8506C10.146 18.6051 9.05469 20.1935 9.05469 22.0269ZM11.9096 15.5335C11.9096 14.5137 12.7572 13.6841 13.799 13.6841C14.8407 13.6841 15.6883 14.5137 15.6883 15.5335C15.6883 16.5533 14.8407 17.3829 13.799 17.3829C12.7572 17.3829 11.9096 16.5533 11.9096 15.5335Z" fill="#5E5E5E"/>
</svg>