<?xml version="1.0" encoding="UTF-8"?>
<svg width="223px" height="132px" viewBox="0 0 223 132" version="1.1" xmlns="http://www.w3.org/2000/svg" xmlns:xlink="http://www.w3.org/1999/xlink">
    <!-- Generator: Sketch 50.2 (55047) - http://www.bohemiancoding.com/sketch -->
    <title>Pareto Charts</title>
    <desc>Created with Sketch.</desc>
    <defs>
        <linearGradient x1="94.893743%" y1="100%" x2="10.1069014%" y2="6.02534227%" id="linearGradient-1Pa">
            <stop stop-color="#7AA3FB" offset="0%"></stop>
            <stop stop-color="#2CDAFC" offset="100%"></stop>
        </linearGradient>
        <linearGradient x1="0%" y1="100%" x2="100%" y2="0%" id="linearGradient-2Pa">
            <stop stop-color="#EFF274" offset="0%"></stop>
            <stop stop-color="#F8B648" offset="100%"></stop>
        </linearGradient>
    </defs>
    <g id="Page-1" stroke="none" stroke-width="1" fill="none" fill-rule="evenodd">
        <g id="fusionCharts-XT" transform="translate(-1034.000000, -500.000000)">
            <g id="Chart-1-Copy-5" transform="translate(1012.000000, 474.000000)">
                <g id="Pareto-Charts" transform="translate(21.000000, 24.000000)">
                    <g id="graph" transform="translate(0.000000, 34.000000)">
                        <g id="Group-3" transform="translate(26.931034, 94.810289)" fill="#000000" font-family="SourceSansPro-Regular, Source Sans Pro" font-size="4.3860002" font-weight="normal">
                            <text id="Jan">
                                <tspan x="0.14251685" y="4">Jan</tspan>
                            </text>
                            <text id="Feb">
                                <tspan x="30.1469029" y="4">Feb</tspan>
                            </text>
                            <text id="Mar">
                                <tspan x="60.0394458" y="4">Mar</tspan>
                            </text>
                            <text id="Apr">
                                <tspan x="90.3289219" y="4">Apr</tspan>
                            </text>
                            <text id="May">
                                <tspan x="119.276286" y="4">May</tspan>
                            </text>
                            <text id="Jun">
                                <tspan x="150.054797" y="4">Jun</tspan>
                            </text>
                            <text id="Jul">
                                <tspan x="180.195153" y="4">Jul</tspan>
                            </text>
                        </g>
                        <g id="Group-2" transform="translate(0.310345, 0.681672)" fill="#7A869B" font-family="SourceSansPro-Semibold, Source Sans Pro" font-size="4.3860002" font-weight="500">
                            <text id="$-0">
                                <tspan x="7.72883143" y="84.4410076">$ 0</tspan>
                            </text>
                            <text id="$-200k">
                                <tspan x="1.19115419" y="64.8566162">$ 200k</tspan>
                            </text>
                            <text id="$-400k">
                                <tspan x="1.19115419" y="44.577053">$ 400k</tspan>
                            </text>
                            <text id="$-600k">
                                <tspan x="1.19115419" y="24.8769059">$ 600k</tspan>
                            </text>
                            <text id="$-800k">
                                <tspan x="1.19115419" y="4.59734272">$ 800k</tspan>
                            </text>
                        </g>
                        <rect id="Rectangle-5" fill="#D8D8D8" opacity="0.4" x="19" y="64" width="204.413793" height="1"></rect>
                        <rect id="Rectangle-5" fill="#D8D8D8" opacity="0.4" x="19" y="44" width="204.413793" height="1"></rect>
                        <rect id="Rectangle-5" fill="#D8D8D8" opacity="0.4" x="19" y="24" width="204.413793" height="1"></rect>
                        <rect id="Rectangle-5" fill="#D8D8D8" opacity="0.4" x="19" y="4" width="204.413793" height="1"></rect>
                        <rect id="Rectangle-5" fill="#D8D8D8" opacity="0.4" x="19" y="84" width="204.413793" height="1"></rect>
                        <g id="Group-17" transform="translate(25.517241, 4.344051)" fill="url(#linearGradient-1Pa)">
                            <path d="M2,0 L10,0 C11.1045695,-2.02906125e-16 12,0.8954305 12,2 L12,80 L0,80 L0,2 C-1.3527075e-16,0.8954305 0.8954305,2.02906125e-16 2,0 Z" id="Rectangle"></path>
                            <path d="M28,8 L36,8 C37.1045695,8 38,8.8954305 38,10 L38,80 L26,80 L26,10 C26,8.8954305 26.8954305,8 28,8 Z" id="Rectangle"></path>
                            <path d="M58,40 L66,40 C67.1045695,40 68,40.8954305 68,42 L68,80 L56,80 L56,42 C56,40.8954305 56.8954305,40 58,40 Z" id="Rectangle"></path>
                            <path d="M88,46 L96,46 C97.1045695,46 98,46.8954305 98,48 L98,80 L86,80 L86,48 C86,46.8954305 86.8954305,46 88,46 Z" id="Rectangle"></path>
                            <path d="M118,59 L126,59 C127.104569,59 128,59.8954305 128,61 L128,80 L116,80 L116,61 C116,59.8954305 116.895431,59 118,59 Z" id="Rectangle"></path>
                            <path d="M148,68 L156,68 C157.104569,68 158,68.8954305 158,70 L158,80 L146,80 L146,70 C146,68.8954305 146.895431,68 148,68 Z" id="Rectangle"></path>
                            <path d="M178,76 L186,76 C187.104569,76 188,76.8954305 188,78 L188,80 L176,80 L176,78 C176,76.8954305 176.895431,76 178,76 Z" id="Rectangle"></path>
                        </g>
                        <g id="Group-19" transform="translate(28.517241, 4.344051)">
                            <polyline id="Path-11" stroke="url(#linearGradient-2Pa)" points="2 71 28 44 58 33 88 17 119 7 149 4 179 1"></polyline>
                            <circle id="Oval-2" stroke="#EFF173" stroke-width="0.8" fill="#FFFFFF" cx="1.5" cy="71.5" r="1.5"></circle>
                            <circle id="Oval-2" stroke="#F0E76C" stroke-width="0.8" fill="#FFFFFF" cx="29.5" cy="43.5" r="1.5"></circle>
                            <circle id="Oval-2" stroke="#F2DE65" stroke-width="0.8" fill="#FFFFFF" cx="58.5" cy="32.5" r="1.5"></circle>
                            <circle id="Oval-2" stroke="#F3D35D" stroke-width="0.8" fill="#FFFFFF" cx="88.5" cy="16.5" r="1.5"></circle>
                            <circle id="Oval-2" stroke="#F5C956" stroke-width="0.8" fill="#FFFFFF" cx="118.5" cy="7.5" r="1.5"></circle>
                            <circle id="Oval-2" stroke="#F6C04F" stroke-width="0.8" fill="#FFFFFF" cx="147.5" cy="4.5" r="1.5"></circle>
                            <circle id="Oval-2" stroke="#F8B749" stroke-width="0.8" fill="#FFFFFF" cx="178.5" cy="1.5" r="1.5"></circle>
                        </g>
                    </g>
                    
                </g>
            </g>
        </g>
    </g>
</svg>