<svg width="10" height="10" viewBox="0 0 10 10" fill="none" xmlns="http://www.w3.org/2000/svg">
<g clip-path="url(#clip0)">
<path d="M9.57195 0.425151C9.29702 0.150865 8.92452 -0.00317383 8.53617 -0.00317383C8.14782 -0.00317383 7.77532 0.150865 7.50039 0.425151L0.911656 7.01389C0.852145 7.0734 0.869148 7.06915 0.840809 7.12866L0.0147376 9.61467C-0.0025987 9.66628 -0.00518737 9.72171 0.00726286 9.77472C0.0197131 9.82773 0.0467082 9.87622 0.0852113 9.91472C0.123714 9.95322 0.172198 9.98022 0.225207 9.99267C0.278216 10.0051 0.333647 10.0025 0.385265 9.98519L2.87694 9.15275C2.91783 9.13899 2.95512 9.11623 2.98604 9.08615L9.57478 2.49741C9.84889 2.2224 10.0028 1.84993 10.0028 1.46164C10.0028 1.07334 9.84889 0.700878 9.57478 0.425859L9.57195 0.425151ZM2.48728 8.6639L0.75721 9.2406L1.3339 7.51052H1.65838V8.04612C1.65829 8.08467 1.66581 8.12285 1.68052 8.15847C1.69522 8.1941 1.71682 8.22647 1.74408 8.25373C1.77133 8.28098 1.8037 8.30258 1.83933 8.31729C1.87496 8.332 1.91314 8.33952 1.95168 8.33943H2.48728V8.6639ZM3.07319 8.16798V8.04612C3.07328 8.00758 3.06576 7.9694 3.05105 7.93377C3.03634 7.89814 3.01474 7.86577 2.98749 7.83852C2.96023 7.81126 2.92786 7.78966 2.89223 7.77495C2.85661 7.76025 2.81842 7.75272 2.77988 7.75282H2.24357V7.21722C2.24367 7.17867 2.23614 7.14049 2.22144 7.10486C2.20673 7.06923 2.18513 7.03686 2.15787 7.00961C2.13062 6.98236 2.09825 6.96075 2.06262 6.94605C2.02699 6.93134 1.98881 6.92382 1.95027 6.92391H1.82912L6.52696 2.23032L7.76961 3.47156L3.07319 8.16798ZM8.18548 3.05569L6.9407 1.81587L7.35516 1.40142L8.59852 2.64478L8.18548 3.05569ZM9.15891 2.08296L9.01722 2.22465L7.76961 0.986964L7.9113 0.845271C8.07656 0.682205 8.2996 0.591121 8.53177 0.591895C8.76393 0.592669 8.98636 0.685239 9.15053 0.849404C9.31469 1.01357 9.40726 1.236 9.40804 1.46816C9.40881 1.70033 9.31773 1.92337 9.15466 2.08863L9.15891 2.08296Z" fill="#424242"/>
</g>
<defs>
<clipPath id="clip0">
<rect width="10" height="10" fill="white"/>
</clipPath>
</defs>
</svg>
