<svg xmlns="http://www.w3.org/2000/svg" width="44" height="44" viewBox="0 0 38 38">
  <g id="Group_234" data-name="Group 234" transform="translate(-983 -348)">
    <rect id="Rectangle_124" data-name="Rectangle 124" width="38" height="38" rx="6" transform="translate(983 348)" fill="#c9ffe6"/>
    <path id="Icon_awesome-plus" data-name="Icon awesome-plus" d="M12.384,7.489H8.1V3.2a.953.953,0,0,0-.953-.953H6.192a.953.953,0,0,0-.953.953V7.489H.953A.953.953,0,0,0,0,8.442v.953a.953.953,0,0,0,.953.953H5.239v4.287a.953.953,0,0,0,.953.953h.953a.953.953,0,0,0,.953-.953V10.347h4.287a.953.953,0,0,0,.953-.953V8.442A.953.953,0,0,0,12.384,7.489Z" transform="translate(995.25 358.5)" fill="#00e178"/>
  </g>
</svg>
