<svg xmlns="http://www.w3.org/2000/svg" width="237.06" height="285.32" viewBox="0 0 237.06 285.32">
  <g id="Group_641" data-name="Group 641" transform="translate(-265.468 -160.979)">
    <g id="Group_507" data-name="Group 507" transform="translate(348.049 265.781)">
      <g id="Group_506" data-name="Group 506" transform="translate(0 0)">
        <g id="Path_1000" data-name="Path 1000" transform="translate(0 18.207)" fill="none">
          <path d="M11.951.012h87a11.719,11.719,0,0,1,12,12v100c0,6.856-5.144,13-12,13h-87c-6.856,0-12-6.144-12-13v-100A11.719,11.719,0,0,1,11.951.012Z" stroke="none"/>
          <path d="M 11.951171875 9.012451171875 C 10.07266998291016 9.012451171875 8.951171875 10.13394927978516 8.951171875 12.012451171875 L 8.951171875 112.012451171875 C 8.951171875 113.9006500244141 10.23414611816406 116.012451171875 11.951171875 116.012451171875 L 98.951171875 116.012451171875 C 100.6681976318359 116.012451171875 101.951171875 113.9006500244141 101.951171875 112.012451171875 L 101.951171875 12.012451171875 C 101.951171875 10.13394927978516 100.8296737670898 9.012451171875 98.951171875 9.012451171875 L 11.951171875 9.012451171875 M 11.951171875 0.012451171875 L 98.951171875 0.012451171875 C 105.8070983886719 0.012451171875 110.951171875 5.156524658203125 110.951171875 12.012451171875 L 110.951171875 112.012451171875 C 110.951171875 118.8683776855469 105.8070983886719 125.012451171875 98.951171875 125.012451171875 L 11.951171875 125.012451171875 C 5.095245361328125 125.012451171875 -0.048828125 118.8683776855469 -0.048828125 112.012451171875 L -0.048828125 12.012451171875 C -0.048828125 5.156524658203125 5.095245361328125 0.012451171875 11.951171875 0.012451171875 Z" stroke="none" fill="#2079c0"/>
        </g>
        <g id="Path_999" data-name="Path 999" transform="translate(27.057 0)" fill="#86cdad">
          <path d="M 48.8935546875 27.21923828125 L 6.8935546875 27.21923828125 C 6.092342853546143 27.21923828125 5.473531246185303 26.95035552978516 5.161578178405762 26.69872093200684 C 5.047344207763672 26.60657501220703 4.981805324554443 26.5294017791748 4.944195747375488 26.46113967895508 L 8.796460151672363 7.199814796447754 L 8.8935546875 6.714332580566406 L 8.8935546875 6.21923828125 C 8.8935546875 6.089803218841553 8.8935546875 5.955955982208252 9.161578178405762 5.739756107330322 C 9.473530769348145 5.488120555877686 10.0923433303833 5.21923828125 10.8935546875 5.21923828125 L 44.8935546875 5.21923828125 C 45.69476699829102 5.21923828125 46.31357955932617 5.488120555877686 46.62553024291992 5.739756107330322 C 46.8935546875 5.955955982208252 46.8935546875 6.089803218841553 46.8935546875 6.21923828125 L 46.8935546875 6.714332580566406 L 46.99065017700195 7.199814796447754 L 50.84291458129883 26.46113967895508 C 50.80530548095703 26.5294017791748 50.73976516723633 26.60657501220703 50.62553024291992 26.69872093200684 C 50.31357955932617 26.95035552978516 49.69476699829102 27.21923828125 48.8935546875 27.21923828125 Z" stroke="none"/>
          <path d="M 13.29158782958984 10.21923828125 L 10.89158630371094 22.21923828125 L 44.89552307128906 22.21923828125 L 42.49552154541016 10.21923828125 L 13.29158782958984 10.21923828125 M 10.8935546875 0.21923828125 L 44.8935546875 0.21923828125 C 48.55004501342773 0.21923828125 51.8935546875 2.562747955322266 51.8935546875 6.21923828125 L 55.8935546875 26.21923828125 C 55.8935546875 29.87572860717773 52.55006408691406 32.21923828125 48.8935546875 32.21923828125 L 6.8935546875 32.21923828125 C 3.237064361572266 32.21923828125 -0.1064453125 29.87572860717773 -0.1064453125 26.21923828125 L 3.8935546875 6.21923828125 C 3.8935546875 2.562747955322266 7.237064361572266 0.21923828125 10.8935546875 0.21923828125 Z" stroke="none" fill="#2079c0"/>
        </g>
      </g>
      <g id="list_1_" data-name="list (1)" transform="translate(24 44.69)">
        <g id="Group_498" data-name="Group 498" transform="translate(0 0)">
          <path id="Path_484" data-name="Path 484" d="M129.951,46.2h64a2,2,0,0,0,0-4h-64a2,2,0,0,0,0,4Z" transform="translate(-128 -42.666)" fill="#2ec8db"/>
          <path id="Path_485" data-name="Path 485" d="M130.395,110.814h37a2,2,0,0,0,0-4h-37a2,2,0,0,0,0,4Z" transform="translate(-101.443 -95.285)" fill="#2ec8db"/>
          <path id="Path_486" data-name="Path 486" d="M129.951,217.512h64a2,2,0,0,0,0-4h-64a2,2,0,0,0,0,4Z" transform="translate(-128 -182.983)" fill="#2ec8db"/>
          <path id="Path_487" data-name="Path 487" d="M130.395,281.131h37a2,2,0,0,0,0-4h-37a2,2,0,0,0,0,4Z" transform="translate(-101.443 -235.601)" fill="#2ec8db"/>
          <path id="Path_488" data-name="Path 488" d="M129.951,387.828h64a2,2,0,0,0,0-4h-64a2,2,0,0,0,0,4Z" transform="translate(-128 -323.298)" fill="#2ec8db"/>
          <path id="Path_489" data-name="Path 489" d="M130.395,451.447h37a2.078,2.078,0,0,0,2-2c0-1.048-.952-1-2-1h-37c-1.048,0-2-.048-2,1A2.078,2.078,0,0,0,130.395,451.447Z" transform="translate(-101.443 -375.917)" fill="#2ec8db"/>
        </g>
        <path id="Path_490" data-name="Path 490" d="M129.951,46.2h64a2,2,0,0,0,0-4h-64a2,2,0,0,0,0,4Z" transform="translate(-128 -42.666)" fill="#2ec8db"/>
        <path id="Path_491" data-name="Path 491" d="M130.395,110.814h37a2,2,0,0,0,0-4h-37a2,2,0,0,0,0,4Z" transform="translate(-101.443 -95.285)" fill="#2ec8db"/>
        <path id="Path_492" data-name="Path 492" d="M129.951,217.512h64a2,2,0,0,0,0-4h-64a2,2,0,0,0,0,4Z" transform="translate(-128 -182.983)" fill="#2ec8db"/>
        <path id="Path_493" data-name="Path 493" d="M130.395,281.131h37a2,2,0,0,0,0-4h-37a2,2,0,0,0,0,4Z" transform="translate(-101.443 -235.601)" fill="#2ec8db"/>
        <path id="Path_494" data-name="Path 494" d="M129.951,387.828h64a2,2,0,0,0,0-4h-64a2,2,0,0,0,0,4Z" transform="translate(-128 -323.298)" fill="#2ec8db"/>
        <path id="Path_495" data-name="Path 495" d="M130.395,451.447h37a2.078,2.078,0,0,0,2-2c0-1.048-.952-1-2-1h-37c-1.048,0-2-.048-2,1A2.078,2.078,0,0,0,130.395,451.447Z" transform="translate(-101.443 -375.917)" fill="#2ec8db"/>
      </g>
    </g>
    <g id="hexagon" transform="translate(346.878 160.979) rotate(31)">
      <g id="Group_503" data-name="Group 503" transform="translate(0 0)">
        <path id="Path_996" data-name="Path 996" d="M181.03,76.762,137.714,1.907A4.007,4.007,0,0,0,134.111,0H47.475a4.007,4.007,0,0,0-3.6,1.907L.556,76.849a4.088,4.088,0,0,0,0,4.117l43.316,75.023a4.156,4.156,0,0,0,3.6,2.078h86.635a4.177,4.177,0,0,0,3.6-2.1L181.03,80.931A4.184,4.184,0,0,0,181.03,76.762Zm-49.32,72.985H49.876L8.962,79.034,49.876,8.319H131.71l40.914,70.715Z" fill="#2079c0"/>
        <path id="Path_998" data-name="Path 998" d="M0,.082,3.787,10.1s35.241.038,35.241.038L34.642,0Z" transform="translate(53.353 148.732)" fill="#f4f8f9"/>
      </g>
    </g>
    <g id="Group_505" data-name="Group 505" transform="translate(272.211 239.368)">
      <g id="pencil_1_" data-name="pencil (1)" transform="translate(0 58.827) rotate(-45)">
        <g id="Group_504" data-name="Group 504" transform="translate(0 0)">
          <path id="Path_997" data-name="Path 997" d="M80.606,2.458C76.963-1.188,71.622-.6,67.983,3.043L6.105,64.951c-.377.378-.273.353-.451.73L.372,81.542c-.224.672-.635.828-.135,1.328s.96.382,1.619.158L17.74,77.717a1.836,1.836,0,0,0,.7-.426L80.313,15.383a9.018,9.018,0,0,0,.292-12.925ZM4.511,78.593Z" transform="translate(0 0)" fill="#86cdad"/>
        </g>
      </g>
      <g id="pencil_1_2" data-name="pencil (1)" transform="translate(0 58.827) rotate(-45)">
        <g id="Group_504-2" data-name="Group 504" transform="translate(0 0)">
          <path id="Path_997-2" data-name="Path 997" d="M80.606,2.458C76.963-1.188,71.622-.6,67.983,3.043L6.105,64.951c-.377.378-.273.353-.451.73L.372,81.542c-.224.672-.635.828-.135,1.328s.96.382,1.619.158L17.74,77.717a1.836,1.836,0,0,0,.7-.426L80.313,15.383a9.018,9.018,0,0,0,.292-12.925ZM15.247,74.622,4.511,78.593,8.772,68.142h2.07v3.417c0,1.033-.042.991.99.991h3.415Zm3.736-3.166v-.776a1.867,1.867,0,0,0-1.868-1.869l-3.122.293.585-2.832A1.867,1.867,0,0,0,12.71,64.4h-.775L61.78,14.538l7.046,7.052-4.034,4.036Zm52.485-52.51-7.046-7.052,2.642-2.644L74.11,16.3Zm6.2-6.207-.921.92L69.7,6.607l.92-.921c2.185-2.189,5.155-2.77,7.34-.585s1.893,5.452-.292,7.639Z" transform="translate(0 0)" fill="#2079c0"/>
        </g>
      </g>
    </g>
    <g id="Group_509" data-name="Group 509" transform="translate(34 41)">
      <rect id="Rectangle_448" data-name="Rectangle 448" width="90" height="73" transform="translate(348.752 325.374) rotate(-29)" fill="#f4f8f9"/>
      <rect id="Rectangle_449" data-name="Rectangle 449" width="69" height="80" transform="translate(307 325.3)" fill="#f4f8f9"/>
      <rect id="Rectangle_450" data-name="Rectangle 450" width="42" height="43" transform="translate(312.001 303.8) rotate(31)" fill="#f4f8f9"/>
    </g>
  </g>
</svg>
