<svg xmlns="http://www.w3.org/2000/svg" width="25.295" height="13.148" viewBox="0 0 25.295 13.148"><defs><style>.a{fill:#ebebeb;}</style></defs><g transform="translate(-11)"><g transform="translate(12)"><g transform="translate(-1)"><path class="a" d="M145.686,128H132.073a2.2,2.2,0,0,0-2.145,1.74l-1.884,8.951a2.036,2.036,0,0,0,1.992,2.457h13.613a2.2,2.2,0,0,0,2.145-1.74l1.884-8.951A2.036,2.036,0,0,0,145.686,128Zm-13.613,1.1h13.6c-1.9,1.321-6.088,4.225-7.652,5.3-.212.145-.648.287-.9.053-1.125-1.058-4.093-3.9-5.494-5.241A1.07,1.07,0,0,1,132.073,129.1Zm14.533,1.134-1.884,8.952a1.1,1.1,0,0,1-1.073.87H130.036a.94.94,0,0,1-.92-1.134l1.857-8.824c1.444,1.383,4.3,4.117,5.4,5.149a1.589,1.589,0,0,0,1.109.437,2.063,2.063,0,0,0,1.158-.384c1.648-1.129,6.209-4.294,7.941-5.5a.9.9,0,0,1,.048.238A.943.943,0,0,1,146.606,130.23Z" transform="translate(-128 -128)"/><path class="a" d="M.548,342.429H4.93a.548.548,0,0,0,0-1.1H.548a.548.548,0,0,0,0,1.1Z" transform="translate(19.817 -340.237)"/><path class="a" d="M.548,278.429h4.93a.548.548,0,0,0,0-1.1H.548a.548.548,0,0,0,0,1.1Z" transform="translate(19.269 -272.95)"/><path class="a" d="M.548,214.429H6.026a.548.548,0,0,0,0-1.1H.548a.548.548,0,1,0,0,1.1Z" transform="translate(18.721 -205.663)"/><path class="a" d="M6.574,149.333H.548a.548.548,0,0,0,0,1.1H6.574a.548.548,0,0,0,0-1.1Z" transform="translate(18.174 -138.377)"/></g></g></g></svg>