<svg width="33" height="42" viewBox="0 0 33 42" fill="none" xmlns="http://www.w3.org/2000/svg">
<path d="M13.7553 5.1582H5.1582V6.87759H13.7553V5.1582Z" fill="#151515"/>
<path d="M6.87759 8.59766H5.1582V10.317H6.87759V8.59766Z" fill="#151515"/>
<path d="M10.317 8.59766H8.59766V10.317H10.317V8.59766Z" fill="#151515"/>
<path d="M32.417 7.12959L25.5394 0.251868C25.3782 0.0906724 25.1595 0 24.9316 0H2.57913C1.15472 0 0 1.15472 0 2.57913V38.6869C0 40.1113 1.15472 41.266 2.57913 41.266H30.0898C31.5142 41.266 32.6689 40.1113 32.6689 38.6869V7.73738C32.6689 7.50937 32.5783 7.29079 32.417 7.12959ZM30.9495 38.6869C30.9495 39.1617 30.5646 39.5466 30.0898 39.5466H2.57913C2.10433 39.5466 1.71939 39.1617 1.71939 38.6869V2.57913C1.71939 2.10433 2.10433 1.71939 2.57913 1.71939H24.5756L30.9495 8.0933V38.6869Z" fill="#151515"/>
<path d="M26.6514 6.87737C26.1766 6.87737 25.7917 6.49243 25.7917 6.01763V0.859375H24.0723V6.01763C24.0723 7.44203 25.227 8.59676 26.6514 8.59676H28.3708V6.87737H26.6514Z" fill="#151515"/>
<path d="M27.5104 29.2305H25.791V30.9499H27.5104V29.2305Z" fill="#151515"/>
<path d="M24.0729 29.2305H22.3535V30.9499H24.0729V29.2305Z" fill="#151515"/>
<path d="M18.9136 29.2305H5.1582V30.9499H18.9136V29.2305Z" fill="#151515"/>
<path d="M27.5106 33.5293H5.1582V35.2487H27.5106V33.5293Z" fill="#151515"/>
<path d="M25.7911 12.8945H6.87759C5.92799 12.8945 5.1582 13.6643 5.1582 14.6139V24.9304C5.1582 25.88 5.92799 26.6498 6.87759 26.6498H25.7912C26.7408 26.6498 27.5106 25.88 27.5106 24.9304V14.6139C27.5106 13.6643 26.7407 12.8945 25.7911 12.8945ZM25.7911 24.9304H6.87759V14.6139H25.7912V24.9304H25.7911Z" fill="#151515"/>
</svg>