<svg xmlns="http://www.w3.org/2000/svg" width="15.066" height="11.682" viewBox="0 0 15.066 11.682">
  
                <path class="a" d="M14.765,56.375H.3a.3.3,0,0,0-.3.3V67.757a.3.3,0,0,0,.3.3H14.765a.3.3,0,0,0,.3-.3V56.675A.3.3,0,0,0,14.765,56.375ZM3.616,67.457H.6V65.839H3.616Zm0-2.218H.6V63.621H3.616Zm0-2.218H.6V61.4H3.616Zm0-2.218H.6V59.193H3.616Zm3.616,6.653H4.217V65.839H7.233Zm0-2.218H4.217V63.621H7.233Zm0-2.218H4.217V61.4H7.233Zm0-2.218H4.217V59.193H7.233Zm3.616,6.653H7.833V65.839h3.016Zm0-2.218H7.833V63.621h3.016Zm0-2.218H7.833V61.4h3.016Zm0-2.218H7.833V59.193h3.016Zm3.616,6.653H11.449V65.839h3.016Zm0-2.218H11.449V63.621h3.016Zm0-2.218H11.449V61.4h3.016Zm0-2.218H11.449V59.193h3.016Zm0-2.218H.6V56.975H14.465Z" transform="translate(0 -56.375)"/>
                <path class="a" d="M199.3,88.225h5.762a.3.3,0,0,0,0-.6H199.3a.3.3,0,0,0,0,.6Z" transform="translate(-193.028 -86.687)"/>
                <path class="a" d="M426.3,88.225h.66a.3.3,0,0,0,0-.6h-.66a.3.3,0,1,0,0,.6Z" transform="translate(-413.215 -86.687)"/>
          
</svg>
