<svg xmlns="http://www.w3.org/2000/svg" width="19" height="19" viewBox="0 0 19 19">
    <defs>
        <style>
            .a{fill:#9a99af}
        </style>
    </defs>
    <g transform="translate(0.001 0.001)">
        <path class="a" d="M37.032,122.209h.539a.278.278,0,1,0,0-.557h-.539a.278.278,0,1,0,0,.557Zm0,0" transform="translate(-35.391 -117.138)"/>
        <path class="a" d="M37.032,159.713h.539a.278.278,0,1,0,0-.557h-.539a.278.278,0,1,0,0,.557Zm0,0" transform="translate(-35.391 -153.251)"/>
        <path class="a" d="M37.032,197.217h.539a.278.278,0,0,0,0-.557h-.539a.278.278,0,1,0,0,.557Zm0,0" transform="translate(-35.391 -189.363)"/>
        <path class="a" d="M37.032,234.721h.539a.278.278,0,0,0,0-.557h-.539a.278.278,0,1,0,0,.557Zm0,0" transform="translate(-35.391 -225.475)"/>
        <path class="a" d="M37.032,272.225h.539a.278.278,0,0,0,0-.557h-.539a.278.278,0,1,0,0,.557Zm0,0" transform="translate(-35.391 -261.587)"/>
        <path class="a" d="M37.032,309.733h.539a.278.278,0,1,0,0-.557h-.539a.278.278,0,1,0,0,.557Zm0,0" transform="translate(-35.391 -297.703)"/>
        <path class="a" d="M37.032,347.237h.539a.278.278,0,0,0,0-.557h-.539a.278.278,0,1,0,0,.557Zm0,0" transform="translate(-35.391 -333.816)"/>
        <path class="a" d="M37.032,384.741h.539a.278.278,0,0,0,0-.557h-.539a.278.278,0,1,0,0,.557Zm0,0" transform="translate(-35.391 -369.928)"/>
        <path class="a" d="M37.032,422.244h.539a.278.278,0,0,0,0-.557h-.539a.278.278,0,1,0,0,.557Zm0,0" transform="translate(-35.391 -406.039)"/>
        <path class="a" d="M37.032,459.752h.539a.278.278,0,1,0,0-.557h-.539a.278.278,0,1,0,0,.557Zm0,0" transform="translate(-35.391 -442.155)"/>
        <path class="a" d="M78.568,122.209h2.618a.278.278,0,0,0,0-.557H78.568a.278.278,0,1,0,0,.557Zm0,0" transform="translate(-75.384 -117.138)"/>
        <path class="a" d="M78.568,272.225h2.618a.278.278,0,0,0,0-.557H78.568a.278.278,0,1,0,0,.557Zm0,0" transform="translate(-75.384 -261.587)"/>
        <path class="a" d="M78.568,347.237h2.618a.278.278,0,0,0,0-.557H78.568a.278.278,0,1,0,0,.557Zm0,0" transform="translate(-75.384 -333.816)"/>
        <path class="a" d="M78.568,159.713h1.467a.278.278,0,1,0,0-.557H78.568a.278.278,0,1,0,0,.557Zm0,0" transform="translate(-75.384 -153.251)"/>
        <path class="a" d="M78.568,197.217h1.467a.278.278,0,0,0,0-.557H78.568a.278.278,0,1,0,0,.557Zm0,0" transform="translate(-75.384 -189.363)"/>
        <path class="a" d="M78.568,459.752h1.467a.278.278,0,1,0,0-.557H78.568a.278.278,0,1,0,0,.557Zm0,0" transform="translate(-75.384 -442.155)"/>
        <path class="a" d="M78.568,309.733H79.3a.278.278,0,0,0,0-.557h-.734a.278.278,0,1,0,0,.557Zm0,0" transform="translate(-75.384 -297.703)"/>
        <path class="a" d="M78.568,234.721h2.162a.278.278,0,0,0,0-.557H78.568a.278.278,0,1,0,0,.557Zm0,0" transform="translate(-75.384 -225.475)"/>
        <path class="a" d="M78.568,384.741h2.162a.278.278,0,0,0,0-.557H78.568a.278.278,0,1,0,0,.557Zm0,0" transform="translate(-75.384 -369.928)"/>
        <path class="a" d="M78.568,422.244h2.162a.278.278,0,0,0,0-.557H78.568a.278.278,0,1,0,0,.557Zm0,0" transform="translate(-75.384 -406.039)"/>
        <path class="a" d="M33.571,28.793a.817.817,0,1,0,.817.817A.818.818,0,0,0,33.571,28.793Zm0,1.077a.26.26,0,1,1,.26-.26A.26.26,0,0,1,33.571,29.87Zm0,0" transform="translate(-31.539 -27.725)"/>
        <path class="a" d="M89.621,28.793a.817.817,0,1,0,.817.817A.818.818,0,0,0,89.621,28.793Zm0,1.077a.26.26,0,1,1,.26-.26A.26.26,0,0,1,89.621,29.87Zm0,0" transform="translate(-85.509 -27.725)"/>
        <path class="a" d="M145.664,28.793a.817.817,0,1,0,.817.817A.818.818,0,0,0,145.664,28.793Zm0,1.077a.26.26,0,1,1,.26-.26A.26.26,0,0,1,145.664,29.87Zm0,0" transform="translate(-139.473 -27.725)"/>
        <path class="a" d="M240.008,126.989h6.858a.72.72,0,0,0,.719-.719v-3.9a.72.72,0,0,0-.719-.719h-6.858a.72.72,0,0,0-.719.719v3.9A.72.72,0,0,0,240.008,126.989Zm-.162-4.617a.162.162,0,0,1,.162-.162h6.858a.162.162,0,0,1,.162.162v3.9a.162.162,0,0,1-.162.162h-6.858a.162.162,0,0,1-.162-.162Zm0,0" transform="translate(-230.41 -117.139)"/>
        <path class="a" d="M239.567,278.135h4.4a.278.278,0,1,0,0-.557h-4.4a.278.278,0,0,0,0,.557Zm0,0" transform="translate(-230.41 -267.278)"/>
        <path class="a" d="M398.13,277.578a.278.278,0,0,0,0,.557h1.855a.278.278,0,0,0,0-.557Zm0,0" transform="translate(-383.089 -267.278)"/>
        <path class="a" d="M240.008,308.6h6.858a.72.72,0,0,0,.719-.719v-3.9a.72.72,0,0,0-.719-.719h-6.858a.72.72,0,0,0-.719.719v1.276a.278.278,0,0,0,.557,0v-1.276a.162.162,0,0,1,.162-.162h6.858a.162.162,0,0,1,.162.162v3.9a.162.162,0,0,1-.162.162h-6.858a.162.162,0,0,1-.162-.162v-.952a.278.278,0,1,0-.557,0v.952A.72.72,0,0,0,240.008,308.6Zm0,0" transform="translate(-230.41 -292.013)"/>
        <path class="a" d="M239.567,459.752h4.4a.278.278,0,1,0,0-.557h-4.4a.278.278,0,1,0,0,.557Zm0,0" transform="translate(-230.41 -442.155)"/>
        <path class="a" d="M399.986,459.2H398.13a.278.278,0,0,0,0,.557h1.855a.278.278,0,0,0,0-.557Zm0,0" transform="translate(-383.089 -442.155)"/>
        <path class="a" d="M17.774,0H1.224A1.226,1.226,0,0,0,0,1.224V6.366a.278.278,0,0,0,.557,0V3.786h6.4V18.443H1.224a.669.669,0,0,1-.668-.668V7.994a.278.278,0,0,0-.557,0v9.78A1.227,1.227,0,0,0,1.224,19h16.55A1.227,1.227,0,0,0,19,17.774V1.224A1.226,1.226,0,0,0,17.774,0Zm.668,17.775a.669.669,0,0,1-.668.668H7.516V3.786H18.443V17.774Zm0-14.545H.556v-2A.669.669,0,0,1,1.224.556h16.55a.669.669,0,0,1,.668.668Zm0,0"/>
    </g>
</svg>
