<svg width="25" height="25" viewBox="0 0 35 35" fill="none" xmlns="http://www.w3.org/2000/svg">
<circle cx="17.0551" cy="17.0551" r="17.0551" fill="#2979FF"/>
<path d="M7.79156 15.3133C8.77869 13.5553 10.1059 12.1428 11.7731 11.0758C13.4405 10.0087 15.2011 9.4751 17.0552 9.4751C18.9093 9.4751 20.67 10.0085 22.3373 11.0758C24.0047 12.1428 25.3319 13.5553 26.3189 15.3133C26.4598 15.5819 26.5303 15.8468 26.5303 16.1078C26.5303 16.3689 26.4598 16.6338 26.3189 16.9023C25.3319 18.6604 24.0047 20.073 22.3373 21.1398C20.67 22.207 18.9093 22.7402 17.0552 22.7402C15.201 22.7402 13.4404 22.2088 11.7731 21.1456C10.1059 20.0824 8.77847 18.6679 7.79156 16.9023C7.65059 16.6338 7.58014 16.369 7.58014 16.1078C7.58014 15.8468 7.65059 15.5819 7.79156 15.3133ZM19.3237 12.1638C18.6927 11.4768 17.9367 11.1332 17.0553 11.1332C16.9144 11.1332 16.7945 11.1871 16.6957 11.2945C16.5971 11.4019 16.5476 11.5325 16.5476 11.686C16.5476 11.8396 16.5971 11.9701 16.6955 12.0774C16.7941 12.1849 16.9141 12.2387 17.0551 12.2387C17.6613 12.2387 18.1796 12.4729 18.6096 12.9411C19.0398 13.4095 19.2547 13.9737 19.2547 14.6339C19.2547 14.7876 19.3042 14.918 19.4028 15.0255C19.5016 15.1331 19.6214 15.1868 19.7624 15.1868C19.9034 15.1868 20.0233 15.133 20.122 15.0255C20.2208 14.918 20.2701 14.7874 20.2701 14.6339C20.2701 13.6744 19.9545 12.8509 19.3237 12.1638ZM12.4604 19.8677C13.8739 20.8002 15.4055 21.2667 17.0552 21.2667C18.7049 21.2667 20.2365 20.8005 21.6499 19.8677C23.0634 18.9349 24.239 17.6817 25.1766 16.1078C24.105 14.2961 22.762 12.941 21.1476 12.043C21.5776 12.8413 21.7927 13.705 21.7927 14.6338C21.7927 16.0542 21.3291 17.2687 20.4021 18.2783C19.4752 19.288 18.3594 19.7926 17.0552 19.7926C15.7509 19.7926 14.6355 19.2877 13.7083 18.2783C12.7811 17.269 12.3177 16.0542 12.3177 14.6338C12.3177 13.705 12.5328 12.8412 12.9628 12.043C11.3485 12.941 10.0054 14.2962 8.93388 16.1078C9.87134 17.6817 11.0468 18.9349 12.4604 19.8677Z" fill="white"/>
</svg>
