<svg xmlns="http://www.w3.org/2000/svg" width="77.095" height="66.454" viewBox="0 0 77.095 66.454">
    <defs>
        <style>
            .warning{fill:#464655}.warningY{fill:#ffdc64}
        </style>
    </defs>
    <g transform="translate(0.001 -35.333)">
        <path class="warning" d="M76.708,97.616,40.919,36.694a2.748,2.748,0,0,0-4.743,0L.386,97.616a2.766,2.766,0,0,0,2.372,4.172H74.336A2.766,2.766,0,0,0,76.708,97.616Z" transform="translate(0 0)"/>
        <path d="M204.141,109.633A45.166,45.166,0,0,0,189.37,164.9h42.415a2.766,2.766,0,0,0,2.372-4.172Z" transform="translate(-157.449 -63.112)" style="fill:#5b5d6e"/>
        <path class="warningY" d="M82.887,91.888,53.012,142.743a.988.988,0,0,0,.852,1.488h59.193a.988.988,0,0,0,.852-1.488L84.033,91.888A.664.664,0,0,0,82.887,91.888Z" transform="translate(-44.913 -47.76)"/>
        <path d="M185.36,165.445a45.168,45.168,0,0,0,1.99,13.291h38.243a.988.988,0,0,0,.852-1.488L199.97,132.181A45.063,45.063,0,0,0,185.36,165.445Z" transform="translate(-157.45 -82.265)" style="fill:#fff082"/>
        <g transform="translate(35.893 60.586)">
            <circle class="warning" cx="2.658" cy="2.658" r="2.658" transform="translate(0 23.923)"/>
            <path class="warning" d="M239.03,204.565l1.139,17.088a1.371,1.371,0,0,0,1.326,1.323h.183A1.371,1.371,0,0,0,243,221.654l1.139-17.088a1.387,1.387,0,0,0-1.326-1.525h-2.461A1.387,1.387,0,0,0,239.03,204.565Z" transform="translate(-238.928 -203.04)"/>
        </g>
        <path d="M105.572,138.063H46.379a2.317,2.317,0,0,1-2-3.491L74.257,83.716a2,2,0,0,1,3.438,0l29.874,50.856a2.317,2.317,0,0,1-2,3.491Zm-58.6-2.658h58l-29-49.366Z" transform="translate(-37.429 -40.262)" style="fill:#ffc850"/>
        <path class="warningY" d="M234.094,172.347H196.069q.369,1.347.819,2.658h37.8a2.317,2.317,0,0,0,2-3.491l-26.605-45.29q-1.028.891-2,1.839Z" transform="translate(-166.546 -77.205)"/>
    </g>
</svg>
